<svg xmlns="http://www.w3.org/2000/svg" viewBox="0 0 500 500"><g id="freepik--background-simple--inject-27"><path d="M490.35,222.31c-.57-39.84-16.22-78.31-40.07-108a208.94,208.94,0,0,0-49-44.43c-19-12.3-39.69-26.07-62.64-28.18a44.77,44.77,0,0,0-17,1.39C300.14,49.47,342.48,72.2,348,75.53c-59.18-25.32-120.44-51-185.13-48.61-12.47.47-25.41,2.15-36.38,9.07S107.05,56.27,108.68,69.5c1.35,10.94,8.74,23.17,1.81,31.72-2,2.44-4.79,3.89-7.55,5.14-14.15,6.44-29.43,9.82-42.84,18-20.76,12.69-34.92,36-41.49,60.52s-6.25,50.3-3.67,75.25c4.85,46.95,18,93.53,44.73,130.05,38.14,52.15,100.65,78.72,163.27,83.1,75.78,5.3,157.93-22.45,208-86.67,7.43-9.53,14.25-20.08,16.95-32s.56-25.55-7.76-33.4c-2.24-2.11-5.12-4.35-4.88-7.64.33-4.44,5.66-5.94,9.73-6.87,26.67-6.11,41.92-38.47,44.67-67.56A152.79,152.79,0,0,0,490.35,222.31Z" style="fill:#193282"></path><path d="M490.35,222.31c-.57-39.84-16.22-78.31-40.07-108a208.94,208.94,0,0,0-49-44.43c-19-12.3-39.69-26.07-62.64-28.18a44.77,44.77,0,0,0-17,1.39C300.14,49.47,342.48,72.2,348,75.53c-59.18-25.32-120.44-51-185.13-48.61-12.47.47-25.41,2.15-36.38,9.07S107.05,56.27,108.68,69.5c1.35,10.94,8.74,23.17,1.81,31.72-2,2.44-4.79,3.89-7.55,5.14-14.15,6.44-29.43,9.82-42.84,18-20.76,12.69-34.92,36-41.49,60.52s-6.25,50.3-3.67,75.25c4.85,46.95,18,93.53,44.73,130.05,38.14,52.15,100.65,78.72,163.27,83.1,75.78,5.3,157.93-22.45,208-86.67,7.43-9.53,14.25-20.08,16.95-32s.56-25.55-7.76-33.4c-2.24-2.11-5.12-4.35-4.88-7.64.33-4.44,5.66-5.94,9.73-6.87,26.67-6.11,41.92-38.47,44.67-67.56A152.79,152.79,0,0,0,490.35,222.31Z" style="fill:#fff;opacity:0.7000000000000001"></path></g><g id="freepik--Clouds--inject-27"><path d="M286.47,247.55h-25a.5.5,0,0,1-.29-.91s1.64-1.17,3-2.11c1.15-.76,2.71-.48,4-.25a7.27,7.27,0,0,0,1.2.17c.33,0,.49-.17.95-.72a10.1,10.1,0,0,1,2.51-2.23c1.72-1.09,3.49-.53,5.05,0a5.48,5.48,0,0,0,2.57.43c.7-.16.88-.73,1.18-1.83a5.23,5.23,0,0,1,2.15-3.46,3.49,3.49,0,0,1,3.32-.41,2.58,2.58,0,0,0,2.51-.29,4.2,4.2,0,0,0,1.23-2.44c.72-2.52,1.69-5.95,8.6-5.8,3.74.1,6.58,1.13,8.46,3.07a.5.5,0,1,1-.72.7c-1.69-1.75-4.3-2.68-7.76-2.77-6.16-.15-6.92,2.63-7.62,5.07-.35,1.23-.68,2.39-1.66,3a3.48,3.48,0,0,1-3.31.41,2.55,2.55,0,0,0-2.51.29,4.35,4.35,0,0,0-1.73,2.88c-.29,1.11-.6,2.25-1.93,2.55a6.14,6.14,0,0,1-3.09-.46c-1.41-.45-2.88-.92-4.2-.08a9.1,9.1,0,0,0-2.28,2c-.49.57-.91,1.07-1.72,1.07a8.73,8.73,0,0,1-1.38-.18c-1.08-.2-2.42-.45-3.23.1-.58.38-1.2.81-1.73,1.18h23.44a.5.5,0,0,1,.5.5A.51.51,0,0,1,286.47,247.55Z" style="fill:#263238"></path><path d="M310.17,235.76a.44.44,0,0,1-.22,0l-.7-.32a.49.49,0,0,1-.3-.42,5.88,5.88,0,0,0-.79-2.24.51.51,0,0,1,.18-.69.5.5,0,0,1,.68.18,7,7,0,0,1,.88,2.37l.49.22a.5.5,0,0,1,.23.67A.49.49,0,0,1,310.17,235.76Z" style="fill:#263238"></path><path d="M320.4,247.55H289.67a.51.51,0,0,1-.5-.5.5.5,0,0,1,.5-.5H320a2.68,2.68,0,0,0-1.69-2.56,5.61,5.61,0,0,0-2.79-.73,2.34,2.34,0,0,1-2-.79,2.1,2.1,0,0,1-.17-1.78c.22-1.2.49-2.69-2.19-4.34a.51.51,0,0,1-.16-.69.5.5,0,0,1,.69-.16c3.26,2,2.89,4,2.65,5.37-.08.42-.15.82,0,1,.3.37.59.4,1.28.42a6.58,6.58,0,0,1,3.23.85c2.32,1.27,2.39,3.23,2.1,4.1A.51.51,0,0,1,320.4,247.55Z" style="fill:#263238"></path><path d="M110.49,271.41H53.85a.51.51,0,0,1-.48-.34.5.5,0,0,1,.19-.56s3.74-2.67,6.87-4.76c2.39-1.59,5.79-1,8.51-.47a18.16,18.16,0,0,0,2.85.39c1,0,1.55-.57,2.63-1.85A22.09,22.09,0,0,1,80,258.89c3.65-2.33,7.5-1.1,10.89,0,2.24.72,4.36,1.39,6.15,1,2-.46,2.53-2.28,3.15-4.59s1.49-5.5,4.6-7.48a7.32,7.32,0,0,1,7-.85,6.41,6.41,0,0,0,6.19-.74c1.69-1.07,2.33-3.3,3.06-5.88,1.66-5.8,3.74-13,18.85-12.66,8.3.2,14.59,2.48,18.72,6.76a.51.51,0,0,1,0,.71.5.5,0,0,1-.71,0c-3.94-4.08-10-6.25-18-6.45-14.35-.35-16.22,6.18-17.86,11.93-.76,2.67-1.48,5.18-3.49,6.46a7.31,7.31,0,0,1-7,.85,6.43,6.43,0,0,0-6.19.73c-2.79,1.78-3.52,4.5-4.17,6.9s-1.28,4.72-3.9,5.3c-2.06.46-4.3-.26-6.67-1-3.34-1.07-6.8-2.17-10-.1a20.92,20.92,0,0,0-5.31,4.73c-1.08,1.28-1.86,2.21-3.4,2.21a18.09,18.09,0,0,1-3-.41c-2.55-.47-5.72-1.05-7.77.32s-4.21,2.88-5.57,3.83h55.07a.5.5,0,0,1,.5.5A.5.5,0,0,1,110.49,271.41Z" style="fill:#263238"></path><path d="M164.16,244.73a.41.41,0,0,1-.21,0c-.51-.24-1-.49-1.62-.74a.49.49,0,0,1-.3-.42,13.78,13.78,0,0,0-1.88-5.35.5.5,0,0,1,.86-.5,15,15,0,0,1,2,5.47c.49.21.95.43,1.39.64a.5.5,0,0,1-.22.95Z" style="fill:#263238"></path><path d="M187.32,271.41H117.75a.5.5,0,0,1-.5-.5.5.5,0,0,1,.5-.5h69.18c.22-1.09.46-4.5-4.07-7a13.41,13.41,0,0,0-6.61-1.73c-1.57-.06-2.93-.11-4.09-1.56-.74-.92-.51-2.13-.26-3.53.5-2.74,1.19-6.49-5.25-10.47a.49.49,0,0,1-.16-.68.5.5,0,0,1,.69-.17c7,4.34,6.23,8.65,5.71,11.5-.22,1.21-.4,2.16.05,2.72.87,1.1,1.81,1.13,3.35,1.19a14.5,14.5,0,0,1,7.05,1.85c6.1,3.33,4.47,8.46,4.45,8.51A.47.47,0,0,1,187.32,271.41Z" style="fill:#263238"></path><path d="M456.71,172.84H395.79a.5.5,0,0,1-.5-.5.5.5,0,0,1,.5-.5h60.54c.29-1.31.83-6.05-5.39-9.44a17.58,17.58,0,0,0-8.74-2.28c-2.11-.08-3.77-.15-5.25-2-.92-1.14-.64-2.7-.31-4.49.81-4.43,1.93-10.5-12.65-16.81a.53.53,0,0,1-.3-.42c-.06-.78-1.71-18.93-29.27-19.61-10.33-.25-16.77,2.16-20.31,7.59a.5.5,0,0,1-.83-.55c3.74-5.74,10.5-8.29,21.17-8,26.52.65,29.86,17.71,30.2,20.23,15,6.59,13.79,13.32,13,17.79-.3,1.62-.54,2.9.1,3.69,1.19,1.49,2.51,1.54,4.51,1.62a18.68,18.68,0,0,1,9.18,2.4c7.88,4.31,5.79,10.91,5.77,11A.51.51,0,0,1,456.71,172.84Z" style="fill:#263238"></path><path d="M387.34,172.84H377.2a.5.5,0,0,1-.5-.5.5.5,0,0,1,.5-.5h10.14a.5.5,0,0,1,.5.5A.5.5,0,0,1,387.34,172.84Z" style="fill:#263238"></path><path d="M359.46,172.84H281.65a.51.51,0,0,1-.48-.34.5.5,0,0,1,.19-.56c.05,0,4.89-3.5,9-6.24,3.08-2.06,7.5-1.25,11.05-.59a23.74,23.74,0,0,0,3.75.5c1.49,0,2.23-.88,3.58-2.47A28.7,28.7,0,0,1,316,156.7c4.72-3,9.73-1.41,14.15,0,3,.94,5.76,1.84,8.15,1.3,2.76-.61,3.42-3,4.25-6.12.9-3.35,1.93-7.15,6-9.72s6.57-1.81,9.05-1.1,4.63,1.32,8.25-1c2-1.3,2.92-3.85,3.72-6.57a.5.5,0,0,1,1,.28c-.86,2.91-1.82,5.65-4.15,7.13-4,2.55-6.56,1.81-9.05,1.1s-4.63-1.32-8.24,1-4.69,6-5.55,9.14-1.64,6.1-5,6.84c-2.66.59-5.58-.34-8.67-1.33-4.42-1.41-9-2.88-13.32-.12a28.09,28.09,0,0,0-7,6.24c-1.38,1.65-2.38,2.83-4.34,2.83a24,24,0,0,1-3.93-.52c-3.38-.62-7.57-1.39-10.32.44s-6,4.1-7.7,5.31h76.24a.51.51,0,0,1,.5.5A.5.5,0,0,1,359.46,172.84Z" style="fill:#263238"></path></g><g id="freepik--Airplane--inject-27"><polygon points="108.34 133.04 105.69 133.54 105.51 134.26 106.65 134.92 106.35 136.29 105.52 136.11 105.68 135.35 103.89 134.96 103.72 135.72 102.28 135.4 102.57 134.07 103.94 133.87 104.11 133.08 101.76 131.47 108.34 133.04" style="fill:#263238"></polygon><path d="M106.73,136.89l-1.81-.4.17-.76-.82-.18-.16.76-2.43-.52.47-2.16,1.38-.2,0-.12-4.3-2.95,11.48,2.74-4.64.92,1.12.65ZM102.87,135l.47.1.15-.68-.51.08Zm.85-.61,1.67.36-.46-.26.36-1.4L106,133l-1.68-.41.4.28-.31,1.45Z" style="fill:#263238"></path><path d="M107.41,136.52a1,1,0,1,1-1.89-.41,1,1,0,0,1,1.89.41Z" style="fill:#263238"></path><path d="M106.47,137.79a1.65,1.65,0,0,1-.32,0A1.47,1.47,0,0,1,105,136a1.47,1.47,0,1,1,2.23,1.55A1.43,1.43,0,0,1,106.47,137.79Zm0-1.94a.48.48,0,0,0-.46.37.49.49,0,0,0,.07.35.48.48,0,0,0,.65.14.5.5,0,0,0,.2-.29h0a.46.46,0,0,0-.36-.56Z" style="fill:#263238"></path><path d="M106.94,136.42a.49.49,0,1,1-.37-.58A.5.5,0,0,1,106.94,136.42Z" style="fill:#fff"></path><path d="M106.46,137.3l-.21,0a1,1,0,0,1-.32-1.79,1,1,0,0,1,.74-.14,1,1,0,0,1,.75,1.18h0A1,1,0,0,1,106.46,137.3Zm0-1s0,0,0,0l.48.09Z" style="fill:#263238"></path><path d="M103.84,135.74a1,1,0,0,1-1.9-.41,1,1,0,0,1,1.16-.74A1,1,0,0,1,103.84,135.74Z" style="fill:#263238"></path><path d="M102.89,137a1.65,1.65,0,0,1-.31,0,1.46,1.46,0,0,1-.93-.64,1.48,1.48,0,0,1,.45-2,1.47,1.47,0,0,1,2.23,1.55h0a1.44,1.44,0,0,1-.64.92A1.41,1.41,0,0,1,102.89,137Zm0-1.94a.43.43,0,0,0-.25.07.47.47,0,0,0-.21.3.49.49,0,0,0,.07.35.4.4,0,0,0,.29.2.43.43,0,0,0,.35-.06.47.47,0,0,0,.21-.29.5.5,0,0,0-.07-.36.47.47,0,0,0-.29-.2Z" style="fill:#263238"></path><path d="M103.36,135.64a.47.47,0,0,1-.57.37.49.49,0,0,1-.37-.58.48.48,0,0,1,.57-.37A.49.49,0,0,1,103.36,135.64Z" style="fill:#fff"></path><path d="M102.89,136.52l-.21,0a1,1,0,0,1-.62-.43,1,1,0,1,1,1.79-.32A1,1,0,0,1,102.89,136.52Zm0-1s0,0,0,0Z" style="fill:#263238"></path><path d="M47,107.1a25.11,25.11,0,0,0-4.64,1.59c-1.66.88-4,2.07-4.88,3.23s-.48,2.72.71,4,7.93,3.54,8.49,3.55,64.73,14.12,64.73,14.12l43.37,3.25,10.74-1.05.75-2.44s2.72-.53,2.33-.84-8.3-1.81-8.3-1.81l-23.71-7.89L62.06,106.54S53.15,104.93,47,107.1Z" style="fill:#fff"></path><path d="M154.84,137.32l-43.45-3.24c-22-4.83-63.71-14-64.74-14.12-.65,0-7.51-2.31-8.81-3.71-1.48-1.59-1.76-3.37-.73-4.65s3.13-2.35,4.88-3.27l.16-.08a24.82,24.82,0,0,1,4.73-1.63c6.18-2.17,14.9-.64,15.27-.57l74.57,16.26,23.76,7.9c5.27,1,8.14,1.64,8.46,1.9l.25.2,0,.39c-.07.25-.15.59-2.47,1.08l-.77,2.46ZM55,106.47a24.22,24.22,0,0,0-7.82,1.1l0,0a23.89,23.89,0,0,0-4.52,1.54l-.16.08c-1.58.84-3.74,2-4.57,3s-.19,2.4.68,3.34c1,1.11,7.46,3.33,8.15,3.39s49.75,10.82,64.82,14.13l43.29,3.24,10.33-1,.74-2.4.3-.06c.34-.06.72-.15,1.06-.24-1.52-.35-4.4-.93-7-1.43l-23.77-7.9L62,107A43.9,43.9,0,0,0,55,106.47Z" style="fill:#263238"></path><polygon points="136.61 122.8 140.18 123.01 168.71 105.17 177.57 106.53 160.32 130.69 136.61 122.8" style="fill:#193282"></polygon><path d="M160.51,131.28l-27.67-9.21,7.21.44,28.55-17.87,9.85,1.52Zm-20.18-7.77,19.8,6.58,16.56-23.19-7.87-1.21Z" style="fill:#263238"></path><path d="M164.65,133.1l-19.25-3a2.92,2.92,0,0,0,1,1.34c.68.49,10.69,2.79,11.79,2.91s13.9.55,13.9.55Z" style="fill:#263238"></path><path d="M176.75,135.59l-4.72-.15c-.52,0-12.82-.42-13.94-.55-.92-.11-11.2-2.41-12-3a3.35,3.35,0,0,1-1.14-1.6l-.24-.76,20.08,3.08Zm-30.41-4.8a1.38,1.38,0,0,0,.31.28c.75.46,10.39,2.69,11.56,2.83.6.07,5,.24,9.11.38l-2.77-.69Z" style="fill:#263238"></path><path d="M164.92,133.17l-.27-.07-19.25-3a2.92,2.92,0,0,0,1,1.34l19.13,1.92Z" style="fill:#fff"></path><path d="M168.94,134.24,146.17,132l-.1-.08a3.35,3.35,0,0,1-1.14-1.6l-.24-.76,20.42,3.17ZM146.55,131l3.24.32-3.45-.53A1,1,0,0,0,146.55,131Z" style="fill:#263238"></path><polygon points="43.48 110.7 44.38 110.9 44.16 109.65 43.81 109.58 43.48 110.7" style="fill:#263238"></polygon><polygon points="42.44 109.28 41.81 109.14 40.08 109.96 41.36 110.24 42.44 109.28" style="fill:#263238"></polygon><polygon points="42.87 109.37 41.79 110.34 43.13 110.63 43.46 109.5 42.87 109.37" style="fill:#263238"></polygon><path d="M48.91,115.65l-.28,0a1.27,1.27,0,0,1-1-1.52l.51-2.35a1.28,1.28,0,1,1,2.5.54l-.51,2.35a1.24,1.24,0,0,1-.56.81A1.32,1.32,0,0,1,48.91,115.65Zm.51-4.41a.78.78,0,0,0-.76.61l-.52,2.35a.8.8,0,0,0,.6.94.79.79,0,0,0,.93-.6l.51-2.35a.77.77,0,0,0-.59-.93A.5.5,0,0,0,49.42,111.24Z" style="fill:#263238"></path><path d="M67.7,119.75a1.24,1.24,0,0,1-.27,0h0a1.26,1.26,0,0,1-.81-.56,1.25,1.25,0,0,1-.17-1l.51-2.35a1.26,1.26,0,0,1,.56-.81,1.32,1.32,0,0,1,1-.17,1.24,1.24,0,0,1,.8.56,1.21,1.21,0,0,1,.17,1L69,118.74a1.26,1.26,0,0,1-.56.81A1.32,1.32,0,0,1,67.7,119.75Zm-.17-.52a.77.77,0,0,0,.93-.59l.52-2.35a.8.8,0,0,0-.11-.59.74.74,0,0,0-.49-.34.76.76,0,0,0-.59.1.74.74,0,0,0-.34.49l-.51,2.35a.76.76,0,0,0,.1.59.74.74,0,0,0,.49.34Z" style="fill:#263238"></path><path d="M76.49,116.24a1.27,1.27,0,0,1-.28,0,1.29,1.29,0,0,1-1-1.53l.39-1.8a1.32,1.32,0,0,1,.56-.8,1.28,1.28,0,0,1,1-.18,1.32,1.32,0,0,1,.8.56,1.28,1.28,0,0,1,.18,1l-.39,1.8a1.32,1.32,0,0,1-.56.8A1.24,1.24,0,0,1,76.49,116.24Zm.39-3.87a.79.79,0,0,0-.77.62l-.39,1.8a.79.79,0,0,0,.6.93.79.79,0,0,0,.93-.6l.39-1.8a.78.78,0,0,0-.11-.59.79.79,0,0,0-.49-.34Z" style="fill:#263238"></path><path d="M112.62,124.12a1.24,1.24,0,0,1-.27,0h0a1.26,1.26,0,0,1-.81-.56,1.32,1.32,0,0,1-.17-1l.39-1.79a1.28,1.28,0,0,1,1.53-1,1.28,1.28,0,0,1,1,1.52l-.4,1.8a1.27,1.27,0,0,1-1.25,1Zm.39-3.86a.77.77,0,0,0-.76.61l-.39,1.8a.77.77,0,0,0,.6.93h0a.79.79,0,0,0,.93-.6l.39-1.79a.79.79,0,0,0-.6-.93A.5.5,0,0,0,113,120.26Z" style="fill:#263238"></path><path d="M129,127.7a1.27,1.27,0,0,1-.28,0h0a1.29,1.29,0,0,1-.81-.56,1.32,1.32,0,0,1-.17-1l.39-1.79a1.28,1.28,0,0,1,2.51.54l-.4,1.8a1.25,1.25,0,0,1-1.24,1Zm.38-3.86a.79.79,0,0,0-.76.61l-.39,1.8a.73.73,0,0,0,.11.59.72.72,0,0,0,.49.34h0a.78.78,0,0,0,.59-.11.79.79,0,0,0,.34-.49l.39-1.79a.79.79,0,0,0-.6-.93A.47.47,0,0,0,129.42,123.84Z" style="fill:#263238"></path><path d="M119.91,131.14l-.27,0a1.24,1.24,0,0,1-.81-.56,1.21,1.21,0,0,1-.17-1l.51-2.35a1.24,1.24,0,0,1,.56-.81,1.25,1.25,0,0,1,1-.17,1.24,1.24,0,0,1,.81.56,1.21,1.21,0,0,1,.17,1l-.51,2.35a1.26,1.26,0,0,1-.56.81A1.32,1.32,0,0,1,119.91,131.14Zm.51-4.41a.78.78,0,0,0-.76.61l-.52,2.35a.8.8,0,0,0,.11.59.74.74,0,0,0,.49.34.78.78,0,0,0,.93-.59l.52-2.35a.8.8,0,0,0-.11-.59.79.79,0,0,0-.49-.35Z" style="fill:#263238"></path><path d="M97.29,126.21a1.24,1.24,0,0,1-.27,0h0a1.28,1.28,0,0,1-1-1.53l.51-2.35a1.24,1.24,0,0,1,.56-.8,1.28,1.28,0,0,1,1-.18,1.29,1.29,0,0,1,1,1.53l-.52,2.35a1.24,1.24,0,0,1-.56.8A1.22,1.22,0,0,1,97.29,126.21Zm-.17-.52a.78.78,0,0,0,.93-.6l.52-2.35a.79.79,0,0,0-.6-.93.78.78,0,0,0-.59.11.75.75,0,0,0-.34.49l-.51,2.35a.77.77,0,0,0,.1.59.81.81,0,0,0,.49.34Z" style="fill:#263238"></path><path d="M70.14,121.86s4.27-.42,6.41-.41,30.31,4.58,31.06,4.74,26,6.24,26,6.24l3.15-.44-.85,3.91-2.52-2.81L124,131.23l-19.42.88-30.44-6.64S70.1,122.63,70.14,121.86Z" style="fill:#fff"></path><path d="M136.18,137l-3.06-3.42L124,131.73l-19.42.89-.07,0L74,125.94l-.08-.06c-2.85-2-4.27-3.35-4.24-4v-.43l.44,0c.17,0,4.34-.43,6.47-.41,2.39,0,31,4.71,31.16,4.76.74.16,24,5.75,25.91,6.21l3.76-.53Zm-2.3-4.07,1.74,1.94.49-2.26ZM74.37,125l30.27,6.6,19.41-.89,1.88.38-18.42-4.42c-.22,0-28.75-4.71-31-4.73-1.53,0-4.23.21-5.56.33A28.23,28.23,0,0,0,74.37,125Z" style="fill:#263238"></path><path d="M70.14,121.86c0,.77,4,3.61,4,3.61l30.44,6.64,19.42-.88-16.41-4.07Z" style="fill:#263238"></path><path d="M104.56,132.62l-.07,0L74,125.94l-.08-.06c-2.85-2-4.27-3.35-4.24-4l0-.55,38,5.37,19.8,4.91ZM74.37,125l30.27,6.6,15.92-.73-13.07-3.23-36.26-5.13A31.33,31.33,0,0,0,74.37,125Z" style="fill:#263238"></path><path d="M94.14,125.63l-1.53,7s7.56,1.86,12.53.69l.85-3.9S99.52,125.82,94.14,125.63Z" style="fill:#b0b0b0"></path><path d="M101.25,134.2a41.63,41.63,0,0,1-8.76-1.09L92,133l1.72-7.87h.42c5.44.19,11.81,3.7,12.08,3.85l.32.18-1,4.57-.3.07A18,18,0,0,1,101.25,134.2Zm-8-1.95c1.67.36,7.43,1.48,11.51.64l.7-3.21c-1.32-.7-6.45-3.23-10.88-3.53Z" style="fill:#263238"></path><path d="M104.41,133.46c.25,0,.49-.09.73-.15l.85-3.9-.63-.33Z" style="fill:#fff"></path><path d="M103.76,134.08l1.25-5.74.58.29.65.35.32.18-1,4.57-.3.07c-.25.06-.51.11-.77.15Z" style="fill:#263238"></path><path d="M78.74,122.27l-1.52,7s7.55,1.86,12.52.69l.85-3.9S84.12,122.46,78.74,122.27Z" style="fill:#b0b0b0"></path><path d="M85.85,130.84a41.36,41.36,0,0,1-8.75-1.09l-.48-.12,1.72-7.87h.42c5.44.19,11.81,3.7,12.08,3.85l.32.18-1,4.57-.31.07A18,18,0,0,1,85.85,130.84Zm-8-2c1.68.36,7.43,1.48,11.51.64l.71-3.21c-1.33-.7-6.46-3.23-10.89-3.53Z" style="fill:#263238"></path><path d="M89,130.1c.25,0,.49-.09.73-.15l.85-3.9-.63-.33Z" style="fill:#fff"></path><path d="M88.36,130.72,89.61,125l.58.3.65.34.32.18-1,4.57-.31.07c-.25.06-.51.11-.77.15Z" style="fill:#263238"></path><path d="M52.49,113.78a.31.31,0,0,1-.36.24.31.31,0,0,1,.13-.6A.3.3,0,0,1,52.49,113.78Z" style="fill:#263238"></path><path d="M53.51,114a.3.3,0,0,1-.36.23.31.31,0,0,1,.13-.6A.31.31,0,0,1,53.51,114Z" style="fill:#263238"></path><path d="M54.53,114.23a.3.3,0,0,1-.36.23.3.3,0,0,1-.23-.36.29.29,0,0,1,.36-.23A.29.29,0,0,1,54.53,114.23Z" style="fill:#263238"></path><path d="M55.55,114.45a.29.29,0,0,1-.36.23.3.3,0,0,1-.23-.36.3.3,0,1,1,.59.13Z" style="fill:#263238"></path><path d="M56.57,114.67a.3.3,0,0,1-.36.24.31.31,0,0,1,.13-.6A.3.3,0,0,1,56.57,114.67Z" style="fill:#263238"></path><path d="M57.59,114.9a.3.3,0,0,1-.36.23.3.3,0,0,1-.23-.36.31.31,0,0,1,.36-.24A.3.3,0,0,1,57.59,114.9Z" style="fill:#263238"></path><path d="M58.62,115.12a.31.31,0,0,1-.37.23A.3.3,0,0,1,58,115a.31.31,0,0,1,.6.13Z" style="fill:#263238"></path><path d="M59.64,115.34a.3.3,0,0,1-.37.23.3.3,0,0,1-.23-.36.3.3,0,0,1,.36-.23A.31.31,0,0,1,59.64,115.34Z" style="fill:#263238"></path><path d="M60.66,115.56a.32.32,0,0,1-.37.24.31.31,0,1,1,.37-.24Z" style="fill:#263238"></path><path d="M61.68,115.79a.31.31,0,1,1-.24-.37A.32.32,0,0,1,61.68,115.79Z" style="fill:#263238"></path><path d="M62.7,116a.31.31,0,0,1-.6-.13.31.31,0,0,1,.6.13Z" style="fill:#263238"></path><path d="M63.72,116.23a.31.31,0,1,1-.6-.13.3.3,0,0,1,.36-.23A.31.31,0,0,1,63.72,116.23Z" style="fill:#263238"></path><path d="M64.74,116.45a.32.32,0,0,1-.37.24.31.31,0,1,1,.37-.24Z" style="fill:#263238"></path><path d="M65.76,116.68a.3.3,0,0,1-.36.23.31.31,0,0,1-.24-.36.3.3,0,0,1,.36-.23A.3.3,0,0,1,65.76,116.68Z" style="fill:#263238"></path><path d="M74.64,118.62a.3.3,0,0,1-.59-.13.31.31,0,0,1,.36-.24A.3.3,0,0,1,74.64,118.62Z" style="fill:#263238"></path><path d="M76,118.9a.31.31,0,0,1-.36.24.31.31,0,1,1,.36-.24Z" style="fill:#263238"></path><path d="M77.28,119.19a.3.3,0,0,1-.36.23.3.3,0,0,1-.24-.36.31.31,0,0,1,.37-.23A.3.3,0,0,1,77.28,119.19Z" style="fill:#263238"></path><path d="M78.6,119.48a.31.31,0,0,1-.6-.13.3.3,0,0,1,.36-.23A.3.3,0,0,1,78.6,119.48Z" style="fill:#263238"></path><path d="M79.92,119.77a.32.32,0,0,1-.37.23.3.3,0,0,1-.23-.36.31.31,0,0,1,.36-.24A.32.32,0,0,1,79.92,119.77Z" style="fill:#263238"></path><path d="M81.23,120.05a.3.3,0,0,1-.36.24.31.31,0,0,1,.13-.6A.3.3,0,0,1,81.23,120.05Z" style="fill:#263238"></path><path d="M82.55,120.34a.29.29,0,0,1-.36.23.29.29,0,0,1-.23-.36.3.3,0,0,1,.36-.23A.3.3,0,0,1,82.55,120.34Z" style="fill:#263238"></path><path d="M83.87,120.63a.31.31,0,1,1-.23-.36A.3.3,0,0,1,83.87,120.63Z" style="fill:#263238"></path><path d="M85.19,120.92a.32.32,0,0,1-.37.23.31.31,0,0,1,.13-.6A.32.32,0,0,1,85.19,120.92Z" style="fill:#263238"></path><path d="M86.51,121.2a.32.32,0,0,1-.37.24.31.31,0,1,1,.37-.24Z" style="fill:#263238"></path><path d="M87.82,121.49a.29.29,0,0,1-.36.23.3.3,0,0,1-.23-.36.3.3,0,0,1,.59.13Z" style="fill:#263238"></path><path d="M89.14,121.78a.3.3,0,0,1-.36.23.29.29,0,0,1-.23-.36.29.29,0,0,1,.36-.23A.3.3,0,0,1,89.14,121.78Z" style="fill:#263238"></path><path d="M90.46,122.07a.31.31,0,0,1-.6-.13.31.31,0,1,1,.6.13Z" style="fill:#263238"></path><path d="M91.78,122.35a.31.31,0,1,1-.6-.13.31.31,0,0,1,.6.13Z" style="fill:#263238"></path><path d="M93.1,122.64a.3.3,0,0,1-.37.23.3.3,0,0,1-.23-.36.31.31,0,0,1,.6.13Z" style="fill:#263238"></path><path d="M94.41,122.93a.3.3,0,0,1-.59-.13.3.3,0,0,1,.59.13Z" style="fill:#263238"></path><path d="M95.73,123.22a.31.31,0,0,1-.36.23.3.3,0,0,1-.23-.36.3.3,0,0,1,.36-.24A.31.31,0,0,1,95.73,123.22Z" style="fill:#263238"></path><path d="M80.81,114.66a.31.31,0,0,1-.6-.13.31.31,0,0,1,.6.13Z" style="fill:#263238"></path><path d="M82.12,115a.3.3,0,0,1-.36.23.3.3,0,0,1-.23-.36.3.3,0,0,1,.36-.23A.29.29,0,0,1,82.12,115Z" style="fill:#263238"></path><path d="M83.44,115.24a.3.3,0,1,1-.23-.37A.31.31,0,0,1,83.44,115.24Z" style="fill:#263238"></path><path d="M84.76,115.52a.31.31,0,0,1-.36.24.3.3,0,0,1-.23-.37.3.3,0,0,1,.36-.23A.3.3,0,0,1,84.76,115.52Z" style="fill:#263238"></path><path d="M86.08,115.81a.3.3,0,0,1-.36.23.3.3,0,0,1-.24-.36.31.31,0,0,1,.6.13Z" style="fill:#263238"></path><path d="M87.4,116.1a.31.31,0,0,1-.6-.13.3.3,0,0,1,.36-.23A.3.3,0,0,1,87.4,116.1Z" style="fill:#263238"></path><path d="M88.71,116.39a.3.3,0,1,1-.59-.13.31.31,0,0,1,.36-.24A.3.3,0,0,1,88.71,116.39Z" style="fill:#263238"></path><path d="M90,116.67a.31.31,0,0,1-.36.24.31.31,0,0,1-.23-.37.3.3,0,0,1,.36-.23A.3.3,0,0,1,90,116.67Z" style="fill:#263238"></path><path d="M91.35,117a.3.3,0,0,1-.36.23.29.29,0,0,1-.23-.36.3.3,0,0,1,.36-.23A.3.3,0,0,1,91.35,117Z" style="fill:#263238"></path><path d="M92.67,117.25a.3.3,0,0,1-.36.23.31.31,0,0,1-.24-.36.31.31,0,0,1,.6.13Z" style="fill:#263238"></path><path d="M94,117.54a.32.32,0,0,1-.37.23.31.31,0,0,1,.13-.6A.32.32,0,0,1,94,117.54Z" style="fill:#263238"></path><path d="M95.3,117.82a.3.3,0,0,1-.36.24.31.31,0,0,1-.23-.37.3.3,0,1,1,.59.13Z" style="fill:#263238"></path><path d="M96.62,118.11a.3.3,0,0,1-.36.23A.3.3,0,0,1,96,118a.3.3,0,1,1,.59.13Z" style="fill:#263238"></path><path d="M97.94,118.4a.3.3,0,0,1-.36.23.3.3,0,0,1-.23-.36.29.29,0,0,1,.36-.23A.3.3,0,0,1,97.94,118.4Z" style="fill:#263238"></path><path d="M99.26,118.69a.31.31,0,0,1-.6-.13.31.31,0,1,1,.6.13Z" style="fill:#263238"></path><path d="M100.58,119a.31.31,0,1,1-.6-.13.3.3,0,0,1,.36-.23A.31.31,0,0,1,100.58,119Z" style="fill:#263238"></path><path d="M101.89,119.26a.29.29,0,0,1-.36.23.3.3,0,0,1-.23-.36.3.3,0,0,1,.36-.23A.29.29,0,0,1,101.89,119.26Z" style="fill:#263238"></path><path d="M103.34,119.58a.31.31,0,0,1-.6-.13.32.32,0,0,1,.37-.24A.31.31,0,0,1,103.34,119.58Z" style="fill:#263238"></path><path d="M104.79,119.89a.3.3,0,0,1-.37.23.3.3,0,0,1-.23-.36.31.31,0,0,1,.6.13Z" style="fill:#263238"></path><path d="M106.23,120.21a.3.3,0,0,1-.36.23.3.3,0,0,1-.23-.36.3.3,0,0,1,.36-.24A.31.31,0,0,1,106.23,120.21Z" style="fill:#263238"></path><path d="M107.68,120.52a.31.31,0,1,1-.24-.36A.31.31,0,0,1,107.68,120.52Z" style="fill:#263238"></path><path d="M109.12,120.84a.3.3,0,1,1-.23-.37A.31.31,0,0,1,109.12,120.84Z" style="fill:#263238"></path><path d="M110.57,121.15a.31.31,0,1,1-.6-.13.3.3,0,0,1,.36-.23A.31.31,0,0,1,110.57,121.15Z" style="fill:#263238"></path><path d="M101.09,124.38a.31.31,0,1,1-.6-.12.32.32,0,0,1,.37-.24A.31.31,0,0,1,101.09,124.38Z" style="fill:#263238"></path><path d="M102.24,124.64a.32.32,0,0,1-.37.23.3.3,0,0,1-.23-.36.31.31,0,0,1,.36-.24A.32.32,0,0,1,102.24,124.64Z" style="fill:#263238"></path><path d="M103.38,124.89a.3.3,0,1,1-.59-.13.31.31,0,0,1,.36-.24A.3.3,0,0,1,103.38,124.89Z" style="fill:#263238"></path><path d="M104.53,125.14a.31.31,0,0,1-.36.23.3.3,0,0,1-.23-.36.3.3,0,0,1,.36-.24A.31.31,0,0,1,104.53,125.14Z" style="fill:#263238"></path><path d="M105.68,125.39a.3.3,0,0,1-.36.23.31.31,0,0,1-.24-.36.32.32,0,0,1,.37-.24A.31.31,0,0,1,105.68,125.39Z" style="fill:#263238"></path><path d="M106.83,125.64a.3.3,0,0,1-.36.23.31.31,0,1,1,.12-.6A.32.32,0,0,1,106.83,125.64Z" style="fill:#263238"></path><path d="M108,125.89a.31.31,0,0,1-.37.23.3.3,0,0,1-.23-.36.31.31,0,0,1,.36-.24A.32.32,0,0,1,108,125.89Z" style="fill:#263238"></path><path d="M109.12,126.14a.3.3,0,0,1-.36.23.3.3,0,0,1-.23-.36.29.29,0,0,1,.36-.23A.29.29,0,0,1,109.12,126.14Z" style="fill:#263238"></path><path d="M110.27,126.39a.3.3,0,0,1-.36.23.29.29,0,0,1-.23-.36A.29.29,0,0,1,110,126,.3.3,0,0,1,110.27,126.39Z" style="fill:#263238"></path><path d="M111.42,126.64a.31.31,0,1,1-.23-.36A.3.3,0,0,1,111.42,126.64Z" style="fill:#263238"></path><path d="M112.57,126.89a.31.31,0,0,1-.6-.13.3.3,0,0,1,.36-.23A.3.3,0,0,1,112.57,126.89Z" style="fill:#263238"></path><path d="M113.72,127.14a.31.31,0,0,1-.37.23.3.3,0,0,1-.23-.36.31.31,0,0,1,.6.13Z" style="fill:#263238"></path><path d="M114.86,127.39a.3.3,0,1,1-.23-.36A.3.3,0,0,1,114.86,127.39Z" style="fill:#263238"></path><path d="M116,127.64a.3.3,0,0,1-.36.23.3.3,0,1,1,.13-.59A.3.3,0,0,1,116,127.64Z" style="fill:#263238"></path><path d="M124.3,129.45a.3.3,0,0,1-.36.23.29.29,0,0,1-.23-.36.29.29,0,0,1,.36-.23A.3.3,0,0,1,124.3,129.45Z" style="fill:#263238"></path><path d="M125.58,129.73a.31.31,0,1,1-.24-.37A.32.32,0,0,1,125.58,129.73Z" style="fill:#263238"></path><path d="M126.85,130a.3.3,0,1,1-.23-.37A.31.31,0,0,1,126.85,130Z" style="fill:#263238"></path><path d="M128.13,130.28a.31.31,0,0,1-.36.24.31.31,0,1,1,.13-.6A.31.31,0,0,1,128.13,130.28Z" style="fill:#263238"></path><path d="M129.4,130.56a.29.29,0,0,1-.36.23.3.3,0,0,1-.23-.36.3.3,0,0,1,.59.13Z" style="fill:#263238"></path><path d="M130.68,130.84a.31.31,0,0,1-.6-.13.31.31,0,0,1,.6.13Z" style="fill:#263238"></path><path d="M132,131.12a.3.3,0,0,1-.36.23.3.3,0,0,1,.13-.59A.29.29,0,0,1,132,131.12Z" style="fill:#263238"></path><path d="M133.23,131.4a.3.3,0,0,1-.36.23.31.31,0,0,1-.24-.36A.32.32,0,0,1,133,131,.31.31,0,0,1,133.23,131.4Z" style="fill:#263238"></path><path d="M117.62,122.69a.3.3,0,0,1-.36.24.31.31,0,0,1-.23-.37.3.3,0,0,1,.36-.23A.3.3,0,0,1,117.62,122.69Z" style="fill:#263238"></path><path d="M118.9,123a.3.3,0,0,1-.36.23.29.29,0,0,1-.23-.36.3.3,0,0,1,.36-.23A.3.3,0,0,1,118.9,123Z" style="fill:#263238"></path><path d="M120.18,123.25a.31.31,0,0,1-.37.23.3.3,0,1,1,.37-.23Z" style="fill:#263238"></path><path d="M121.45,123.53a.3.3,0,1,1-.23-.37A.31.31,0,0,1,121.45,123.53Z" style="fill:#263238"></path><path d="M122.73,123.81a.32.32,0,0,1-.37.23.31.31,0,0,1,.13-.6A.32.32,0,0,1,122.73,123.81Z" style="fill:#263238"></path><path d="M124,124.08a.31.31,0,0,1-.36.24.31.31,0,0,1,.13-.6A.3.3,0,0,1,124,124.08Z" style="fill:#263238"></path><path d="M125.28,124.36a.3.3,0,0,1-.36.23.3.3,0,0,1-.24-.36.31.31,0,0,1,.6.13Z" style="fill:#263238"></path><path d="M126.55,124.64a.3.3,0,1,1-.23-.36A.3.3,0,0,1,126.55,124.64Z" style="fill:#263238"></path><path d="M132.25,125.88a.31.31,0,0,1-.36.24.32.32,0,0,1-.24-.37.31.31,0,0,1,.37-.23A.3.3,0,0,1,132.25,125.88Z" style="fill:#263238"></path><path d="M133.53,126.16a.3.3,0,0,1-.37.23.3.3,0,0,1-.23-.36.31.31,0,0,1,.6.13Z" style="fill:#263238"></path><path d="M134.8,126.44a.3.3,0,0,1-.36.23.3.3,0,1,1,.36-.23Z" style="fill:#263238"></path><path d="M136.08,126.72a.31.31,0,1,1-.24-.37A.32.32,0,0,1,136.08,126.72Z" style="fill:#263238"></path><path d="M137.35,127a.3.3,0,0,1-.59-.13.3.3,0,0,1,.36-.24A.31.31,0,0,1,137.35,127Z" style="fill:#263238"></path><path d="M62.82,110.74a.3.3,0,0,1-.36.23.31.31,0,0,1,.13-.6A.31.31,0,0,1,62.82,110.74Z" style="fill:#263238"></path><path d="M64.1,111a.31.31,0,0,1-.6-.13.31.31,0,1,1,.6.13Z" style="fill:#263238"></path><path d="M65.37,111.29a.3.3,0,0,1-.36.24.31.31,0,0,1,.13-.6A.3.3,0,0,1,65.37,111.29Z" style="fill:#263238"></path><path d="M66.65,111.57a.3.3,0,0,1-.36.23.3.3,0,0,1-.24-.36.31.31,0,0,1,.6.13Z" style="fill:#263238"></path><path d="M67.92,111.85a.3.3,0,0,1-.36.23.3.3,0,1,1,.13-.59A.29.29,0,0,1,67.92,111.85Z" style="fill:#263238"></path><path d="M45.22,123a1,1,0,1,1-.74-1.16A1,1,0,0,1,45.22,123Z" style="fill:#263238"></path><path d="M44.27,124.22a1.15,1.15,0,0,1-.31,0,1.44,1.44,0,0,1-.92-.64,1.47,1.47,0,0,1,.44-2,1.47,1.47,0,0,1,2.23,1.55h0A1.47,1.47,0,0,1,44.27,124.22Zm0-1.94a.46.46,0,0,0-.25.08.47.47,0,0,0-.14.64.46.46,0,0,0,.85-.15.43.43,0,0,0-.06-.35.47.47,0,0,0-.3-.21Z" style="fill:#263238"></path><path d="M44.75,122.85a.49.49,0,0,1-.58.37.47.47,0,0,1-.37-.57.49.49,0,0,1,.58-.37A.48.48,0,0,1,44.75,122.85Z" style="fill:#fff"></path><path d="M44.27,123.73a.75.75,0,0,1-.21,0,1,1,0,0,1-.61-.43,1,1,0,0,1-.14-.74,1,1,0,0,1,.43-.62,1,1,0,0,1,.74-.13,1,1,0,0,1,.62.43,1,1,0,0,1,.13.74A1,1,0,0,1,44.27,123.73Zm0-1a0,0,0,0,0,0,0Z" style="fill:#263238"></path><polygon points="43.49 118.5 43.31 119.35 45.31 119.78 44.02 121.65 44.49 121.75 45.2 120.75 45.84 120.89 45.03 122.03 45.31 122.54 47.27 119.61 46.22 119.38 43.49 118.5" style="fill:#263238"></polygon><path d="M45.27,123.5l-.67-1.21L43.18,122l1.29-1.87-1.76-.38.41-1.87,3.25,1,1.73.37Zm.28-3.19.56.13.34-.5-.55-.14Z" style="fill:#263238"></path><circle cx="159.93" cy="118.27" r="4.92" transform="translate(-16.79 26.96) rotate(-9.16)" style="fill:#fff"></circle><path d="M160,123.69a5.81,5.81,0,0,1-1.17-.12,5.38,5.38,0,0,1-3.41-2.37,5.45,5.45,0,0,1-.74-4.09,5.42,5.42,0,1,1,5.32,6.58Zm0-9.85a4.46,4.46,0,0,0-2.39.7,4.47,4.47,0,1,0,2.39-.7Z" style="fill:#263238"></path></g><g id="freepik--Tower--inject-27"><rect x="229.05" y="187.69" width="49.46" height="155.38" style="fill:#b0b0b0"></rect><path d="M279,343.56H228.55V187.19H279Zm-49.46-1H278V188.19H229.55Z" style="fill:#263238"></path><rect x="232.2" y="187.69" width="43.16" height="155.38" style="fill:#193282"></rect><path d="M275.86,343.56H231.7V187.19h44.16Zm-43.16-1h42.16V188.19H232.7Z" style="fill:#263238"></path><path d="M268.52,343.56H239.05V187.19h29.47Zm-28.47-1h27.47V188.19H240.05Z" style="fill:#263238"></path><path d="M259.39,343.56H248.17V187.19h11.22Zm-10.22-1h9.22V188.19h-9.22Z" style="fill:#263238"></path><rect x="232.62" y="196.44" width="42.34" height="1" style="fill:#263238"></rect><rect x="232.62" y="208.15" width="42.34" height="1" style="fill:#263238"></rect><rect x="232.62" y="219.87" width="42.34" height="1" style="fill:#263238"></rect><rect x="232.62" y="231.58" width="42.34" height="1" style="fill:#263238"></rect><rect x="232.62" y="243.29" width="42.34" height="1" style="fill:#263238"></rect><rect x="232.62" y="255.01" width="42.34" height="1" style="fill:#263238"></rect><rect x="232.62" y="266.72" width="42.34" height="1" style="fill:#263238"></rect><rect x="232.62" y="278.44" width="42.34" height="1" style="fill:#263238"></rect><rect x="232.62" y="290.15" width="42.34" height="1" style="fill:#263238"></rect><rect x="232.62" y="301.87" width="42.34" height="1" style="fill:#263238"></rect><rect x="232.62" y="313.58" width="42.34" height="1" style="fill:#263238"></rect><rect x="232.62" y="325.3" width="42.34" height="1" style="fill:#263238"></rect><rect x="229.05" y="187.69" width="49.46" height="5.35" style="fill:#263238"></rect><path d="M279,193.54H228.55v-6.35H279Zm-49.46-1H278v-4.35H229.55Z" style="fill:#263238"></path><path d="M267.05,71.47a15.27,15.27,0,1,0-26.55,0Z" style="fill:#fff"></path><path d="M267.05,72H240.5a.52.52,0,0,1-.44-.25,15.77,15.77,0,1,1,27.43,0A.52.52,0,0,1,267.05,72Zm-26.26-1h26a14.77,14.77,0,1,0-26,0Z" style="fill:#263238"></path><polygon points="267.46 70.94 240.09 70.94 234.22 80.7 273.33 80.7 267.46 70.94" style="fill:#b0b0b0"></polygon><path d="M274.21,81.2H233.34l6.46-10.76h27.95Zm-39.1-1h37.34l-5.27-8.76H240.37Z" style="fill:#263238"></path><polygon points="263.42 70.94 244.13 70.94 240 80.7 267.55 80.7 263.42 70.94" style="fill:#c9c9c9"></polygon><path d="M268.31,81.2H239.25l4.55-10.76h19.95Zm-27.56-1H266.8l-3.71-8.76H244.46Z" style="fill:#263238"></path><polygon points="257.47 70.94 250.08 70.94 248.5 80.7 259.05 80.7 257.47 70.94" style="fill:#fff"></polygon><path d="M259.05,81.2H248.5a.52.52,0,0,1-.5-.58l1.59-9.76a.5.5,0,0,1,.49-.42h7.39a.5.5,0,0,1,.49.42l1.59,9.76a.52.52,0,0,1-.5.58Zm-10-1h9.38L257,71.44h-6.53Z" style="fill:#263238"></path><polygon points="257.47 70.94 259.05 80.7 267.55 80.7 263.42 70.94 257.47 70.94" style="fill:#fff"></polygon><path d="M267.55,81.2h-8.5a.5.5,0,0,1-.49-.42L257,71a.46.46,0,0,1,.11-.4.49.49,0,0,1,.38-.18h5.95a.5.5,0,0,1,.46.31L268,80.5a.51.51,0,0,1,0,.48A.5.5,0,0,1,267.55,81.2Zm-8.07-1h7.32l-3.71-8.76h-5Z" style="fill:#263238"></path><polygon points="263.42 70.94 267.46 70.94 273.33 80.7 267.55 80.7 263.42 70.94" style="fill:#fff"></polygon><path d="M273.33,81.2h-5.78a.5.5,0,0,1-.46-.31L263,71.14a.49.49,0,0,1,0-.47.5.5,0,0,1,.42-.23h4a.5.5,0,0,1,.43.24l5.87,9.76a.52.52,0,0,1,0,.51A.52.52,0,0,1,273.33,81.2Zm-5.45-1h4.57l-5.27-8.76h-3Z" style="fill:#263238"></path><path d="M213.59,81.14a.5.5,0,0,1-.5-.5V57.11a.5.5,0,0,1,.5-.5.5.5,0,0,1,.5.5V80.64A.5.5,0,0,1,213.59,81.14Z" style="fill:#263238"></path><path d="M281.57,80.71a.5.5,0,0,1-.5-.5V41.86a.5.5,0,0,1,.5-.5.5.5,0,0,1,.5.5V80.21A.51.51,0,0,1,281.57,80.71Z" style="fill:#263238"></path><path d="M291.59,80.27a.5.5,0,0,1-.5-.5V64.08a.5.5,0,1,1,1,0V79.77A.5.5,0,0,1,291.59,80.27Z" style="fill:#263238"></path><path d="M244.53,80.71a.5.5,0,0,1-.5-.5v-20a.5.5,0,0,1,1,0v20A.5.5,0,0,1,244.53,80.71Z" style="fill:#263238"></path><path d="M225.79,80.71a.51.51,0,0,1-.5-.5V49.27a.5.5,0,0,1,.5-.5.5.5,0,0,1,.5.5V80.21A.5.5,0,0,1,225.79,80.71Z" style="fill:#263238"></path><polygon points="278.89 150.96 228.66 150.96 217.9 100.92 289.65 100.92 278.89 150.96" style="fill:#707070"></polygon><path d="M279.29,151.46h-51l-11-51h73Zm-50.22-1h49.41l10.55-49H218.52Z" style="fill:#263238"></path><polygon points="272.37 150.96 235.18 150.96 227.22 100.92 280.34 100.92 272.37 150.96" style="fill:#919191"></polygon><path d="M272.79,151.46h-38l-8.13-51h54.29Zm-37.18-1h36.33l7.81-49H227.8Z" style="fill:#263238"></path><polygon points="261.17 150.96 246.38 150.96 243.21 100.92 264.34 100.92 261.17 150.96" style="fill:#b0b0b0"></polygon><path d="M261.64,151.46H245.91l-3.24-51h22.21Zm-14.79-1H260.7l3.11-49H243.74Z" style="fill:#263238"></path><polygon points="289.63 100.87 217.92 100.87 192.31 80.78 315.24 80.78 289.63 100.87" style="fill:#707070"></polygon><path d="M289.8,101.37H217.75L190.87,80.28H316.68Zm-71.7-1h71.36l24.33-19.09h-120Z" style="fill:#263238"></path><polygon points="279.76 100.87 227.79 100.87 209.22 80.78 298.33 80.78 279.76 100.87" style="fill:#919191"></polygon><path d="M280,101.37H227.57L208.08,80.28h91.39Zm-52-1h51.53l17.64-19.09H210.37Z" style="fill:#263238"></path><polygon points="264.02 100.87 243.53 100.87 236.21 80.78 271.34 80.78 264.02 100.87" style="fill:#b0b0b0"></polygon><path d="M264.37,101.37H243.18L235.5,80.28h36.55Zm-20.49-1h19.79l7-19.09h-33.7Z" style="fill:#263238"></path><polygon points="298.33 80.78 279.76 100.87 289.63 100.87 315.24 80.78 298.33 80.78" style="fill:#dedede"></polygon><path d="M289.8,101.37H278.62l19.49-21.09h18.57Zm-8.89-1h8.55l24.33-19.09H298.54Z" style="fill:#263238"></path><polygon points="279.76 100.87 272.37 150.96 278.89 150.96 289.63 100.87 279.76 100.87" style="fill:#b0b0b0"></polygon><path d="M279.29,151.46h-7.5l.08-.58,7.46-50.51h10.92l-.13.61Zm-6.34-1h5.53L289,101.37H280.2Z" style="fill:#263238"></path><polygon points="271.34 80.78 264.02 100.87 280.34 100.92 298.33 80.78 271.34 80.78" style="fill:#c4c4c4"></polygon><path d="M280.56,101.42l-17.25,0L271,80.28h28.45Zm-15.82-1,15.37,0,17.1-19.13H271.69Z" style="fill:#263238"></path><polygon points="264.02 100.87 261.17 150.96 272.37 150.96 280.34 100.92 264.02 100.87" style="fill:#b0b0b0"></polygon><path d="M272.79,151.46H260.64l2.91-51.09,17.37,0Zm-11.09-1h10.24l7.81-49.05-15.25,0Z" style="fill:#263238"></path><polygon points="281.27 139.89 286.79 114.21 220.76 114.21 226.28 139.89 281.27 139.89" style="fill:#263238"></polygon><path d="M281.67,140.39H225.88l-5.74-26.68h67.27Zm-55-1h54.17l5.31-24.68H221.38Z" style="fill:#263238"></path><rect x="230.85" y="113.77" width="1" height="26.43" transform="translate(-16.55 36.48) rotate(-8.7)" style="fill:#a8adaf"></rect><rect x="244.41" y="113.77" width="1" height="26.55" transform="translate(-7.32 15.23) rotate(-3.51)" style="fill:#a8adaf"></rect><rect x="249.27" y="126.61" width="26.42" height="1" transform="translate(120.7 381.97) rotate(-86.75)" style="fill:#a8adaf"></rect><rect x="262.77" y="126.61" width="26.93" height="1" transform="translate(109.5 381.4) rotate(-81.46)" style="fill:#a8adaf"></rect><rect x="224.01" y="126.48" width="59.36" height="1" style="fill:#a8adaf"></rect><polygon points="294.06 187.88 305.63 150.63 201.92 150.63 213.5 187.88 294.06 187.88" style="fill:#707070"></polygon><path d="M294.42,188.38H213.13l-11.89-38.25H306.31Zm-80.56-1h79.83L305,151.13H202.6Z" style="fill:#263238"></path><polygon points="285.25 187.88 294.3 150.63 213.26 150.63 222.3 187.88 285.25 187.88" style="fill:#9e9e9e"></polygon><path d="M285.64,188.38H221.91l-9.29-38.25h82.31Zm-62.94-1h62.15l8.81-36.25H213.89Z" style="fill:#263238"></path><polygon points="272.04 187.88 277.29 150.63 230.26 150.63 235.51 187.88 272.04 187.88" style="fill:#b0b0b0"></polygon><path d="M272.47,188.38H235.08l-5.39-38.25h48.17Zm-36.52-1H271.6l5.11-36.25H230.84Z" style="fill:#263238"></path><polygon points="260.52 187.88 262.46 150.63 245.09 150.63 247.03 187.88 260.52 187.88" style="fill:#b0b0b0"></polygon><path d="M261,188.38H246.56l-2-38.25H263Zm-13.49-1h12.54l1.88-36.25H245.62Z" style="fill:#263238"></path><polygon points="294.3 150.63 285.25 187.88 294.06 187.88 305.63 150.63 294.3 150.63" style="fill:#dedede"></polygon><path d="M294.42,188.38h-9.81l9.29-38.25h12.41Zm-8.54-1h7.81L305,151.13H294.69Z" style="fill:#263238"></path><polygon points="277.29 150.63 272.04 187.88 285.25 187.88 294.3 150.63 277.29 150.63" style="fill:#c4c4c4"></polygon><path d="M285.64,188.38H271.46l5.39-38.25h18.08Zm-13-1h12.24l8.81-36.25H277.72Z" style="fill:#263238"></path><polygon points="296.68 179.43 300.03 168.65 207.52 168.65 210.87 179.43 296.68 179.43" style="fill:#193282"></polygon><path d="M297.05,179.93H210.5l-3.66-11.78h93.87Zm-85.81-1h85.07l3-9.78H208.2Z" style="fill:#263238"></path><path d="M220.28,179.88a.51.51,0,0,1-.49-.39l-2.54-11a.5.5,0,0,1,.38-.6.49.49,0,0,1,.6.37l2.54,11a.5.5,0,0,1-.38.6Z" style="fill:#263238"></path><path d="M234.25,179.67a.51.51,0,0,1-.5-.44l-1.27-10.58a.5.5,0,1,1,1-.12l1.27,10.58a.49.49,0,0,1-.43.55Z" style="fill:#263238"></path><path d="M246.52,180.09a.5.5,0,0,1-.5-.47l-.64-10.79a.5.5,0,0,1,.47-.53.5.5,0,0,1,.53.47l.64,10.79a.52.52,0,0,1-.47.53Z" style="fill:#263238"></path><path d="M261.12,180.3h0a.5.5,0,0,1-.47-.53l.63-10.79a.5.5,0,0,1,.53-.47.5.5,0,0,1,.47.53l-.63,10.79A.5.5,0,0,1,261.12,180.3Z" style="fill:#263238"></path><path d="M273.39,179.88h-.06a.5.5,0,0,1-.44-.55l1.27-10.79a.5.5,0,0,1,1,.11l-1.27,10.8A.51.51,0,0,1,273.39,179.88Z" style="fill:#263238"></path><path d="M287.35,179.88h-.1a.5.5,0,0,1-.38-.6l2.32-10.58a.5.5,0,0,1,.6-.38.5.5,0,0,1,.38.59l-2.33,10.58A.5.5,0,0,1,287.35,179.88Z" style="fill:#263238"></path><polygon points="222.38 188.22 228.9 267.15 228.66 232.08 224.46 188.19 222.38 188.22" style="fill:#b0b0b0"></polygon><path d="M228.4,267.2l-6.56-79.48,3.07,0L229.15,232l.25,35.12Zm-5.47-78.49,5.38,65.18-.15-21.81L224,188.69Z" style="fill:#263238"></path><polygon points="284.93 188.22 278.41 267.15 278.66 232.08 282.86 188.19 284.93 188.22" style="fill:#b0b0b0"></polygon><path d="M278.91,267.2l-1-.05.25-35.07,4.24-44.4,3.07,0Zm4.4-78.51-4.15,43.44L279,253.9l5.39-65.19Z" style="fill:#263238"></path><path d="M204.83,322.91C177.64,327,166,332.17,166,332.17v14.64l88.34,3.42,88.34-3.42V332.17S331,327,303.77,322.91A332.79,332.79,0,0,0,204.83,322.91Z" style="fill:#fff"></path><path d="M254.32,350.72l-88.38-3.41a.5.5,0,0,1-.48-.5V332.17a.49.49,0,0,1,.3-.46c.11,0,12.05-5.24,39-9.29h0a333.12,333.12,0,0,1,99.09,0c26.94,4.05,38.88,9.24,39,9.29a.5.5,0,0,1,.29.46v14.64a.5.5,0,0,1-.48.5Zm-87.86-4.39,87.86,3.39,87.82-3.39V332.5c-2-.81-14-5.42-38.44-9.09a331.85,331.85,0,0,0-98.8,0h0c-24.45,3.67-36.45,8.28-38.44,9.09Z" style="fill:#263238"></path><path d="M190.31,351.63l14.61.56V328.87c-5.62.9-10.47,1.84-14.61,2.75Z" style="fill:#263238"></path><path d="M205.42,352.71l-15.61-.6V331.22l.39-.09c4.56-1,9.49-1.93,14.64-2.75l.58-.09Zm-14.61-1.56,13.61.52V329.46c-4.78.77-9.35,1.63-13.61,2.56Z" style="fill:#263238"></path><path d="M298.51,328.1c-4.86-.69-9.73-1.28-14.61-1.74V353l14.61-.57Z" style="fill:#263238"></path><path d="M283.4,353.48V325.81l.55.05c4.75.45,9.67,1,14.63,1.75l.43.06v25.21Zm1-26.57v25.53l13.61-.53V328.53C293.4,327.88,288.83,327.34,284.4,326.91Z" style="fill:#263238"></path><path d="M317.22,331.39c-4.16-.9-9-1.81-14.6-2.69v23.54l14.6-.57Z" style="fill:#263238"></path><path d="M302.12,352.75V328.12l.57.09c5.16.81,10.08,1.71,14.64,2.69l.39.08v21.17Zm1-23.46v22.43l13.6-.53v-19.4C312.47,330.89,307.9,330,303.12,329.29Z" style="fill:#263238"></path><path d="M223.63,326.47c-4.87.48-9.75,1.07-14.6,1.78v24.1l14.6.57Z" style="fill:#263238"></path><path d="M224.13,353.44l-15.6-.61v-25l.43-.06c4.81-.71,9.74-1.31,14.63-1.79l.54-.05Zm-14.6-1.57,13.6.53V327c-4.54.45-9.12,1-13.6,1.66Z" style="fill:#263238"></path><path d="M265.18,353.68l14.61-.56V326q-7.31-.58-14.61-.85Z" style="fill:#263238"></path><path d="M264.68,354.2V324.63l.52,0c4.76.16,9.68.45,14.63.85l.46,0V353.6Zm1-28.53v27.49l13.61-.52V326.46C274.69,326.09,270.12,325.83,265.68,325.67Z" style="fill:#263238"></path><path d="M242.35,325.18q-7.31.29-14.6.91v27l14.6.56Z" style="fill:#263238"></path><path d="M242.85,354.16l-15.6-.6V325.63l.45,0c5-.42,9.92-.73,14.63-.91l.52,0Zm-14.6-1.56,13.6.52V325.7c-4.39.18-9,.46-13.6.85Z" style="fill:#263238"></path><path d="M321.33,332.32v19.19l16-.62V337.13S332.37,334.93,321.33,332.32Z" style="fill:#263238"></path><path d="M320.83,352V331.68l.62.15c11,2.59,16.06,4.82,16.11,4.84l.3.13v14.57Zm1-19.08v18l15-.58v-13A108.44,108.44,0,0,0,321.83,333Z" style="fill:#263238"></path><path d="M261.07,325q-7.31-.15-14.61,0V353.8l7.84.3,6.77-.26Z" style="fill:#263238"></path><path d="M254.32,354.6l-8.36-.32V324.57h.49c4.94-.12,9.86-.13,14.63,0h.49v29.78ZM247,353.32l7.36.28,6.25-.24V325.52c-4.44-.09-9-.08-13.61,0Z" style="fill:#263238"></path><path d="M186.2,332.57c-10.3,2.5-15,4.56-15,4.56v13.76l15,.58Z" style="fill:#263238"></path><path d="M186.7,352l-16-.62V336.8l.3-.13c.19-.09,4.82-2.11,15-4.59l.62-.15Zm-15-1.58,14,.54V333.21a105.23,105.23,0,0,0-14,4.25Z" style="fill:#263238"></path><polygon points="28.33 342.19 55.32 466.46 151.44 466.46 137.56 342.19 28.33 342.19" style="fill:#fff"></polygon><path d="M151.44,467H55.32a.5.5,0,0,1-.49-.4l-27-124.26a.51.51,0,0,1,.49-.61H137.56a.5.5,0,0,1,.5.44L151.94,466.4a.5.5,0,0,1-.5.56Zm-95.72-1h95.16L137.11,342.69H29Z" style="fill:#263238"></path><polygon points="115.19 374.89 35.43 374.89 38.43 388.72 115.19 388.72 115.19 374.89" style="fill:#263238"></polygon><path d="M115.19,389.22H38.43a.51.51,0,0,1-.49-.4l-3-13.82a.51.51,0,0,1,.49-.61h79.76a.51.51,0,0,1,.5.5v13.83A.51.51,0,0,1,115.19,389.22Zm-76.36-1h75.86V375.39H36.05Z" style="fill:#263238"></path><polygon points="115.19 401.97 41.31 401.97 44.31 415.79 115.19 415.79 115.19 401.97" style="fill:#263238"></polygon><path d="M115.19,416.29H44.31a.5.5,0,0,1-.49-.39l-3-13.83a.49.49,0,0,1,.1-.42.48.48,0,0,1,.39-.18h73.88a.5.5,0,0,1,.5.5v13.82A.5.5,0,0,1,115.19,416.29Zm-70.48-1h70V402.47H41.93Z" style="fill:#263238"></path><polygon points="368.92 342.19 355.04 466.46 451.17 466.46 478.15 342.19 368.92 342.19" style="fill:#fff"></polygon><path d="M451.17,467H355a.48.48,0,0,1-.37-.17.5.5,0,0,1-.13-.39l13.88-124.27a.51.51,0,0,1,.5-.44H478.16a.47.47,0,0,1,.38.19.45.45,0,0,1,.1.42l-27,124.26A.5.5,0,0,1,451.17,467Zm-95.57-1h95.16l26.78-123.27H369.37Z" style="fill:#263238"></path><polygon points="388.39 374.89 471.24 374.89 468.24 388.72 388.39 388.72 388.39 374.89" style="fill:#263238"></polygon><path d="M468.24,389.22H388.39a.5.5,0,0,1-.5-.5V374.89a.5.5,0,0,1,.5-.5h82.85a.51.51,0,0,1,.49.61l-3,13.82A.5.5,0,0,1,468.24,389.22Zm-79.35-1h78.95l2.78-12.83H388.89Z" style="fill:#263238"></path><polygon points="388.39 401.97 465.36 401.97 462.36 415.79 388.39 415.79 388.39 401.97" style="fill:#263238"></polygon><path d="M462.36,416.29h-74a.5.5,0,0,1-.5-.5V402a.5.5,0,0,1,.5-.5h77a.48.48,0,0,1,.39.18.49.49,0,0,1,.1.42l-3,13.83A.49.49,0,0,1,462.36,416.29Zm-73.47-1H462l2.78-12.82H388.89Z" style="fill:#263238"></path><polygon points="355.04 466.46 151.44 466.46 137.56 342.19 368.92 342.19 355.04 466.46" style="fill:#193282"></polygon><path d="M355.49,467H151L137,341.69H369.48l-.06.56Zm-203.6-1h202.7l13.77-123.27H138.12Z" style="fill:#263238"></path><polygon points="365.87 369.45 368.92 342.19 137.56 342.19 140.61 369.45 365.87 369.45" style="fill:#263238"></polygon><path d="M366.32,370H140.16L137,341.69H369.48Zm-225.27-1H365.43l2.93-26.26H138.12Z" style="fill:#263238"></path><path d="M341.14,467H165.34a.51.51,0,0,1-.5-.45l-12-124.27a.51.51,0,0,1,.12-.39.52.52,0,0,1,.37-.16H353.13a.52.52,0,0,1,.37.16.56.56,0,0,1,.13.39l-12,124.27A.51.51,0,0,1,341.14,467Zm-175.35-1h174.9l11.89-123.27H153.9Z" style="fill:#263238"></path><path d="M325.82,467H180.66a.5.5,0,0,1-.5-.46l-9.9-124.27a.5.5,0,0,1,.5-.54h165a.5.5,0,0,1,.5.54l-9.9,124.27A.5.5,0,0,1,325.82,467Zm-144.7-1H325.36l9.82-123.27H171.3Z" style="fill:#263238"></path><path d="M310.07,467H196.41a.51.51,0,0,1-.5-.47l-7.75-124.27a.51.51,0,0,1,.5-.53H317.82a.48.48,0,0,1,.36.16.47.47,0,0,1,.14.37l-7.75,124.27A.51.51,0,0,1,310.07,467Zm-113.19-1H309.6l7.69-123.27H189.2Z" style="fill:#263238"></path><path d="M295.19,467h-83.9a.51.51,0,0,1-.5-.48l-5.72-124.27a.57.57,0,0,1,.14-.37.55.55,0,0,1,.36-.15h95.34a.51.51,0,0,1,.36.15.48.48,0,0,1,.14.37l-5.72,124.27A.5.5,0,0,1,295.19,467Zm-83.42-1h82.94l5.68-123.27H206.1Z" style="fill:#263238"></path><path d="M280.75,467h-55a.51.51,0,0,1-.5-.49L221.48,342.2a.51.51,0,0,1,.15-.36.47.47,0,0,1,.35-.15H284.5a.51.51,0,0,1,.36.15.54.54,0,0,1,.14.36l-3.75,124.27A.51.51,0,0,1,280.75,467Zm-54.53-1h54L284,342.69H222.5Z" style="fill:#263238"></path><path d="M265.87,467H240.61a.51.51,0,0,1-.5-.5L238.39,342.2a.48.48,0,0,1,.15-.36.47.47,0,0,1,.35-.15h28.7a.5.5,0,0,1,.5.51l-1.72,124.26A.51.51,0,0,1,265.87,467Zm-24.76-1h24.26l1.71-123.27H239.4Z" style="fill:#263238"></path><polygon points="366.38 364.9 368.92 342.19 137.56 342.19 140.1 364.9 366.38 364.9" style="fill:#fff"></polygon><path d="M366.38,365.4H140.1a.51.51,0,0,1-.5-.45l-2.54-22.7a.49.49,0,0,1,.13-.39.48.48,0,0,1,.37-.17H368.92a.48.48,0,0,1,.37.17.49.49,0,0,1,.13.39L366.88,365A.51.51,0,0,1,366.38,365.4Zm-225.83-1H365.94l2.42-21.71H138.12Z" style="fill:#263238"></path><path d="M365.06,378H141.88a.51.51,0,0,1-.5-.5.5.5,0,0,1,.5-.5H365.06a.5.5,0,0,1,.5.5A.5.5,0,0,1,365.06,378Z" style="fill:#263238"></path><path d="M363.45,392.6H143.06a.5.5,0,0,1-.5-.5.5.5,0,0,1,.5-.5H363.45a.5.5,0,0,1,.5.5A.5.5,0,0,1,363.45,392.6Z" style="fill:#263238"></path><path d="M361.6,407.23H144.71a.5.5,0,0,1-.5-.5.5.5,0,0,1,.5-.5H361.6a.5.5,0,0,1,.5.5A.5.5,0,0,1,361.6,407.23Z" style="fill:#263238"></path><path d="M360,421.85H146.35a.5.5,0,0,1,0-1H360a.5.5,0,0,1,0,1Z" style="fill:#263238"></path><path d="M358.51,436.47H148a.5.5,0,0,1-.5-.5.51.51,0,0,1,.5-.5H358.51a.5.5,0,0,1,.5.5A.5.5,0,0,1,358.51,436.47Z" style="fill:#263238"></path><path d="M356.86,451.1H149.44a.5.5,0,1,1,0-1H356.86a.5.5,0,0,1,0,1Z" style="fill:#263238"></path><polygon points="299.67 431.17 201.91 431.17 196.47 421.97 305.1 421.97 299.67 431.17" style="fill:#fff"></polygon><path d="M299.67,431.67H201.91a.5.5,0,0,1-.43-.24L196,422.22a.5.5,0,0,1,0-.5.52.52,0,0,1,.44-.25H305.1a.48.48,0,0,1,.43.25.5.5,0,0,1,0,.5l-5.43,9.21A.51.51,0,0,1,299.67,431.67Zm-97.48-1h97.19l4.84-8.2H197.35Z" style="fill:#263238"></path><rect x="201.91" y="431.17" width="97.73" height="35.11" style="fill:#b0b0b0"></rect><path d="M300.13,466.79H201.41V430.67h98.72Zm-97.72-1h96.72V431.67H202.41Z" style="fill:#263238"></path><rect x="206.01" y="434.82" width="9.2" height="31.47" style="fill:#263238"></rect><path d="M215.71,466.79h-10.2V434.32h10.2Zm-9.2-1h8.2V435.32h-8.2Z" style="fill:#263238"></path><rect x="219.39" y="434.82" width="9.2" height="31.47" style="fill:#263238"></rect><path d="M229.09,466.79h-10.2V434.32h10.2Zm-9.2-1h8.2V435.32h-8.2Z" style="fill:#263238"></path><rect x="232.78" y="434.82" width="9.2" height="31.47" style="fill:#263238"></rect><path d="M242.48,466.79h-10.2V434.32h10.2Zm-9.2-1h8.2V435.32h-8.2Z" style="fill:#263238"></path><rect x="246.16" y="434.82" width="9.2" height="31.47" style="fill:#263238"></rect><path d="M255.86,466.79h-10.2V434.32h10.2Zm-9.2-1h8.2V435.32h-8.2Z" style="fill:#263238"></path><rect x="259.54" y="434.82" width="9.2" height="31.47" style="fill:#263238"></rect><path d="M269.25,466.79H259V434.32h10.21Zm-9.21-1h8.21V435.32H260Z" style="fill:#263238"></path><rect x="272.93" y="434.82" width="9.2" height="31.47" style="fill:#263238"></rect><path d="M282.63,466.79h-10.2V434.32h10.2Zm-9.2-1h8.2V435.32h-8.2Z" style="fill:#263238"></path><rect x="286.31" y="434.82" width="9.2" height="31.47" style="fill:#263238"></rect><path d="M296,466.79h-10.2V434.32H296Zm-9.2-1H295V435.32h-8.2Z" style="fill:#263238"></path><path d="M388.22,366.83h85.25v13.82H388.22Zm0,40.9h85.25V393.9H388.22Z" style="fill:#193282"></path><path d="M474,408.23H387.72V393.4H474Zm-85.25-1H473V394.4H388.72ZM474,381.15H387.72V366.33H474Zm-85.25-1H473V367.33H388.72Z" style="fill:#263238"></path><path d="M29.94,366.83h85.25v13.82H29.94Zm0,40.9h85.25V393.9H29.94Z" style="fill:#193282"></path><path d="M115.69,408.23H29.44V393.4h86.25Zm-85.25-1h84.25V394.4H30.44Zm85.25-26.08H29.44V366.33h86.25Zm-85.25-1h84.25V367.33H30.44Z" style="fill:#263238"></path></g><g id="freepik--Floor--inject-27"><rect x="16.5" y="465.96" width="477.72" height="1" style="fill:#263238"></rect></g></svg>
