<svg width="161" height="55" viewBox="0 0 161 55" fill="none" xmlns="http://www.w3.org/2000/svg">
<path d="M46.5 30.9663H0" stroke="#FF7C47" stroke-width="4"/>
<path d="M38 4H8" stroke="#FF7C47" stroke-width="4"/>
<path d="M3 24.2247C9.65443 23.0671 22.7636 17.6261 21.9651 5.12359" stroke="#FF7C47" stroke-width="4"/>
<path d="M41.9996 24.3625C35.352 23.1565 22.2744 17.6203 23.1449 5.12385" stroke="#FF7C47" stroke-width="4"/>
<path d="M23 32L23 50" stroke="#FF7C47" stroke-width="4"/>
<path d="M69.5859 15.1328H59.9648V12.0625H69.5859V15.1328ZM70.957 22H59.9648C59.543 22 59.082 21.9258 58.582 21.7773C58.082 21.6289 57.6172 21.3867 57.1875 21.0508C56.7656 20.707 56.4102 20.2656 56.1211 19.7266C55.8398 19.1797 55.6992 18.5117 55.6992 17.7227V6.73047C55.6992 6.51953 55.7383 6.32031 55.8164 6.13281C55.8945 5.94531 56 5.78125 56.1328 5.64062C56.2734 5.5 56.4375 5.39063 56.625 5.3125C56.8125 5.23437 57.0156 5.19531 57.2344 5.19531H70.957V8.24219H58.7461V17.7227C58.7461 18.1211 58.8516 18.4258 59.0625 18.6367C59.2734 18.8477 59.582 18.9531 59.9883 18.9531H70.957V22ZM88.5938 9.33203C88.25 10.4023 87.8477 11.457 87.3867 12.4961C86.9258 13.5352 86.3945 14.5273 85.793 15.4727C85.1992 16.4102 84.5312 17.2812 83.7891 18.0859C83.0547 18.8828 82.2383 19.5742 81.3398 20.1602C80.4492 20.7383 79.4766 21.1953 78.4219 21.5312C77.375 21.8594 76.2383 22.0234 75.0117 22.0234C74.8008 22.0234 74.6016 21.9844 74.4141 21.9062C74.2266 21.8281 74.0625 21.7227 73.9219 21.5898C73.7812 21.4492 73.6719 21.2891 73.5938 21.1094C73.5156 20.9219 73.4766 20.7227 73.4766 20.5117V9.33203H76.5234V18.8594C77.2656 18.8594 77.9766 18.6992 78.6562 18.3789C79.3438 18.0586 79.9922 17.6367 80.6016 17.1133C81.2109 16.582 81.7734 15.9805 82.2891 15.3086C82.8125 14.6367 83.2773 13.9492 83.6836 13.2461C84.0898 12.5352 84.4336 11.8398 84.7148 11.1602C85.0039 10.4805 85.2188 9.87109 85.3594 9.33203H88.5938ZM103.324 13.5273C103.324 13.9492 103.25 14.4062 103.102 14.8984C102.953 15.3828 102.711 15.8359 102.375 16.2578C102.047 16.6719 101.613 17.0195 101.074 17.3008C100.543 17.582 99.8945 17.7227 99.1289 17.7227H93.6328V14.8281H99.1289C99.543 14.8281 99.8633 14.7031 100.09 14.4531C100.316 14.1953 100.43 13.8789 100.43 13.5039C100.43 13.1055 100.301 12.793 100.043 12.5664C99.793 12.3398 99.4883 12.2266 99.1289 12.2266H93.6328C93.2188 12.2266 92.8984 12.3555 92.6719 12.6133C92.4453 12.8633 92.332 13.1758 92.332 13.5508V17.8047C92.332 18.2109 92.457 18.5273 92.707 18.7539C92.9648 18.9805 93.2812 19.0938 93.6562 19.0938H99.1289V22H93.6328C93.2109 22 92.7539 21.9258 92.2617 21.7773C91.7773 21.6289 91.3242 21.3906 90.9023 21.0625C90.4883 20.7266 90.1406 20.293 89.8594 19.7617C89.5781 19.2227 89.4375 18.5703 89.4375 17.8047V13.5273C89.4375 13.1055 89.5117 12.6523 89.6602 12.168C89.8086 11.6758 90.0469 11.2227 90.375 10.8086C90.7109 10.3867 91.1445 10.0352 91.6758 9.75391C92.2148 9.47266 92.8672 9.33203 93.6328 9.33203H99.1289C99.5508 9.33203 100.004 9.40625 100.488 9.55469C100.98 9.70312 101.434 9.94531 101.848 10.2812C102.27 10.6094 102.621 11.043 102.902 11.582C103.184 12.1133 103.324 12.7617 103.324 13.5273ZM116.461 12.3789H109.605C109.191 12.3789 108.879 12.4844 108.668 12.6953C108.457 12.8984 108.352 13.1992 108.352 13.5977V22H105.305V13.5977C105.305 13.0742 105.371 12.6055 105.504 12.1914C105.637 11.7773 105.812 11.4141 106.031 11.1016C106.258 10.7812 106.516 10.5117 106.805 10.293C107.094 10.0664 107.395 9.88281 107.707 9.74219C108.027 9.60156 108.348 9.5 108.668 9.4375C108.996 9.36719 109.301 9.33203 109.582 9.33203H116.461V12.3789ZM132.445 23.2188C132.445 23.7422 132.379 24.2109 132.246 24.625C132.113 25.0469 131.938 25.4141 131.719 25.7266C131.5 26.0469 131.246 26.3164 130.957 26.5352C130.668 26.7617 130.363 26.9453 130.043 27.0859C129.73 27.2266 129.414 27.3281 129.094 27.3906C128.773 27.4609 128.469 27.4961 128.18 27.4961H122.684V24.4492H128.18C128.586 24.4492 128.891 24.3438 129.094 24.1328C129.297 23.9219 129.398 23.6172 129.398 23.2188V9.33203H132.445V23.2188ZM128.18 22H122.684C122.246 22 121.777 21.9258 121.277 21.7773C120.785 21.6289 120.324 21.3867 119.895 21.0508C119.465 20.707 119.109 20.2656 118.828 19.7266C118.547 19.1797 118.406 18.5117 118.406 17.7227V9.33203H121.453V17.7227C121.453 18.1211 121.559 18.4258 121.77 18.6367C121.98 18.8477 122.293 18.9531 122.707 18.9531H128.18V22ZM71.918 44.0547C71.918 44.6562 71.8398 45.1992 71.6836 45.6836C71.5352 46.1602 71.3359 46.582 71.0859 46.9492C70.8359 47.3164 70.543 47.6289 70.207 47.8867C69.8711 48.1445 69.5234 48.3555 69.1641 48.5195C68.8047 48.6836 68.4375 48.8047 68.0625 48.8828C67.6953 48.9609 67.3477 49 67.0195 49H55.2656V45.9531H67.0195C67.6055 45.9531 68.0586 45.7812 68.3789 45.4375C68.707 45.0938 68.8711 44.6328 68.8711 44.0547C68.8711 43.7734 68.8281 43.5156 68.7422 43.2812C68.6562 43.0469 68.5312 42.8438 68.3672 42.6719C68.2109 42.5 68.0156 42.3672 67.7812 42.2734C67.5547 42.1797 67.3008 42.1328 67.0195 42.1328H60.0117C59.5195 42.1328 58.9883 42.0469 58.418 41.875C57.8477 41.6953 57.3164 41.4102 56.8242 41.0195C56.3398 40.6289 55.9336 40.1172 55.6055 39.4844C55.2852 38.8516 55.125 38.0781 55.125 37.1641C55.125 36.25 55.2852 35.4805 55.6055 34.8555C55.9336 34.2227 56.3398 33.7109 56.8242 33.3203C57.3164 32.9219 57.8477 32.6367 58.418 32.4648C58.9883 32.2852 59.5195 32.1953 60.0117 32.1953H70.3828V35.2422H60.0117C59.4336 35.2422 58.9805 35.418 58.6523 35.7695C58.332 36.1211 58.1719 36.5859 58.1719 37.1641C58.1719 37.75 58.332 38.2148 58.6523 38.5586C58.9805 38.8945 59.4336 39.0625 60.0117 39.0625H67.0195H67.043C67.3711 39.0703 67.7188 39.1172 68.0859 39.2031C68.4531 39.2812 68.8164 39.4062 69.1758 39.5781C69.543 39.75 69.8906 39.9688 70.2188 40.2344C70.5469 40.4922 70.8359 40.8047 71.0859 41.1719C71.3438 41.5391 71.5469 41.9609 71.6953 42.4375C71.8438 42.9141 71.918 43.4531 71.918 44.0547ZM87.9609 47.4648C87.9609 47.6836 87.9219 47.8867 87.8438 48.0742C87.7656 48.2617 87.6562 48.4258 87.5156 48.5664C87.3828 48.6992 87.2227 48.8047 87.0352 48.8828C86.8555 48.9609 86.6602 49 86.4492 49H79.5586C79.1836 49 78.7812 48.957 78.3516 48.8711C77.9297 48.7852 77.5117 48.6484 77.0977 48.4609C76.6836 48.2656 76.2812 48.0234 75.8906 47.7344C75.5078 47.4375 75.1719 47.082 74.8828 46.668C74.5938 46.2461 74.3594 45.7617 74.1797 45.2148C74.0078 44.668 73.9219 44.0508 73.9219 43.3633V36.332H76.9688V43.3633C76.9688 43.7617 77.0352 44.1211 77.168 44.4414C77.3086 44.7539 77.4961 45.0234 77.7305 45.25C77.9648 45.4766 78.2383 45.6523 78.5508 45.7773C78.8711 45.8945 79.2148 45.9531 79.582 45.9531H84.9141V36.332H87.9609V47.4648ZM104.859 49H101.812V41.9688C101.812 41.5703 101.742 41.2148 101.602 40.9023C101.469 40.582 101.285 40.3086 101.051 40.082C100.816 39.8555 100.539 39.6836 100.219 39.5664C99.9062 39.4414 99.5664 39.3789 99.1992 39.3789H93.8672V49H90.8203V37.8438C90.8203 37.6328 90.8594 37.4375 90.9375 37.2578C91.0156 37.0703 91.125 36.9102 91.2656 36.7773C91.4062 36.6367 91.5703 36.5273 91.7578 36.4492C91.9453 36.3711 92.1445 36.332 92.3555 36.332H99.2227C99.6055 36.332 100.008 36.375 100.43 36.4609C100.859 36.5469 101.281 36.6875 101.695 36.8828C102.117 37.0703 102.516 37.3125 102.891 37.6094C103.273 37.8984 103.609 38.2539 103.898 38.6758C104.195 39.0898 104.43 39.5703 104.602 40.1172C104.773 40.6641 104.859 41.2812 104.859 41.9688V49ZM121.43 44.7227C121.43 45.2461 121.363 45.7188 121.23 46.1406C121.098 46.5547 120.922 46.9219 120.703 47.2422C120.484 47.5547 120.23 47.8242 119.941 48.0508C119.652 48.2695 119.348 48.4492 119.027 48.5898C118.715 48.7305 118.395 48.8359 118.066 48.9062C117.746 48.9688 117.441 49 117.152 49H111.656C111.133 49 110.664 48.9336 110.25 48.8008C109.836 48.668 109.469 48.4922 109.148 48.2734C108.836 48.0469 108.566 47.7891 108.34 47.5C108.121 47.2109 107.941 46.9102 107.801 46.5977C107.66 46.2773 107.555 45.957 107.484 45.6367C107.422 45.3086 107.391 45.0039 107.391 44.7227V40.5977C107.391 39.8164 107.531 39.1562 107.812 38.6172C108.102 38.0703 108.457 37.6289 108.879 37.293C109.309 36.9492 109.773 36.7031 110.273 36.5547C110.773 36.4062 111.234 36.332 111.656 36.332H117.152V39.3789H111.68C111.273 39.3789 110.965 39.4844 110.754 39.6953C110.543 39.8984 110.438 40.1992 110.438 40.5977V44.6992C110.438 45.1133 110.539 45.4258 110.742 45.6367C110.953 45.8477 111.258 45.9531 111.656 45.9531H117.152C117.566 45.9531 117.875 45.8477 118.078 45.6367C118.281 45.4258 118.383 45.1211 118.383 44.7227V30.9766H121.43V44.7227ZM137.414 44.8047C137.414 45.2266 137.34 45.6836 137.191 46.1758C137.043 46.6602 136.801 47.1133 136.465 47.5352C136.137 47.9492 135.703 48.2969 135.164 48.5781C134.633 48.8594 133.984 49 133.219 49H127.723C127.301 49 126.844 48.9258 126.352 48.7773C125.867 48.6289 125.414 48.3906 124.992 48.0625C124.578 47.7266 124.23 47.293 123.949 46.7617C123.668 46.2227 123.527 45.5703 123.527 44.8047C123.527 44.3828 123.602 43.9258 123.75 43.4336C123.898 42.9414 124.137 42.4883 124.465 42.0742C124.801 41.6523 125.234 41.3008 125.766 41.0195C126.305 40.7383 126.957 40.5977 127.723 40.5977H133.219V43.5039H127.723C127.309 43.5039 126.988 43.6328 126.762 43.8906C126.535 44.1406 126.422 44.4531 126.422 44.8281C126.422 45.2266 126.551 45.5391 126.809 45.7656C127.074 45.9844 127.387 46.0938 127.746 46.0938H133.219C133.633 46.0938 133.953 45.9688 134.18 45.7188C134.406 45.4688 134.52 45.1562 134.52 44.7812V40.5273C134.52 40.1289 134.395 39.8125 134.145 39.5781C133.902 39.3438 133.594 39.2266 133.219 39.2266H126.527V36.332H133.219C133.641 36.332 134.094 36.4062 134.578 36.5547C135.07 36.7031 135.523 36.9453 135.938 37.2812C136.359 37.6094 136.711 38.043 136.992 38.582C137.273 39.1133 137.414 39.7617 137.414 40.5273V44.8047ZM153.984 50.2188C153.984 50.7422 153.918 51.2109 153.785 51.625C153.652 52.0469 153.477 52.4141 153.258 52.7266C153.039 53.0469 152.785 53.3164 152.496 53.5352C152.207 53.7617 151.902 53.9453 151.582 54.0859C151.27 54.2266 150.953 54.3281 150.633 54.3906C150.312 54.4609 150.008 54.4961 149.719 54.4961H144.223V51.4492H149.719C150.125 51.4492 150.43 51.3438 150.633 51.1328C150.836 50.9219 150.938 50.6172 150.938 50.2188V36.332H153.984V50.2188ZM149.719 49H144.223C143.785 49 143.316 48.9258 142.816 48.7773C142.324 48.6289 141.863 48.3867 141.434 48.0508C141.004 47.707 140.648 47.2656 140.367 46.7266C140.086 46.1797 139.945 45.5117 139.945 44.7227V36.332H142.992V44.7227C142.992 45.1211 143.098 45.4258 143.309 45.6367C143.52 45.8477 143.832 45.9531 144.246 45.9531H149.719V49ZM159.434 47.4648C159.434 47.6758 159.391 47.875 159.305 48.0625C159.227 48.2422 159.117 48.4023 158.977 48.543C158.844 48.6758 158.684 48.7812 158.496 48.8594C158.316 48.9375 158.125 48.9766 157.922 48.9766C157.711 48.9766 157.512 48.9375 157.324 48.8594C157.145 48.7812 156.984 48.6758 156.844 48.543C156.711 48.4023 156.605 48.2422 156.527 48.0625C156.449 47.875 156.41 47.6758 156.41 47.4648C156.41 47.2617 156.449 47.0703 156.527 46.8906C156.605 46.7031 156.711 46.543 156.844 46.4102C156.984 46.2695 157.145 46.1602 157.324 46.082C157.512 45.9961 157.711 45.9531 157.922 45.9531C158.125 45.9531 158.316 45.9961 158.496 46.082C158.684 46.1602 158.844 46.2695 158.977 46.4102C159.117 46.543 159.227 46.7031 159.305 46.8906C159.391 47.0703 159.434 47.2617 159.434 47.4648Z" fill="white"/>
</svg>
