<svg xmlns="http://www.w3.org/2000/svg" viewBox="0 0 500 500"><g id="freepik--Mountain--inject-13"><g id="freepik--mountain--inject-13"><path d="M316.14,276.43c-6.43,1-14.62-12.4-21.08-12.19-6.94.22-13.62,4.05-20.49,5.64-19.5,4.52-38.5-9.07-58.08-11.72-4.57-.62-9.34-.59-13.58,2.12s9.86,3.79,6.13,7.82a42.83,42.83,0,0,1-25,13.07c-9.82,1.65-19.71.68-29.54-.29-20.12-2-40.17-4.44-60.24-6.85l-.7-.08-8.7-1-4.41-.51L79,272.23l-2.92-.3c-.74-.08-1.47-.14-2.21-.2-2.49-.22-5-.38-7.48-.45l-1.21,0h-1.8c-1.29,0-2.59.1-3.88.2-.43,0-.86.06-1.29.11s-.87.07-1.3.12c-1.29.12-2.58.26-3.87.4l-.93.1-.83.09h-.1l-.91.09c-1.92.19-14.8,0-14.8,0,3.05-8.31,6.14-17.39,9.19-25.7.07-.18.14-.36.2-.54a12.19,12.19,0,0,1,2.93-5c1.66-1.48,4-2.06,5.57-3.61a12.16,12.16,0,0,0,2.54-4.74c.71-2,1.41-3.92,2.13-5.87q.91-2.49,1.85-5c.1-.29.21-.57.32-.86,0,0,0,0,0,0,2.07-4.13,4.14-8.4,6.13-12.73,1.27-2.7,2.51-5.49,3.7-8.27l.13-.31.06-.13c1.18-2.77,2.31-5.51,3.38-8.14,1.49-3.24,2.65-6.62,3.89-9.92,2.86-5.52,5.57-11.52,10.19-15.77h0a24.78,24.78,0,0,0,4-5c2.82-4.84,6.36-15,10-15l22.76.44c4,.08,9.82,9.5,9.82,9.5a42.1,42.1,0,0,1,6.68-.35c3.95.07,9.28,6.53,15.65,6.66s11.75-11,18.4-9.91,74.3,67,89.49,77.67c7.52,5.27,15.52,18.76,23.37,23C297.92,258.19,307,268.25,316.14,276.43Z" style="fill:#455a64"></path><path d="M101.89,219l7.48,13.77-8.88,4.54L94.29,274l16-12.25,8.3.16-.36-31.67-4.68-7,4.95-6.82,4.47,7,3-42.23-8.18,4.95s-6.32-6.93-9.75-7c-1.93,0-5.92,1.78-10.63,4.62l0,0-.69,35.11Z" style="fill:#37474f"></path><path d="M109.38,232.81l-8.88,4.54s-5,29.57-6.2,36.68l-.7-.08-8.55-1H84.9l-4.41-.51L79,272.23l-2.92-.3-2.21-.2q-3.32-.28-6.63-.41l-.85,0-1.21,0h-1.8c-1.29,0-2.59.11-3.88.2l-1.29.11-1.3.12c-1.29.12-2.58.26-3.87.4l-.93.1-.63.06-.2,0h-.1l-.91.09c-1.92.19-14.8,0-14.8,0,3.05-8.31,6.14-17.39,9.19-25.7.07-.18.14-.36.2-.54a12.19,12.19,0,0,1,2.93-5c1.66-1.48,4-2.06,5.57-3.61a12.16,12.16,0,0,0,2.54-4.74c.71-2,1.41-3.92,2.13-5.87q.91-2.49,1.85-5c.1-.29.21-.57.32-.86,0,0,0,0,0,0,2.07-4.13,4.14-8.4,6.13-12.73,1.27-2.7,2.51-5.49,3.7-8.27l.13-.31.06-.13c1.18-2.77,2.31-5.51,3.38-8.14,1.49-3.24,2.65-6.62,3.89-9.92,2.86-5.51,5.57-11.52,10.19-15.77l9.72,17.94-.71,35.15,5.19.1Z" style="fill:#263238"></path><path d="M85.87,191.93c8.85-7.07,18.74-12.83,22.17-12.76s9.76,7,9.76,7l8.17-4.95s-7-15.67-4.18-16.26.08-3.82-2.74-8.14,4.08-6.3,13.2-3.93a34.21,34.21,0,0,0-3.14-3.73c-1.56-1.57-3.23-2.82-4.65-2.85l-22.76-.44c-3.64-.07-7.18,10.14-10,15a24.78,24.78,0,0,1-4,5h0c-4.62,4.25-7.33,10.25-10.19,15.77-1.24,3.3-2.4,6.68-3.89,9.92-1.07,2.63-2.2,5.37-3.38,8.14l-.06.13-.13.31c-1.19,2.78-2.43,5.57-3.7,8.27-2,4.33-4.06,8.6-6.13,12.73,0,0,0,0,0,0-.11.29-.22.57-.32.86Q59,224.49,58,227c-.72,1.95-1.42,3.91-2.13,5.87a12.16,12.16,0,0,1-2.54,4.74c-1.59,1.55-3.91,2.13-5.57,3.61a12.19,12.19,0,0,0-2.93,5,.61.61,0,0,0,0,.12,9.63,9.63,0,0,1,3.28-3.51,24.17,24.17,0,0,1,4.24-1.28c3.16-1,5.55-3.71,7.07-6.67a31.48,31.48,0,0,0,2-5.14c.44-1.42.83-2.85,1.26-4.26a101.92,101.92,0,0,1,9.33-21C75,199.27,81.3,195.56,85.87,191.93Z" style="fill:#193282"></path><path d="M85.87,191.93c8.85-7.07,18.74-12.83,22.17-12.76s9.76,7,9.76,7l8.17-4.95s-7-15.67-4.18-16.26.08-3.82-2.74-8.14,4.08-6.3,13.2-3.93c-.85-1.12-1.82-2.3-3.14-3.73-1.56-1.57-3.23-2.82-4.65-2.85l-22.76-.44c-3.64-.07-7.18,10.14-10,15a24.78,24.78,0,0,1-4,5h0c-4.62,4.25-7.33,10.25-10.19,15.77-1.24,3.3-2.4,6.68-3.89,9.92-1.07,2.63-2.2,5.37-3.38,8.14l-.06.13-.13.31c-1.19,2.78-2.43,5.57-3.7,8.27-2,4.33-4.06,8.6-6.13,12.73,0,0,0,0,0,0-.11.29-.22.57-.32.86Q59,224.49,58,227c-.72,1.95-1.42,3.91-2.13,5.87a12.16,12.16,0,0,1-2.54,4.74c-1.59,1.55-3.91,2.13-5.57,3.61a12.19,12.19,0,0,0-2.93,5,.61.61,0,0,0,0,.12,9.63,9.63,0,0,1,3.28-3.51,24.17,24.17,0,0,1,4.24-1.28c3.16-1,5.55-3.71,7.07-6.67a31.48,31.48,0,0,0,2-5.14c.44-1.42.83-2.85,1.26-4.26a101.92,101.92,0,0,1,9.33-21C75,199.27,81.3,195.56,85.87,191.93Z" style="opacity:0.15"></path><path d="M111.41,270.93c16.16-1.5,32.28-3.69,48.4-6.05,4.45-.65,10-.27,14-2.94,1.66-1.11,4.43-6.16,6.2-6.16l13.74,0-16.67-39.06-1.46-20-5.24-15.43-11.27-4.9,16.06,43.73-20.35,0-1.72,7.2-13.58-1.12-3.43,6.32-5.22-7.34,6.43-13.92-1.37-11.09,4.28-9.28,1,8.58,4.89,8.22,7.39.15s-5-15.51-10.14-22-11.62-4.05-11.62-4.05L127,168.05s6,2.67,7,.13.24-12.36.24-12.36a41.33,41.33,0,0,1,6.69-.36c3.94.07,9.28,6.53,15.65,6.66s11.74-11,18.4-9.91S300.81,263.82,320.3,278.86c-7.17,2.58-15.18,4-32,3-7.83-.45-14.37-4.79-22-5.4-7-.57-13.58,4.06-20.6,3.82-5.19-.17-9.86-2.95-14.66-4.93a49.59,49.59,0,0,0-26.9-3,3,3,0,0,0-2.38,1.25c-.74,1.48,1.1,2.92,2.67,3.43s3.58,1.3,3.53,2.95c-3.38,3.05-8.43,3.06-13,2.9l-46.51-1.64c-14.72-.53-29.45,0-43.72-3.76-2.33-.61-4.81-1-7.08-1.86-1.2-.44-6.89-2.13-8-2.06C95.61,273.16,105.44,271.48,111.41,270.93Z" style="fill:#193282"></path><path d="M111.41,270.93c16.16-1.5,32.28-3.69,48.4-6.05,4.45-.65,10-.27,14-2.94,1.66-1.11,4.43-6.16,6.2-6.16l13.74,0-16.67-39.06-1.46-20-5.24-15.43-11.27-4.9,16.06,43.73-20.35,0-1.72,7.2-13.58-1.12-3.43,6.32-5.22-7.34,6.43-13.92-1.37-11.09,4.28-9.28,1,8.58,4.89,8.22,7.39.15s-5-15.51-10.14-22-11.62-4.05-11.62-4.05L127,168.05s6,2.67,7,.13.24-12.36.24-12.36a41.33,41.33,0,0,1,6.69-.36c3.94.07,9.28,6.53,15.65,6.66s11.74-11,18.4-9.91S300.81,263.82,320.3,278.86c-7.17,2.58-15.18,4-32,3-7.83-.45-14.37-4.79-22-5.4-7-.57-13.58,4.06-20.6,3.82-5.19-.17-9.86-2.95-14.66-4.93a49.59,49.59,0,0,0-26.9-3,3,3,0,0,0-2.38,1.25c-.74,1.48,1.1,2.92,2.67,3.43s3.58,1.3,3.53,2.95c-3.38,3.05-8.43,3.06-13,2.9l-46.51-1.64c-14.72-.53-29.45,0-43.72-3.76-2.33-.61-4.81-1-7.08-1.86-1.2-.44-6.89-2.13-8-2.06C95.61,273.16,105.44,271.48,111.41,270.93Z" style="opacity:0.1"></path><path d="M195.85,187.49s38.54,47.85,39.53,47.69,8.9.8,8.9.8l35.94,26.26s-23.77-24.23-42-39.43Z" style="opacity:0.15"></path><polygon points="220.83 240.63 206.04 236.35 203.11 227.51 201.03 213.09 220.83 240.63" style="fill:#37474f"></polygon><polygon points="118.49 216.45 127.43 230.46 118.22 230.28 113.54 223.27 118.49 216.45" style="fill:#193282"></polygon><polygon points="172.71 263 173.33 231.35 179.98 255.78 172.71 263" style="fill:#37474f"></polygon><polyline points="160.1 262.75 160.67 233.8 163.45 262.81" style="fill:#37474f"></polyline><polygon points="154.79 220.09 158.42 220.16 152.3 243.76 153.07 227.29 154.79 220.09" style="fill:#37474f"></polygon><path d="M115.45,146.74l-1.79-.63-12-.24c-3.64-.07-7.18,10.14-10,15a24.78,24.78,0,0,1-4,5h0c-4.62,4.25-7.33,10.25-10.19,15.77-1.24,3.3-2.4,6.68-3.89,9.92-1.07,2.63-2.2,5.37-3.38,8.14l-.06.13-.13.31c-1.19,2.78-2.43,5.57-3.7,8.27-2,4.33-4.06,8.6-6.13,12.73,0,0,0,0,0,0-.11.29-.22.57-.32.86Q59,224.49,58,227c-.72,1.95-1.42,3.91-2.13,5.87a12.16,12.16,0,0,1-2.54,4.74c-1.59,1.55-3.91,2.13-5.57,3.61a12.19,12.19,0,0,0-2.93,5,.61.61,0,0,0,0,.12,9.63,9.63,0,0,1,3.28-3.51,24.17,24.17,0,0,1,4.24-1.28c3.16-1,5.55-3.71,7.07-6.67a31.48,31.48,0,0,0,2-5.14c.44-1.42.83-2.85,1.26-4.26a101.92,101.92,0,0,1,9.33-21c3-5.2,9.3-8.91,13.87-12.54a114.38,114.38,0,0,1,11-7.81c-4.3-.5-8.68,0-13.21.1l9.73-18.44L98,150.65l3.76.07-3.15,21.11,7.09-16.57L118.62,148C118.54,148.07,115.87,146.88,115.45,146.74Z" style="opacity:0.15"></path><polygon points="80.26 219.95 76.05 224.68 72.74 234.56 74.13 247.23 80.26 219.95" style="fill:#37474f"></polygon></g></g><g id="freepik--Trees--inject-13"><g id="freepik--Palm--inject-13"><path d="M423.21,129.68c-27,20.78-35.76,80-26.53,115.92.65,2.56,11.58,2.45,10.48,0-11.23-39-2.78-96.51,19-115.48Z" style="fill:#455a64"></path><path d="M424.94,128.94c1.34-1.34.66-1.21,2.57-2.75,2.9-2.32,8.15-3.23,12.75-2.6,8.1,1.1,15.89,4.91,19.71,12.37-3.38-2.61-7.43-3-11.54-2.62-1.19-1.6-2.37-3.2-3.63-4.75.12,1.67.27,3.32.46,5a15.56,15.56,0,0,1-5.63-.53c-1.28-2-2.68-3.9-4.15-5.77.58,1.73,1.16,3.46,1.67,5.2A46.45,46.45,0,0,1,424.94,128.94Z" style="fill:#193282"></path><g style="opacity:0.15"><path d="M424.94,128.94c1.34-1.34.66-1.21,2.57-2.75,2.9-2.32,8.15-3.23,12.75-2.6,8.1,1.1,15.89,4.91,19.71,12.37-3.38-2.61-7.43-3-11.54-2.62-1.19-1.6-2.37-3.2-3.63-4.75.12,1.67.27,3.32.46,5a15.56,15.56,0,0,1-5.63-.53c-1.28-2-2.68-3.9-4.15-5.77.58,1.73,1.16,3.46,1.67,5.2A46.45,46.45,0,0,1,424.94,128.94Z"></path></g><path d="M426.14,129.51s.65-2.53-3-6.54a26.2,26.2,0,0,0-18.1-8.12c-4.18,0-10.26,1.28-13.22,4.1a19.85,19.85,0,0,1,10.06,1.67,22.93,22.93,0,0,1,8-2.46s-4.29,2.47-5.2,3.7a14,14,0,0,0,7.1,3.19s3.2-3.52,6.74-3.45a8.72,8.72,0,0,0-4.64,4.25A63.5,63.5,0,0,0,426.14,129.51Z" style="fill:#193282"></path><path d="M426.14,129.51s.65-2.53-3-6.54a26.2,26.2,0,0,0-18.1-8.12c-4.18,0-10.26,1.28-13.22,4.1a19.85,19.85,0,0,1,10.06,1.67,22.93,22.93,0,0,1,8-2.46s-4.29,2.47-5.2,3.7a14,14,0,0,0,7.1,3.19s3.2-3.52,6.74-3.45a8.72,8.72,0,0,0-4.64,4.25A63.5,63.5,0,0,0,426.14,129.51Z" style="opacity:0.2"></path><path d="M426.14,129.51a24.11,24.11,0,0,0-14.52-2.65c-11,1.43-17.2,6.75-19.49,11.46a14.67,14.67,0,0,1,11.93-2.06l4-4.59-.41,5.06a14.4,14.4,0,0,0,5.95-.62l3.9-6.1-1.24,5.34S422.76,133.75,426.14,129.51Z" style="fill:#193282"></path><path d="M426.14,129.51a24.11,24.11,0,0,0-14.52-2.65c-11,1.43-17.2,6.75-19.49,11.46a14.67,14.67,0,0,1,11.93-2.06l4-4.59-.41,5.06a14.4,14.4,0,0,0,5.95-.62l3.9-6.1-1.24,5.34S422.76,133.75,426.14,129.51Z" style="opacity:0.05"></path><path d="M426.14,129.51s1.95-.65,5.89,1c6.7,2.78,12,10.33,13.4,14.23s2.12,10,.45,13.62a19.64,19.64,0,0,0-4.81-8.82,22.55,22.55,0,0,0-.27-8.21s-.92,4.79-1.77,6a13.78,13.78,0,0,1-5.27-5.58s2.25-4.11,1.05-7.38a8.64,8.64,0,0,1-2.46,5.69S429.25,135.11,426.14,129.51Z" style="fill:#193282"></path><path d="M426.14,129.51s1.95-.65,5.89,1c6.7,2.78,12,10.33,13.4,14.23s2.12,10,.45,13.62a19.64,19.64,0,0,0-4.81-8.82,22.55,22.55,0,0,0-.27-8.21s-.92,4.79-1.77,6a13.78,13.78,0,0,1-5.27-5.58s2.25-4.11,1.05-7.38a8.64,8.64,0,0,1-2.46,5.69S429.25,135.11,426.14,129.51Z" style="opacity:0.05"></path><path d="M418,160.2a16.65,16.65,0,0,0,2.39-7c.07-1,.07-2.12.06-3.24,3.67-2.52,4-5.14,4-5.14a6.65,6.65,0,0,1-4.1,2.83,29.56,29.56,0,0,1,.15-7,8.22,8.22,0,0,0,3.95-3,8,8,0,0,1-3.86,1.19c.89-4.54,3.55-8.25,5.55-9.28,0,0,2.48,1.65,2.94,10.2C429.56,148.53,425,157.12,418,160.2Z" style="fill:#193282"></path></g><g id="freepik--palm--inject-13"><path d="M441.25,178.19c-21.77,9.44-35.74,41.59-35.65,67.44,0,1.85,7.38,1.85,7.06,0-.92-28.27,12.55-57.54,30.49-66.63Z" style="fill:#455a64"></path><path d="M442.34,179.57a11.24,11.24,0,0,0-.28-2.6c-.63-2.51-3.16-5.23-6-6.81-5-2.8-10.89-4-16.15-1.42,3,0,5.39,1.45,7.51,3.4,1.33-.4,2.66-.78,4-1.12-.76.88-1.54,1.74-2.35,2.58a10.93,10.93,0,0,0,3.35,2.07c1.56-.57,3.14-1,4.73-1.46-1.05.72-2.09,1.44-3.11,2.19A32.16,32.16,0,0,0,442.34,179.57Z" style="fill:#193282"></path><g style="opacity:0.15"><path d="M442.34,179.57a11.24,11.24,0,0,0-.28-2.6c-.63-2.51-3.16-5.23-6-6.81-5-2.8-10.89-4-16.15-1.42,3,0,5.39,1.45,7.51,3.4,1.33-.4,2.66-.78,4-1.12-.76.88-1.54,1.74-2.35,2.58a10.93,10.93,0,0,0,3.35,2.07c1.56-.57,3.14-1,4.73-1.46-1.05.72-2.09,1.44-3.11,2.19A32.16,32.16,0,0,0,442.34,179.57Z"></path></g><path d="M441.43,179.38s.71-1.67,4.44-2.35a18.25,18.25,0,0,1,13.47,3.11c2.33,1.75,5.16,5,5.61,7.84a13.73,13.73,0,0,0-6.29-3.3,16,16,0,0,0-3.38-4.73,20.14,20.14,0,0,1,1.33,4.25,9.83,9.83,0,0,1-5.29-1.22s-.3-3.3-2.29-4.75a6.11,6.11,0,0,1,.79,4.31A43.83,43.83,0,0,1,441.43,179.38Z" style="fill:#193282"></path><path d="M441.43,179.38s.71-1.67,4.44-2.35a18.25,18.25,0,0,1,13.47,3.11c2.33,1.75,5.16,5,5.61,7.84a13.73,13.73,0,0,0-6.29-3.3,16,16,0,0,0-3.38-4.73,20.14,20.14,0,0,1,1.33,4.25,9.83,9.83,0,0,1-5.29-1.22s-.3-3.3-2.29-4.75a6.11,6.11,0,0,1,.79,4.31A43.83,43.83,0,0,1,441.43,179.38Z" style="opacity:0.2"></path><path d="M441.43,179.38a16.83,16.83,0,0,1,9.18,4.65c5.49,5.41,6.71,11,6,14.56a10.24,10.24,0,0,0-5.76-6.16l-.27-4.22-1.9,3a9.83,9.83,0,0,1-3-2.85l.4-5-1.56,3.48S441.53,183.16,441.43,179.38Z" style="fill:#193282"></path><path d="M441.43,179.38a16.83,16.83,0,0,1,9.18,4.65c5.49,5.41,6.71,11,6,14.56a10.24,10.24,0,0,0-5.76-6.16l-.27-4.22-1.9,3a9.83,9.83,0,0,1-3-2.85l.4-5-1.56,3.48S441.53,183.16,441.43,179.38Z" style="opacity:0.05"></path><path d="M441.43,179.38s-.81-1.18-3.69-1.92c-4.89-1.28-11,.67-13.42,2.26s-5.37,4.64-6,7.38a13.65,13.65,0,0,1,6.38-2.88,15.62,15.62,0,0,1,3.61-4.44,19.55,19.55,0,0,0-1.56,4.09A9.63,9.63,0,0,0,432,183s.48-3.23,2.53-4.54a6,6,0,0,0-1,4.19S437.35,181.19,441.43,179.38Z" style="fill:#193282"></path><path d="M441.43,179.38s-.81-1.18-3.69-1.92c-4.89-1.28-11,.67-13.42,2.26s-5.37,4.64-6,7.38a13.65,13.65,0,0,1,6.38-2.88,15.62,15.62,0,0,1,3.61-4.44,19.55,19.55,0,0,0-1.56,4.09A9.63,9.63,0,0,0,432,183s.48-3.23,2.53-4.54a6,6,0,0,0-1,4.19S437.35,181.19,441.43,179.38Z" style="opacity:0.05"></path><path d="M433,199.85a11.69,11.69,0,0,1,1.64-4.92c.39-.6.85-1.21,1.33-1.82-1-3-.06-4.54-.06-4.54a4.66,4.66,0,0,0,1.08,3.3,20.54,20.54,0,0,0,2.87-4,5.7,5.7,0,0,1-.93-3.32,5.5,5.5,0,0,0,1.64,2.28c1.42-2.89,1.5-6.07.82-7.49,0,0-2.07-.12-5.93,4.43S430.46,195.21,433,199.85Z" style="fill:#193282"></path></g></g><g id="freepik--Floor--inject-13"><g id="freepik--floor--inject-13"><ellipse id="freepik--floor--inject-13" cx="249.53" cy="339.84" rx="243.78" ry="140.74" style="fill:#ffbda7"></ellipse><ellipse id="freepik--floor--inject-13" cx="249.53" cy="339.84" rx="243.78" ry="140.74" style="fill:#fff;opacity:0.1"></ellipse><path d="M450.09,259.79a201,201,0,0,0-28.18-19.47c-95.2-55-249.55-55-344.76,0C-8.67,289.87-17.11,367.16,51.8,422.18c8.39-2.59,15.82-11,21.84-16.91a126.39,126.39,0,0,1,24.91-19.48c15.67-9.1,37.87-9.77,55.57-11.29,16.9-1.46,34-2.83,50.11-8.22s31.33-15.33,39.53-30.19c5.32-9.65,8.63-20.3,13.87-30s12.47-15.32,22.3-17.76c4.94-1.22,15.06-1.8,22.31-1.61,17.13.46,34.26,4.26,51.35,5.54,28.09,2.09,39.71-3,45.44-4.37,13.47-3.18,26.26-8.81,37.12-17.41C440,267.48,445.65,264,450.09,259.79Z" style="fill:#193282;opacity:0.30000000000000004"></path><path d="M450.09,259.79a201,201,0,0,0-28.18-19.47c-95.2-55-249.55-55-344.76,0C-8.67,289.87-17.11,367.16,51.8,422.18c8.39-2.59,15.82-11,21.84-16.91a126.39,126.39,0,0,1,24.91-19.48c15.67-9.1,37.87-9.77,55.57-11.29,16.9-1.46,34-2.83,50.11-8.22s31.33-15.33,39.53-30.19c5.32-9.65,8.63-20.3,13.87-30s12.47-15.32,22.3-17.76c4.94-1.22,15.06-1.8,22.31-1.61,17.13.46,34.26,4.26,51.35,5.54,28.09,2.09,39.71-3,45.44-4.37,13.47-3.18,26.26-8.81,37.12-17.41C440,267.48,445.65,264,450.09,259.79Z" style="fill:#fff;opacity:0.45"></path><path d="M421.91,240.32c-95.2-55-249.55-55-344.76,0C0,284.87-14.62,351.85,33.3,404.9c11-17.58,26.52-30.1,48.07-37.47,10.75-3.67,17.92-6.56,42.78-7.74,14-.66,28.32-1.32,42.4-1.07,17.61.31,40.9-5.83,52-20.65a.62.62,0,0,1,.09-.12c8.44-9.53,14.89-22.65,22.62-40.41,3.26-7.46,7.3-12.76,14.13-17.5a49.86,49.86,0,0,1,22.62-8.6c6.38-.74,12.82-.22,19.21.29l42.2,3.39c18,1.45,37.86.47,54.58-7,7.92-3.53,14.68-8.54,21.51-13.78,4-3.06,8.69-6.54,13-9.95C426.38,243,424.18,241.63,421.91,240.32Z" style="fill:#193282;opacity:0.5"></path><path d="M421.91,240.32c-95.2-55-249.55-55-344.76,0C0,284.87-14.62,351.85,33.3,404.9c11-17.58,26.52-30.1,48.07-37.47,10.75-3.67,17.92-6.56,42.78-7.74,14-.66,28.32-1.32,42.4-1.07,17.61.31,40.9-5.83,52-20.65a.62.62,0,0,1,.09-.12c8.44-9.53,14.89-22.65,22.62-40.41,3.26-7.46,7.3-12.76,14.13-17.5a49.86,49.86,0,0,1,22.62-8.6c6.38-.74,12.82-.22,19.21.29l42.2,3.39c18,1.45,37.86.47,54.58-7,7.92-3.53,14.68-8.54,21.51-13.78,4-3.06,8.69-6.54,13-9.95C426.38,243,424.18,241.63,421.91,240.32Z" style="fill:#fff;opacity:0.45"></path><path d="M77.15,240.32C18,274.49-4.41,321.86,10,366c21.06-10.25,42.58-21.31,65.48-23.85,16.82-1.87,33.83-1.14,50.74-2l1.69-.09a247.14,247.14,0,0,0,41.66-6c13-3,23-10.79,32.37-19.95,8.47-8.3,12-20.75,16.64-31.34,6.17-14.15,15.8-26.58,27.15-29.73,14.13-3.94,29-2,43.27.1,12.8,1.89,25.9,4.35,38.61,5.27,19,1.37,38.39-1.13,55.55-9.8,8.33-4.2,14.08-11.17,20.45-17.81C307.85,185.57,166.47,188.75,77.15,240.32Z" style="fill:#193282"></path><path d="M77.15,240.32C18,274.49-4.41,321.86,10,366c21.06-10.25,42.58-21.31,65.48-23.85,16.82-1.87,33.83-1.14,50.74-2l1.69-.09a247.14,247.14,0,0,0,41.66-6c13-3,23-10.79,32.37-19.95,8.47-8.3,12-20.75,16.64-31.34,6.17-14.15,15.8-26.58,27.15-29.73,14.13-3.94,29-2,43.27.1,12.8,1.89,25.9,4.35,38.61,5.27,19,1.37,38.39-1.13,55.55-9.8,8.33-4.2,14.08-11.17,20.45-17.81C307.85,185.57,166.47,188.75,77.15,240.32Z" style="fill:#fff;opacity:0.30000000000000004"></path><path d="M233.34,349.41C250.62,336,252,309,267.68,295.7c13.21-11.24,33.67-8.73,88-3.28,0,0-39.6-5.86-61.15-6.8-16.59-.72-25.21,1.62-35.4,13.74C248.18,312.36,248.33,332.9,233.34,349.41Z" style="fill:#fafafa"></path><path d="M444.54,265.74a69.84,69.84,0,0,1,6.6-5.05c-1.15-1-2.33-1.95-3.53-2.91-3,2.45-5.67,5-7.94,7.16-12.57,11.92-29.37,20.22-38.79,22.52C413.33,285.47,427.72,280.32,444.54,265.74Z" style="fill:#fafafa"></path><path d="M189.48,324.72s-13.65,11.87-38.8,16.11C126,345,80.18,339.33,61,344.54c0,0,13.48-6.57,48.56-6.57C152.11,338,161.68,340.13,189.48,324.72Z" style="fill:#fafafa"></path><path d="M57.19,419.64c9.19-3.53,17.7-15.48,29.71-24.62,11-8.36,27.28-17.56,65.14-20.35,0,0-25.62-.55-43.9,5.6s-24.67,12.62-30.88,19.66C66.44,412.2,60.41,417.94,57.19,419.64Z" style="fill:#fafafa"></path><path d="M332.65,274.48c4.07.32,21.23,3.35,36.44,1.14s27.47-6.1,40-16.4c0,0-14.87,9.2-31.19,12.62A156.36,156.36,0,0,1,332.65,274.48Z" style="fill:#fafafa"></path><path d="M193.7,354.41c5.85-2.25,16.39-6.17,25.72-18.75s13-21.45,18.88-34.84S252,282.54,252,282.54s-8.45,10.38-12.71,22.14-9.73,23.72-18.86,33.66S204.2,351.68,193.7,354.41Z" style="fill:#fafafa"></path><path d="M114.32,360.31s-12.4-.69-34.35,5.61a90.56,90.56,0,0,0-26.83,12.37c-6.14,4.27-18,16.59-21.23,23.32-.19.38-.36.74-.53,1.1,1,1.13,2,2.25,3,3.37a55.81,55.81,0,0,1,4.22-6.79,66.09,66.09,0,0,1,6.69-7.85c1.19-1.18,2.43-2.33,3.69-3.47,7.48-6.78,16.46-12,25.59-16.19A143.39,143.39,0,0,1,114.32,360.31Z" style="fill:#fafafa"></path><path d="M368.44,254.45c-9.55,6-24.3,7-45.51,5.09s-60.62-11.33-79.07-5.93c0,0,6.72-5,31-3.41,22.1,1.47,51.38,7.29,66.28,7.31C361.81,257.54,368.44,254.45,368.44,254.45Z" style="fill:#fafafa"></path><path d="M421.91,240.32c-2.27-1.31-4.59-2.58-6.93-3.83a32.33,32.33,0,0,0-3.68,2.39c-2.25,1.72-4.5,3.75-7.75,3.62-2.7-.1-5.5-1.65-8.11-3.17-2.05-1.18-4.29-2.55-5.36-4.58-1.61-3,0-5.7,1-8.23.14-.36.27-.73.39-1.1q-4.32-1.8-8.74-3.47a5.71,5.71,0,0,1-.71,1.5c-3,4.4-12,5.87-20.19,7.11s-17.09,3-19.37,7.61c-1.72,3.48.85,7.78-.11,11.46-1.22,4.55-7.19,6.19-11.75,6.81-6.3.85-13.38-1.06-20.11-2.1a51,51,0,0,0-14.66.06c-6.05.78-15.29,3.86-19.1.31-2.41-2.25,5-3,7.81-4.35,5-2.38,6.27-6.74,4.33-11s-6.7-8.22-12.41-11.62c-2.9-1.71-6.08-3.32-8.26-5.31-5.57-5-1.55-11.45,7.5-12,5.81-.35,12.31,1.33,18.27,1.3,8.74,0,14.54-3.64,20.18-6.72.44-.25.9-.48,1.36-.72-3.81-.62-7.65-1.18-11.49-1.69l-.68.29a30.51,30.51,0,0,1-6.72,2.42c-7.58,1.51-18.63-1.35-24.89,1.29-1.69.69-3.23,1.82-5.63,1.46a6,6,0,0,1-3.89-2.19,19,19,0,0,1-1.41-2.92,11,11,0,0,0-3.74-3.83q-6-.1-12,0c.56.33,1.05.64,1.4.89,5.25,3.81,7.72,9.61,8.86,14.95.39,1.74.73,3.57-.53,5-2.14,2.35-7.88,2.56-12.86,2.83-14.21.8-27.1,3.85-36.92,8.76-2.77,1.37-5.31,2.91-6.84,4.87-2.64,3.36-2.22,7.83-6.7,10.35-6.1,3.42-17.77,1.59-27.55-.39a22.21,22.21,0,0,1-6.1-1.87c-3.77-2.06-3.06-5.2-1-7.27a19,19,0,0,1,6.56-4.11c2.92-1.17,6.44-2,9.1-3.31,5-2.57,6.45-7.16,3.59-11.49a10.36,10.36,0,0,0-4.14-3.6c-2-1-4.44-1.47-6.54-2.38a12.41,12.41,0,0,1-4.87-3.54q-7.65,1.72-15.13,3.76c1,.15,2,.32,3.06.54,8.53,1.84,16.5,7,16,11.63-.86,9.29-17.39,6.2-18,16.09-.13,2.24.19,4.67-.52,6.67-1.06,2.94-4.12,4.34-5.36,7.15-1.48,3.35-.55,7.71.43,11.71,1.07,4.37,2.25,9,.78,12.64a8.37,8.37,0,0,1-5,4.74,45.61,45.61,0,0,1-18.94.83,32.09,32.09,0,0,1-6.13-1.48c-6.22-2.44-6.76-7.38-4.22-10.54s7.24-5.59,8.53-9.12c1.21-3.3-.8-7.21-4.33-10.64s-8.46-6.43-13.61-9.25c-2.07-1.14-4.24-2.29-5.47-3.69a5,5,0,0,1-1.19-4.42,10,10,0,0,1,1.29-3.34q-8,3.9-15.62,8.26C60,250.21,46,261.2,35,272.91A13.57,13.57,0,0,1,29.62,279a122.33,122.33,0,0,0-8.37,11.35,42.11,42.11,0,0,0,4.93.79,22.54,22.54,0,0,0,13.06-2.73c15.62-9,5.39-28.1,21.53-36.78a43.38,43.38,0,0,1,12.06-3.83c5.75-1.11,13.14-1.52,19,1.07,4.09,1.82,6.35,4.71,6.84,7.34s-.48,5.07-1.45,7.47l-4.11,10.07c-1.34,3.34-2.06,7.65,3.38,10.36,5.26,2.61,14.16,2.41,17.07,5.86,1.39,1.64.48,3.31-.77,4.66-7,7.57-22.68,10.69-34,16.17-3.94,1.93-7.47,4.31-8.14,7.46-.39,1.9.27,4,0,5.92s-1.94,3.83-5.3,4.11c-4.91.38-9.73-2.68-14.16-4.82-8.51-4.14-19.39-5.72-28.58-9.27a51.77,51.77,0,0,1-10.8-5.65c-.8,2-1.51,4.05-2.15,6.09.79.32,1.58.63,2.39.92,4.58,1.68,10.2,3.62,11,6.41s-4.29,4.24-7.77,5.82c-6.91,3.18-8.45,9.5-3.71,15.07,2.09,2.44,5.27,4.76,6.25,7.27s-.47,4.9-3,6.61c-2,1.39-4.5,1.87-6.59,3.07q.66,2.66,1.49,5.3c.68-.32,1.38-.63,2.07-.94,5.52-2.42,11.41-4.69,15.42-7.95,3.38-2.75,5.12-6.77,1.1-10.25-1.86-1.63-4.67-2.86-6.73-4.41-6.41-4.77-3.21-11.1,4.54-13.18s18.27-.78,27.68,1.53A121.78,121.78,0,0,1,74.5,337c6.07,2.73,12,6,19,7.29,8.69,1.59,16.61-.37,25.18,0,2.29.09,4.93.44,6.53,1.57a4.74,4.74,0,0,1,1.7,2.46q1.91,5.24,3.81,10.43c.76,2,1.48,4.14.2,5.81s-4.08,2.43-6.71,3.29c-14.94,4.89-26.44,12.44-33,21.63-.48.69-1,1.4-1.48,2.08a102.66,102.66,0,0,1,8.82-5.76,67.24,67.24,0,0,1,19.6-7.12,103.25,103.25,0,0,1,9.54-6.12c3.83-2.19,8.37-4.34,14.47-4.27a74.56,74.56,0,0,1,9.17,1c4.76.6,9.56.82,14.27,1.79a33.5,33.5,0,0,1,6,1.81c3.74-.42,7.47-.89,11.17-1.48a9.26,9.26,0,0,0-.75-.58c-2.83-1.93-7.26-2.81-11.25-3.15s-8-.28-12-1c-9.25-1.54-17-7-18.83-12.25s1.35-10.06,6.82-13.45,13.06-5.47,20.83-7.22c7.24-1.61,16-2.88,24.17-.27,8,2.56,13.06,8.2,21.4,10,6,1.34,13.3.71,17.36,3.72a3.94,3.94,0,0,1,1.82,3,55.46,55.46,0,0,0,11.38-14.2,198.77,198.77,0,0,0,8.37-18.3c-5.25.73-10.07,2.08-12.16,4.74-3.69,4.67,2,12.26-4.77,15.47-4.75,2.26-13.27.9-19.78-1.52s-12-5.76-18.68-8a71.66,71.66,0,0,0-17.06-3.3,8.18,8.18,0,0,0-2.13.11c-3.46,1.13-8.65.85-11.45-1.47s-1.6-5.64.26-7.64c2.67-2.88,8.1-4.5,14.08-5a94.5,94.5,0,0,1,18.95.72c9,1.06,18.7,2.68,26.13.9a22.89,22.89,0,0,0,8-3.71,25.08,25.08,0,0,0,8.81-10.31c1.66-3.86,2-8.11,4.92-11.57,3.53-4.19,11.29-7,20.44-6.36,6.79.47,14,3.17,18,6.65,3.36-.38,7.29-.61,11-.68a4.88,4.88,0,0,0-.45-.74c-2-2.63-8.77-5.34-12.21-6.7-5.33-.32-10.81-.67-16-2.09S257.9,273,257,270c-1.34-4.45,6-7,13-8.12a162.65,162.65,0,0,1,44.18-.63c8.26,1,16.94,2.51,24.38,1.54,11.34-1.46,16.28-8.39,16.14-15.3a10.37,10.37,0,0,1,.35-4.31c2.05-4.75,13.2-5.72,22.4-3.56,8.44,2,16,6.09,19.95,10.81s4.12,9.89.53,13.68c-2.35,2.48-6.16,4.31-9.78,6.17-3.88,2-7.78,5-4.61,8.27,1.87,1.91,5.93,3.44,6.3,5.42.22,1.12-.86,2-2.06,2.72-3.87,2.34-9.35,3.81-15.51,4.13-11.15.59-23.62-2.44-34.88-2a49.09,49.09,0,0,0-7.05.76c7.78,1.07,15.55,2.17,23.31,2.75,28.09,2.09,39.71-3,45.44-4.37,1-.24,2-.5,3-.76.92-2.11.27-4.63-2-6.86a31.7,31.7,0,0,1-3.14-3.08c-2.81-3.83,2.2-6.88,6.46-9.28,4.48-2.51,8.66-5.57,8.43-9.58-.07-1.56-.84-3.2-.63-4.72.29-2,2.16-3.54,4.06-5a24.54,24.54,0,0,1,11.64-5.32Q424.46,241.8,421.91,240.32ZM201.78,303.87c-5.23,1.51-11.94,1.47-18.38,1.42s-13.15-.07-18.32,1.51c-4.92,1.49-7.9,4.28-10.66,7-2,2-4,4.09-3.81,6.62.13,2.37,2.2,4.9,2,7.23s-2.61,4.32-5.54,5.77c-4.54,2.2-6.44,2.47-12.67,3.54,0,0-1.95.24-2.51.39-1.09.3-3.56.59-5.65.88-10,1.42-16.85,3-28,1.09-6.07-1-12.47-3.06-15.91-6.28a8.46,8.46,0,0,1-2.93-6.45c0-9,12-14.85,23.26-19.87l29.77-13.28c9.1-4.06,18.8-8.76,19-16,.19-5.61-5.47-11.87-3.57-17.12,2.18-6.1,14.18-8.73,26-7.78,8.58.71,17.93,3.23,23.64,7.57a20.61,20.61,0,0,1,4.74,5.05c1.36,2,2.31,4.21,1.27,6-.75,1.27-2.48,2.2-3.83,3.28-5,4-4.21,10.34,1.81,15.37,2.08,1.74,4.73,3.36,6.11,5.25C210.3,298.74,207,302.34,201.78,303.87Zm65.61-50.56c-5.34,2.44-9.89,4.69-16.15,6.45-4.85,2-6,6.39-2.57,10.13a15.23,15.23,0,0,1,2,2.31c1.65,3.12-3.75,4.88-7.61,6.55-5.83,2.53-9.06,6.74-8.76,11.38.2,2.92,1.72,6.08.39,8.7s-7.3,4.28-11.79,2.15c-5.24-2.48-2.81-6.8-6.27-10.05-1.5-1.41-4-2.53-5.09-4-1.44-2.05.49-3.85,2.15-5.41,3.58-3.29,6.27-7.15,5.51-11.47-1-5.84-8.1-11.57-15.15-16.75a12.45,12.45,0,0,1-3.23-2.95,3.58,3.58,0,0,1-.22-3c2.2-7.58,14.38-11.65,25.77-15.07,7.74-2.31,15.85-4.65,25.45-4.58s21.16,3.27,25.79,8.66a7.42,7.42,0,0,1,.33,10C275.64,249.18,271.64,251.36,267.39,253.31ZM72.55,394c-2.22-1.83-1.9-4.29-3.46-6.34-2-2.69-4.42-2.61-6.84-2.24-6.47,1-12.63,2.68-18.89,4.12C36.93,391,30.21,392.68,23,391.9a126.27,126.27,0,0,0,11.55,14.35,100.91,100.91,0,0,1,31.12-3.05,58.48,58.48,0,0,0,9.89.06l.2,0c2.85-2.7,5.8-5.31,8.86-7.77C81.21,396.64,75.37,396.25,72.55,394Z" style="fill:#fff;opacity:0.1"></path><path d="M7.24,348.2c-.35-.22-.73-.43-1.11-.65a84.46,84.46,0,0,0,2,12l.5-.38C12.49,355.9,11.89,351.12,7.24,348.2ZM428,267.61c-1.09-.52-2.55-.74-3.74-1.22a5,5,0,0,1-3.3-4.61c-.14-2.82,1.37-5.9,5.44-7.44s9.42-1.17,13.76-2.27q-3.5-2.52-7.24-5c-2.43.63-5.05.34-7.65,1.12a26.91,26.91,0,0,1-7,1.33c-2,.06-5.57-.19-7.15-1.71s-1.13-4.36-2.69-6a19.66,19.66,0,0,0-4.91-3.63c-1.91-1.07-4.07-2.09-5.07-3.52a1.75,1.75,0,0,1-.18-.29,4.2,4.2,0,0,1,.28-4.25,10.33,10.33,0,0,1,.86-1.29c-2-.9-4-1.79-6.06-2.65a10.77,10.77,0,0,0-1.39,1.29,5.66,5.66,0,0,0-.68,7.3c1.73,2.56,5.39,4.5,8.51,6.57s6,4.65,5.43,7.39a6.7,6.7,0,0,1-2,3.23,20.88,20.88,0,0,1-10.88,5.56c-4.68.93-10.31.47-13.86-1.52-1.22-.69-2.17-1.51-3.28-2.26-3.74-2.49-9.48-3.94-15.19-3.83s-11.27,1.79-14.69,4.43c-2.11,1.61-2.68,3.76-4.68,5.42s-5.14,1.1-8,1.06a4.39,4.39,0,0,1-1.82-.28c-1-.49-.54-1.45.17-2.11,5.33-5,18-7,20.61-12.69.89-1.94.44-4.05,1.83-5.88,1.65-2.17,5.5-3.45,8.9-4.8s6.85-3.18,6.92-5.56c.1-2.83-4.6-5-5.74-7.7-.82-2,.28-4,2.18-5.71q-3.21-1-6.45-1.95c-1,.55-2,1.11-2.94,1.65-1.18.68-2.42,1.38-2.82,2.31-1,2.28,3.26,4.05,5.36,6.07a4.08,4.08,0,0,1,.8,5.5,14.76,14.76,0,0,1-5.15,4.16,21.6,21.6,0,0,1-11.61,1.52c-3.4-.69-6.56-2-10.16-1.89-1.89,0-3.94.49-5.57-.06-2.47-.85-1.63-3-2.18-4.61s-3-3-4-4.7c-1.36-2.33.29-4.94,3.09-6.77s6.61-3,10.33-4.19a55.45,55.45,0,0,0,8.66-3.27c-2.78-.67-5.58-1.3-8.39-1.91-2.14.82-4.4,1.55-6.48,2.42a31.37,31.37,0,0,0-9,5.49c-2,1.84-3.58,3.94-3.51,6.13.06,2.72,2.59,5.22,3.33,7.89.79,2.82-.51,5.82-3.47,8.09a14.14,14.14,0,0,1-10.37,2.63c-5.72-1-7.91-4.89-11.28-7.73a3,3,0,0,1-.42-.69,11.42,11.42,0,0,1-1.78-7.86c.29-1.87.95-4-1.13-5.42a13.4,13.4,0,0,1-1.87-1.21c-1.31-1.39,1.13-3,3.73-3.57s5.57-.49,7.87-1.33c3.34-1.24,4.1-3.91,3.52-6.17-.29-1.11-.81-2.21-.49-3.32a2.6,2.6,0,0,1,.31-.68q-7.59-1-15.27-1.7a3,3,0,0,0,1.26,2.18c1.95,1.5,6.12,2,7,3.79.59,1.25-.73,2.54-2.35,3.42a21.1,21.1,0,0,1-8.82,2.29c-3.21.17-6.43-.27-9.66-.34a58.83,58.83,0,0,0-10.05.8c-4.2.66-8.64,1.75-10.7,4-2.9,3.12-.36,7.68-5,10-3.24,1.64-8.34,1.14-12-.11s-6.7-3.13-10.51-4.29a38.25,38.25,0,0,0-10.13-1.35,5.21,5.21,0,0,0-1.33.16c-2.29.86-5.47.9-6.9-.44s-.25-3.5,1.18-4.85c2-1.94,5.6-3.2,9.37-3.81a57.13,57.13,0,0,1,11.64-.35c5.43.29,11.22.89,16.06-.55a19,19,0,0,0,5.42-2.7,23.48,23.48,0,0,0,6.82-6.9c.51-.84.94-1.71,1.37-2.57-1.77-.05-3.55-.08-5.32-.11a5.44,5.44,0,0,1-.81,3.09c-1.15,1.73-5.08,3-7.58,1.87s-1.43-3.2-1.94-5q-4.14,0-8.26.16a6.71,6.71,0,0,1,1.55,1.73c1.16,2.21-1.35,4.63-4.78,5.82s-7.58,1.45-11.57,1.69-8.13.52-11.54,1.75a22,22,0,0,0-7.53,4.9c-1.48,1.34-3,2.76-3.23,4.35s.72,3,.32,4.5-2.18,2.84-4.19,3.88c-3.1,1.6-4.31,1.85-8.31,2.79,0,0-1.24.24-1.61.36-.71.23-2.28.53-3.61.8-6.39,1.33-10.82,2.61-17.5,1.9-3.63-.4-7.32-1.41-9-3.3a4.27,4.27,0,0,1-1-4c1.2-5.7,9.39-9.92,17-13.58q10.08-4.86,20.17-9.69l.57-.28c-4.37.61-8.73,1.27-13.06,2-5.37,5-15.36,7.64-23,11.55-2.69,1.39-5.19,3.05-6,5.07-.49,1.23-.35,2.52-.79,3.75a4.61,4.61,0,0,1-3.82,2.84c-3.09.45-5.68-1.28-8.14-2.45-4.72-2.25-11.24-2.79-16.46-4.64-.45-.16-.93-.35-1.4-.55q-2.59.94-5.16,1.92c2.58.85,5.68,1.84,5.77,3.53s-3.21,2.87-5.57,4c-4.7,2.32-6.49,6.38-4.29,9.71,1,1.45,2.64,2.78,2.92,4.33s-.94,3.12-2.71,4.32c-1.45,1-3.08,1.39-4.54,2.25a38.22,38.22,0,0,1-4.82,2.44,43.38,43.38,0,0,1-10.45,2.73c-6.58.92-13.25.39-19.81.74a25.71,25.71,0,0,1-13.61-2.85c-.21-.12-.4-.24-.59-.37a154.23,154.23,0,0,0-29.39,27.87,6.33,6.33,0,0,0,3.74,4.17,23.47,23.47,0,0,0,8.53,1.71,64.87,64.87,0,0,0,10.8-.3c3.77-.42,7.68-1.16,11.32-.46,4.32.84,6.89,3.62,6.78,6.24s-2.42,5.08-5.31,7.1a24.06,24.06,0,0,1-6.44,3.3,29.12,29.12,0,0,1-18.23-.35c-4.54-1.73-7.49-4.59-12-6.34a35.13,35.13,0,0,0-8.29-1.87c-.54.92-1.07,1.85-1.58,2.77,5.88.8,11.34,2.59,14.65,5.46,4.36,3.79,3.76,9.56-2.52,12.32a26.56,26.56,0,0,1-8.93,1.83,40.55,40.55,0,0,1-11.06-1q-1,3.38-1.73,6.76c4.11,2.34,11.37,3.16,13,6.38,1.45,2.87-2.82,5.71-7.47,7.05-2.35.68-4.89,1.15-7.36,1.69,0,1.32,0,2.64,0,4l.44-.16c1.9-.63,4.46-1.28,6.32-2,2.62-.95,6.3-3.25,9-4.15a29.71,29.71,0,0,1,5.9-1,23.12,23.12,0,0,1,6.9,1,10.65,10.65,0,0,1,4,1.77c1.94,1.67.7,3.9-.51,5.81s-2.28,4.17-.14,5.77c1.5,1.09,4.12,1.46,6.56,1.5s4.89-.16,7.27.1c5.53.57,9.6,3.72,10,7s-2.15,6.43-6,8.8-8.8,4-13.85,5.47c-4.7,1.33-10.29,2.51-15,1.21s-7-4.62-11.93-5.44a36.92,36.92,0,0,0-4.55-.32c.54,1.58,1.11,3.16,1.74,4.74.16.05.34.09.5.15,3.71,1.24,6.7,3.12,10.51,4.28a38.25,38.25,0,0,0,10.13,1.36,5.27,5.27,0,0,0,1.33-.17c2.29-.86,5.47-.9,6.89.44s.25,3.5-1.17,4.85c-2,1.94-5.6,3.2-9.38,3.81a55.59,55.59,0,0,1-11.19.38c.8,1.31,1.65,2.62,2.53,3.93,2-.25,4.05-.38,6.06-.51,4-.24,8.13-.52,11.54-1.74a22.16,22.16,0,0,0,7.53-4.91c1.48-1.34,3-2.76,3.23-4.35s-.72-3-.32-4.49,2.19-2.84,4.19-3.89c3.11-1.6,4.32-1.84,8.32-2.79,0,0,1.23-.23,1.6-.35.71-.24,2.28-.53,3.62-.8,6.38-1.33,10.82-2.61,17.49-1.9,3.63.39,7.33,1.4,9,3.3a4.24,4.24,0,0,1,1,3.95c-1.19,5.71-9.38,9.92-17,13.59l-20.18,9.69c-6.17,3-12.79,6.36-13.88,11-.78,3.23,1.35,6.6.35,9.73q1.88,1.68,3.82,3.32a15.13,15.13,0,0,0,.79-6.45c-.08-2.72-.2-5.62,1.19-8a7.6,7.6,0,0,1,3.73-3.21,29.14,29.14,0,0,1,11.83-1.35,16.78,16.78,0,0,1,3.6.67c3.53,1.28,3.22,4.39,1.22,6.5s-5.22,3.85-6.48,6.15a3.91,3.91,0,0,0-.28.63c3.45-3,6.63-6.41,9.49-9.22,1.86-1.83,3.76-3.62,5.71-5.35l-.06,0c-2.91-1.43-8.45-.92-9.79-3-.64-1,.14-2.08,1.09-3,5.32-5.09,15.45-7.75,23.15-11.7,2.7-1.39,5.2-3.05,6-5.07.49-1.22.36-2.51.8-3.75a4.6,4.6,0,0,1,3.82-2.83c3.09-.46,5.67,1.27,8.13,2.45,4.19,2,9.8,2.64,14.65,4.06,4.67-.67,9.38-1.14,14-1.54a6.7,6.7,0,0,1-.6-2.53c-.06-2.87,2-5.71,1.08-8.43s-4.48-4.41-4.32-7.28c.11-1.83,1.77-3.17,3.42-3.94,4-1.87,8.89-2,12.17-4.92a36.82,36.82,0,0,1,3.16-3.09,10.93,10.93,0,0,1,4.19-1.51,64.22,64.22,0,0,1,28.3.69c3.25.82,6.86,2.28,7.93,5.47a6.94,6.94,0,0,1-1,5.88,13.6,13.6,0,0,1-4.56,4.06c-6.29,3.74-14.4,5.1-18.72,11a19.74,19.74,0,0,0-1.23,2c2.33-.26,4.67-.54,7-.86a8.21,8.21,0,0,1,2.76-2.67,41.79,41.79,0,0,1,6.75-2.63,27.87,27.87,0,0,0,10.68-7.18c3-3.28,5.45-5.94,9.82-7.42a31.07,31.07,0,0,1,12.4-1.22A13.65,13.65,0,0,1,225.3,352a6.4,6.4,0,0,1,2.46,2.09,64,64,0,0,0,5-4.16,8.33,8.33,0,0,0-.73-.48c-7.67-4.41-17.66-.55-25.06-5.59a9.55,9.55,0,0,1-2.12-1.78c-1-1.27-.82-2.41-.22-3.8,1.54-3.55,5.51-6.56,9.47-9.41,3.18-2.29,6.47-4.62,8-7.42s.76-6.22-3.15-8.09a23.63,23.63,0,0,0-8.53-1.71,67.09,67.09,0,0,0-10.8.3c-3.77.42-7.68,1.16-11.31.46-4.32-.84-6.89-3.61-6.78-6.23s2.42-5.09,5.3-7.11a24.11,24.11,0,0,1,6.45-3.29,29.12,29.12,0,0,1,18.23.34c4.54,1.73,7.48,4.6,12,6.35,7.91,3,18.53,1.94,27.6,3.63a5.17,5.17,0,0,1,2.84,1.15c.76,1-.61,2-2.19,2.53s-3.47.63-5,1.16c-2.76,1-3.86,3.07-3.38,4.92s2.25,3.48,4.12,5c.81.66,1.67,1.3,2.57,1.93,2.4-5.65,4.72-11.34,7.64-16.72.25-.48.52-.94.79-1.39-.53-.29-1-.6-1.6-.87-4.7-2.29-11.63-1.66-17.78-1.81-7.88-.19-16-2.11-20.38-5.91s-3.77-9.56,2.51-12.32A26.61,26.61,0,0,1,230.1,282a38.89,38.89,0,0,1,15.11,2.15c2.82,1.05,5.32,2.44,8.5,3a22,22,0,0,0,14.48-2.67c3.71-2.23,5.86-5.14,7.94-8a5.56,5.56,0,0,1,4.4-2.59,4.37,4.37,0,0,1,3.92,2,11.12,11.12,0,0,1,.61,3.21c.47,2.25,2.67,4.38,5.89,5.69l.79.16a27.9,27.9,0,0,1,9-.38,8.81,8.81,0,0,1,5.09,2.32c1.52.08,3,.19,4.55.31a4.05,4.05,0,0,1-1.87-4.27c.32-1.54,1.52-3,2.69-4.4l7.73-9.32c1.86-2.24,4.3-4.74,8.53-5.16,4-.41,8.16,1.28,12.06.6a8.34,8.34,0,0,0,5.79-3.87c1-1.66,1.66-3.48,3.46-4.91,2.73-2.16,7.87-3,12.43-2.52a24.19,24.19,0,0,1,11.39,4.29c1.9,1.38,3.44,3,3.61,4.74.31,3.47-4.77,6.3-10,8s-11.18,2.88-15.17,5.47c-4.61,3-5.68,7.16-7.2,11a19.58,19.58,0,0,1-2.2,4.15c4,.49,7.95.93,11.93,1.23,3.27.24,6.3.38,9.14.45,3.48-.84,7.64-1.3,10.75-.14,3.49-.19,6.55-.51,9.25-.9a44,44,0,0,0-4.28-2.67,8.8,8.8,0,0,1-2.89-2.09,2.84,2.84,0,0,1-.16-2.75c1.05-2.78,4-5.16,7.16-7.33a59.57,59.57,0,0,1,16-7.77,35,35,0,0,1,15.09-1.49c5.05.8,9.31,3.72,8.42,6.69-1.75,5.87-11.44,4.7-13.22,10.83q3.45-1.17,6.81-2.59h0a16.83,16.83,0,0,1,4.59-2.89c2-.86,4.25-1.52,6.08-2.48,3.44-1.84,4.93-4.81,3.73-7.44A4.28,4.28,0,0,0,428,267.61ZM194.87,232.7c3.84-2.38,8.8-4,13.84-5.47,4.7-1.33,10.29-2.51,15-1.21s7,4.63,11.92,5.44c3.52.59,8.15-.13,10.27,1.61,1.23,1,.82,2.43-.21,3.52s-2.62,2-3.83,3c-3.85,3.28-3.24,8.06,1.41,11,1.81,1.13,4.28,2.17,4.43,3.71.12,1.26-1.5,2.4-3.42,3s-4.46,1.27-6.32,2c-2.63.95-6.31,3.26-9,4.15a28.86,28.86,0,0,1-5.9,1,22.89,22.89,0,0,1-6.9-1,10.59,10.59,0,0,1-4-1.76c-1.94-1.68-.71-3.91.51-5.81s2.27-4.17.13-5.77c-1.5-1.09-4.12-1.47-6.55-1.51s-4.89.17-7.28-.09c-5.52-.58-9.59-3.73-10-7S191,235.08,194.87,232.7ZM98.79,259.47c2-2.52,5.7-4.49,9.44-6.27s7.68-3.47,10.59-5.71c2.46-1.88,4.07-4.5,2-6.54-.93-.95-2.51-1.6-3.58-2.49-3.34-2.75-.52-6.9,4.55-8.55s11.41-1.28,16.93-.22a57.32,57.32,0,0,1,11.89,3.6c3.39,1.47,6.61,3.31,10.78,3.81,5.16.63,10.33-.95,15.59-1.1,1.4,0,3,.06,3.83.71a2.08,2.08,0,0,1,.73,1.48c.33,2.16.66,4.3,1,6.44.21,1.24.37,2.56-.65,3.67s-2.84,1.72-4.59,2.38c-9.88,3.74-18,9-23.25,15.11-1.26,1.46-2.42,3-4.67,4s-6,1-7.47-.36c-1.14-1.06-.62-2.63-1.32-3.86-.9-1.62-2.39-1.47-3.94-1.13-4.13.91-8.16,2.24-12.23,3.42-4.42,1.28-9.07,2.74-13.69,2.35-4-.34-8.28-1-10.9-2.82C96.71,265.26,96.77,262,98.79,259.47Zm-33,22.71c-8.35-.86-16.81,1.89-25.12.68-2.22-.33-4.7-1.21-5.42-3.33-.61-1.78.38-3.79,1.83-5a16.12,16.12,0,0,1,5.08-2.39c4.36-1.51,8.41-3.55,10.68-7.67a9.33,9.33,0,0,1,2.11-2.88c2-1.62,5.8-.57,8.19-.53,6.89.11,13.79.23,20.68.3,4.13,0,6.36,1.16,8.31,3.67a25.94,25.94,0,0,1,2.07,3.25,11.3,11.3,0,0,0,8.41,6.09c1.73.2,4.06.44,4.27,2.16a2.4,2.4,0,0,1-1.63,2.31,13.48,13.48,0,0,1-3,.59c-1.76.31-3,1.5-4.59,1.85-1.79.38-3.92-.46-5.49-1.22-1-.5-2.83-2.09-4-2.15a16.79,16.79,0,0,0-8.1,1.8c-1.83.92-3.53,2.15-5.49,2.72C71.75,283.25,68.72,282.5,65.76,282.18Zm-.08,21.23c2.09-2,4.71-3.42,6.59-5.62,2.49-2.91,3.4-6.83,5.86-9.75,2.67-3.16,6.07-6,10.26-4.22,1.69.71,3,1.8,4.75,2.36,2.17.68,4.44,1,6.61,1.71a6.39,6.39,0,0,1,1.93.93l.15.1a6.77,6.77,0,0,1,1.34,1.79c2.26,3.8,4.5,11,9.59,12,4.22,1.45,8.87-.43,13.3.07,1.78.19,3.57.77,5.32.39,2.53-.53,4.63-3,7.19-2.6s3.75,3.18,3.65,5.63-1.17,4.75-1.59,7.17a17.71,17.71,0,0,1-.94,4.54c-.92,2-2.92,3.19-4.87,4.16a50.83,50.83,0,0,1-12.75,4.35c-3.85.77-8.34.9-11.18-1.82a15.63,15.63,0,0,0-2.56-2.52c-2.38-1.43-5.4.08-8.17,0-4.93-.1-8.17-5-12.16-7.85A17.13,17.13,0,0,0,77.08,311c-3.24.2-6.34,1.3-9.51,2a4.61,4.61,0,0,1-2.87-.06,3.26,3.26,0,0,1-1.57-1.77C62,308.49,63.6,305.42,65.68,303.41Zm-3.57,45.14a41.08,41.08,0,0,1-5.55-.22c-2.87-.18-5.81-.11-8.6-.53s-5.56-1.43-6.39-3c-1.33-2.61,2.9-5.14,2.86-7.86,0-1.89-2.43-3.7-5.61-4.2a52.36,52.36,0,0,0-7-.16c-2.35-.06-5-.58-5.81-1.85-.56-.84-.17-1.79-.44-2.69C24.69,324.91,17,324,15.24,321a.79.79,0,0,1-.11-.78c.28-.53,1.42-.71,2.37-.76,4.58-.3,10,.13,13.05-1.87l.63-.15a17,17,0,0,0,7-5.6,17.34,17.34,0,0,1,2.3-3.39,7.26,7.26,0,0,1,5.07-1.87,10.43,10.43,0,0,1,5.37,2c2.09,1.33,4.3,2.86,4.15,4.64-.16,2.06-3.39,3.68-3.68,5.72-.32,2.35,4.33,4.44,8.19,3.65,2.32-.45,3.93-1.64,5.73-2.6a25.86,25.86,0,0,1,6.9-2.44,20,20,0,0,1,8.23-.17,15.87,15.87,0,0,1,5.37,2.49c2.19,1.47,4.23,3.08,5,5,1.54,3.53-1.53,7.15-4.95,10.21a87.39,87.39,0,0,1-14.24,10.23A21.25,21.25,0,0,1,62.11,348.55Zm89.61-9.28c-2,2.52-5.7,4.49-9.45,6.27s-7.68,3.46-10.59,5.7c-2.46,1.88-4.06,4.51-2,6.54.93,1,2.51,1.61,3.58,2.5,3.33,2.74.52,6.9-4.55,8.55s-11.41,1.28-16.94.21a57.23,57.23,0,0,1-11.88-3.6c-3.39-1.47-6.62-3.31-10.78-3.8-5.17-.63-10.33.95-15.59,1.1a6.7,6.7,0,0,1-3.84-.71,2.09,2.09,0,0,1-.73-1.49c-.32-2.15-.66-4.3-1-6.44-.21-1.23-.37-2.56.64-3.67s2.84-1.71,4.59-2.38c9.89-3.73,18-9,23.26-15.11,1.25-1.45,2.42-3,4.67-4s6-1,7.47.36c1.13,1.05.62,2.62,1.31,3.86.91,1.62,2.39,1.47,3.94,1.13,4.14-.92,8.17-2.24,12.23-3.42,4.43-1.29,9.07-2.75,13.69-2.36,4,.35,8.28,1,10.9,2.82C153.79,333.48,153.73,336.72,151.72,339.27Zm33-22.72c8.36.86,16.81-1.88,25.12-.68,2.22.34,4.7,1.21,5.42,3.33.62,1.79-.37,3.79-1.82,5a16.25,16.25,0,0,1-5.09,2.38c-2.21.77-4.79,1.64-6.61,3.16s-2.25,3.76-3.52,5.78a6.28,6.28,0,0,1-6.4,3,50.76,50.76,0,0,0-8.6-.95q-11.67-.17-23.34-.35a2.7,2.7,0,0,1-1.73-.42c-.68-.53-.68-1.52-.72-2.39a11.17,11.17,0,0,0-9.53-10.09c-1.73-.2-4-.45-4.27-2.16-.4-3.19,7-3.1,10.8-2.88l1.86.13c3.1.22,6.26.91,9.24.06a24.74,24.74,0,0,0,3.84-1.69C174.84,315.17,178.91,315.92,184.74,316.55Zm5.17-22.6a38,38,0,0,1-4.62,1.67c-5.63,2-9.52,5.52-10.19,9.29l-.23,1.11a14.83,14.83,0,0,1-6.57,6.57,21.08,21.08,0,0,1-12.28,2c-5.82-.91-9.42-4.54-9.52-8a36.12,36.12,0,0,1,.7-4.82,10.21,10.21,0,0,0-.56-4.65,4,4,0,0,0-2.27-2.55c-2-.85-4.88-.4-7.07.28-2.46.76-5,2.55-7.47,2.91-2.88.4-5.87-.29-8.77-.23a18.43,18.43,0,0,1-7.61-1.39c-4-1.84-7.41-7.49-5.39-11.83,1.65-3.54,6.28-4.7,9.68-5.76a68.19,68.19,0,0,1,18.71-2.95,36.28,36.28,0,0,0,6.11-.38,31,31,0,0,1,4.82-1c2.82-.14,5.14,1.18,7.05,2.38L161,280.8c4.19,2.63,9.5,5.51,15.6,4.91a18,18,0,0,0,8.38-3.22,9.59,9.59,0,0,1,2.67-1.46,4.67,4.67,0,0,1,3.45.16c1.36.84.13,2.16-.67,3.21a4,4,0,0,0,.26,5.28,5.64,5.64,0,0,1,1.17,1.48C192.27,292.19,191.27,293.25,189.91,294Zm45.47-15.4c-.29.54-1.42.72-2.38.77-4.57.29-10-.14-13.05,1.87l-.62.15a16.84,16.84,0,0,0-7,5.59,17.1,17.1,0,0,1-2.31,3.39,7.2,7.2,0,0,1-5.07,1.87,10.29,10.29,0,0,1-5.37-2c-2.09-1.32-4.3-2.85-4.15-4.64.16-2.05,3.4-3.67,3.68-5.71.33-2.36-4.32-4.44-8.19-3.66-2.32.45-3.92,1.65-5.73,2.61a25.44,25.44,0,0,1-6.89,2.43,20.1,20.1,0,0,1-8.24.18,16.07,16.07,0,0,1-5.37-2.5c-2.19-1.47-4.23-3.08-5-5-1.54-3.53,1.52-7.15,4.94-10.22a86.42,86.42,0,0,1,14.25-10.22,21.09,21.09,0,0,1,9.51-3.32,41.23,41.23,0,0,1,5.56.21c2.86.19,5.81.11,8.59.53s5.57,1.44,6.39,3c1.33,2.61-2.9,5.14-2.86,7.86,0,1.89,2.44,3.7,5.61,4.2a54.24,54.24,0,0,0,7,.17c2.34.06,5,.57,5.8,1.84.56.84.18,1.8.44,2.69.9,3.11,8.58,4.06,10.35,7A.85.85,0,0,1,235.38,278.55Zm48.92-10.17c-2.06,1.71-5.22,2.85-7.81,4.29-3.05,1.71-5.26,3.82-7.81,5.77a23.36,23.36,0,0,1-9.62,4.63c-4,.83-9,.34-11.46-1.66-1.47-1.22-1.78-2.8-3.11-4.08-3.44-3.29-12.73-3.83-14.61-7.52-1.45-2.88,2.82-5.72,7.46-7.05s10-1.86,14.12-3.67c1.86-.83,3.46-2,3.71-3.3.39-2.1-2.51-3.86-4.57-5.6-2.21-1.87-3.63-4.23-2.49-6.4,1.36-2.6,5.85-4.15,10-5.45a6.16,6.16,0,0,1,2.15-.38,4.48,4.48,0,0,1,1.55.4,9.85,9.85,0,0,1,5.67,5.74c.82,2.21.91,4.49,1.66,6.7,1.35,4,4.89,7.71,10,10.51a30.12,30.12,0,0,1,4.94,1.38C286.82,264,286.34,266.65,284.3,268.38Zm2.49-9.85c-3.9.25-8.15-.84-9.92-2.86a6.72,6.72,0,0,1-1.43-3.33c-.4-1.83-.79-3.65-1.19-5.47-.52-2.44-1.08-4.94-2.95-7.15a14,14,0,0,0-9.56-4.44c-2.43-.18-5.52,0-6.74-1.21s.65-2.68,2.14-3.82A13.55,13.55,0,0,0,262,224c.52-1.54.63-3.16,1.68-4.6,1.61-2.18,5.49-3.76,9.6-3.9s8.29,1.15,10.34,3.23c1.56,1.58,1.88,3.46,2.18,5.27.8,4.86,1.58,9.71,2.38,14.57.45,2.8.95,5.68,3.32,8.12,1,1,2.35,2,3.31,3,1.46,1.61,2.5,2.6,2.05,4.38a7.68,7.68,0,0,1-.48.83C294.62,256.93,290.71,258.26,286.79,258.53Zm42.14-4.13c-8.44,4.07-14.59,9.7-17.32,15.84a35.58,35.58,0,0,1-2.26,5,13.24,13.24,0,0,1-4.12,3.94,17.15,17.15,0,0,1-8.49,2.57c-3.28.08-6.75-1.06-7.66-2.87-1.7-3.34,5.2-6.25,5.24-9.72,0-2.58-3.74-5.14-1.94-7.5s8.72-2.63,10.95-5.07c1.44-1.55.43-3.5-1.24-5s-4-2.7-5.42-4.25-3.12-4.29-2.13-5.6c.56-.74,2-.76,2.44-.72,4.46.33,6.86,4.13,11.32,4a13,13,0,0,0,4.7-1.26c4.67-2,8.75-4.55,14-6s12.45-1.38,16,1.29,2,6.43-1.41,9S333.25,252.33,328.93,254.4Zm83.57,7.77c-3.7.74-7.45,1.25-11.13,2.08a66.74,66.74,0,0,0-20.63,8.47c-3.57,2.21-7,4.84-9.27,8.36a24.55,24.55,0,0,1-2.64,3.88,13.6,13.6,0,0,1-4.42,2.73c-4.25,1.86-8.83,3.35-13.45,3a1.52,1.52,0,0,1-1.06-.38,1.47,1.47,0,0,1-.31-.85,10.68,10.68,0,0,1,3.27-9c2.21-2.06,5.17-3.06,8-4a91.74,91.74,0,0,0,15.2-6.31c4-2.18,6.42-5.88,11.09-7.26,2.4-.7,4.93-.89,7.37-1.45,5.06-1.17,9.27-3.88,13.75-6.36,2.36-1.31,7.79-2.48,7.9,1.79C416.26,258.93,414.6,261.76,412.5,262.17Z" style="fill:#fff;opacity:0.2"></path></g></g><g id="freepik--Clouds--inject-13"><path id="freepik--Cloud--inject-13" d="M325.62,43c0-4.1-4.5-7-9.59-7.43-6-.56-10.25,2.11-10.39,6.83-3.92-1.61-8.06-.57-7.75,3.74-1-1.18-4.84-1.14-6.21-.82a5.37,5.37,0,0,0-3.41,2.92,3.93,3.93,0,0,0-.36,2.2c-2.28-.75-7.48-1.2-8.78.89-2.32,3.74,6.93,3.85,8.79,2.73.4,2.9,10.34,3.38,12.74.7,1.88,1.89,4.58,2.31,7.5,2.48,4.92.29,7.93-1.37,11.77-3.33,4.17,3.53,11.38,3.6,15.14-.45,1,.91,3.6,1.19,5.72.68,1.39-.33,1.71-.92,1.71-.92a12.73,12.73,0,0,0,2.55.77c2.73.57,7.8,0,5.67-2.49-.72-.84-3.38-1.37-4.5-1.11-1.19-2.34-6-4.55-8.71-2.58-.1-2.83-2.69-5.05-6.34-5.61C330,42,327,41.88,325.62,43Z" style="fill:#f0f0f0"></path><path id="freepik--cloud--inject-13" d="M454,75.57c0-4.11-4.52-7-9.62-7.45-6-.57-10.29,2.11-10.43,6.85-3.94-1.61-8.09-.58-7.78,3.75-1-1.18-4.85-1.15-6.22-.82a5.39,5.39,0,0,0-3.43,2.92,4,4,0,0,0-.36,2.22c-2.29-.76-7.51-1.21-8.81.89-2.33,3.75,7,3.86,8.82,2.73.4,2.92,10.37,3.39,12.79.7,1.88,1.9,4.59,2.32,7.52,2.5,4.93.29,8-1.38,11.8-3.35,4.19,3.55,11.43,3.62,15.2-.44,1,.91,3.61,1.19,5.73.68,1.4-.33,1.72-.93,1.72-.93a11.64,11.64,0,0,0,2.56.77c2.73.58,7.82,0,5.69-2.49-.73-.84-3.39-1.37-4.52-1.11-1.19-2.35-6-4.58-8.73-2.59-.11-2.84-2.71-5.07-6.37-5.63C458.33,74.58,455.39,74.41,454,75.57Z" style="fill:#f0f0f0"></path></g><g id="freepik--Sun--inject-13"><circle id="freepik--sun--inject-13" cx="388.11" cy="52.72" r="13.63" transform="translate(76.39 289.88) rotate(-45)" style="fill:#ffbda7"></circle></g><g id="freepik--Birds--inject-13"><g id="freepik--birds--inject-13"><path d="M144.91,46.5c-8.9-3.41-18.73,3.89-25.18,13.86C114,53.18,99.9,44.82,92.32,51.79c10.2-3.24,20.46,3,26.35,11.1.41.51,1.67,1.13,2.22.14C127.05,51.91,136.62,46.15,144.91,46.5Z" style="fill:#455a64"></path><path d="M90.33,79.75c-7.19-1.79-13.9,7-15.78,14-5.09-5-13.28-10.41-20-5.91,8.31-2,14.16,2.27,19.47,8,.36.35,1.51.75,1.72-.1C77.66,87.58,83.91,80.26,90.33,79.75Z" style="fill:#455a64"></path></g></g><g id="freepik--Shadows--inject-13"><ellipse id="freepik--Shadow--inject-13" cx="246.86" cy="425.89" rx="58.35" ry="33.69" style="opacity:0.15"></ellipse><path id="freepik--shadow--inject-13" d="M386.69,362.24a.85.85,0,0,0,.62-.28c.39-.43.52-1.69.38-3.73a57.92,57.92,0,0,0,10.19,1.23,9.39,9.39,0,0,0,4.19-.7,4.54,4.54,0,0,0,2.51-3,6.56,6.56,0,0,0-1.26-5c.48-.84,1.07-2.75-1-5.68a6.34,6.34,0,0,0-5.4-2.87,6.85,6.85,0,0,0-1.16.1c-.58-.75-2.1-2.18-5.28-2.18a12.36,12.36,0,0,0-1.46.1,4.44,4.44,0,0,0-3,1.91c-2,2.7-2.71,7.92-2.28,11.84a13.35,13.35,0,0,0-2.36-.25,3.63,3.63,0,0,0-2.25.57,1,1,0,0,0-.42,1c.21,1.07,2.59,2,4.68,2.62.57,1.11,2,3.65,2.8,4.18A.92.92,0,0,0,386.69,362.24Z" style="opacity:0.15"></path><path id="freepik--shadow--inject-13" d="M333.41,331.23c1.12,0,2.75-1.48,3.46-2.26,1.66-1.85,3.36-3.88,3.9-4.54.91.17,4,.76,7.29,1.64l.78.21a11.17,11.17,0,0,0,2.59.55,1.08,1.08,0,0,0,1-.48c.26-.48.08-1.15-.6-2.25-1.42-2.3-4.43-4-5.92-4.8a38,38,0,0,1,4.47-2c.69-.24,1.62-.66,1.6-1.41,0-.37-.26-.89-1.41-1.25a13.85,13.85,0,0,0-3.53-.4q-.74,0-1.41.06a23,23,0,0,0-6.12,1.19,15.18,15.18,0,0,0-7.1-2.85c-.57-.05-1.08-.08-1.53-.08-1.16,0-1.8.18-2.07.58a.79.79,0,0,0-.06.76,4.51,4.51,0,0,0,1.54,1.57,14.36,14.36,0,0,1,2.56,2.35l-.69.25a39.63,39.63,0,0,0-6.2,2.72c-1.64.94-2.31,1.72-2.12,2.46.24.9,1.68,1.09,2.84,1.09h1.45c1.8,0,4.18,0,5.27.07-.21.85-.62,2.59-1,4.94a1.89,1.89,0,0,0,.23,1.57A1,1,0,0,0,333.41,331.23Z" style="opacity:0.15"></path><path id="freepik--shadow--inject-13" d="M436.66,328.1c1,0,2.45-1.32,3.08-2,1.48-1.65,3-3.45,3.46-4,.81.15,3.58.67,6.48,1.45l.69.19a10.25,10.25,0,0,0,2.3.49,1,1,0,0,0,.9-.43c.24-.42.08-1-.53-2-1.26-2-3.93-3.59-5.25-4.26a34,34,0,0,1,4-1.79c.61-.22,1.43-.59,1.42-1.25,0-.33-.23-.79-1.26-1.12a12.63,12.63,0,0,0-3.13-.35,12.32,12.32,0,0,0-1.25.06,20.41,20.41,0,0,0-5.44,1.05,13.52,13.52,0,0,0-6.3-2.53c-.51-.05-1-.07-1.36-.07-1,0-1.6.16-1.84.51a.74.74,0,0,0-.06.68,4,4,0,0,0,1.38,1.39,13.47,13.47,0,0,1,2.27,2.09l-.62.23a34.53,34.53,0,0,0-5.51,2.41c-1.45.83-2.05,1.52-1.87,2.18s1.48,1,2.51,1H432c1.6,0,3.71,0,4.67.06-.18.76-.54,2.31-.91,4.39a1.69,1.69,0,0,0,.2,1.39A.89.89,0,0,0,436.66,328.1Z" style="opacity:0.15"></path></g><g id="freepik--Starfishes--inject-13"><g id="freepik--Starfish--inject-13"><path d="M344.89,317.9a42.21,42.21,0,0,1,5.35-2.48c1.95-.69,1.41-1.39.2-1.77a14.83,14.83,0,0,0-4.75-.32c-4.55.42-6.23,1.26-6.23,1.26a14.88,14.88,0,0,0-7.07-2.92c-1.51-.14-3.49-.17-3.18.61.39,1,2.58,1.81,4.42,4.3a55.27,55.27,0,0,0-7.42,3.18c-3.33,1.9-1.77,2.71.7,2.66,2.27,0,7.12.08,7.12.08s-.58,2.08-1.17,5.48c-.47,2.69,2.24.83,3.65-.75,2-2.25,4.07-4.73,4.07-4.73s3.66.63,7.6,1.69c2.83.76,5.05,1.63,3.27-1.26S344.89,317.9,344.89,317.9Z" style="fill:#f28f8f"></path><path d="M336.37,326c1.06-1.2,3.72-5.05,3.72-5.05s7.55,2.1,9.43,2.66,2.44.33,2.23-.13c1.18,2.25-.93,1.45-3.57.74-3.94-1.06-7.6-1.69-7.6-1.69s-2,2.48-4.07,4.73c-1.05,1.17-2.81,2.5-3.46,2C334.17,329.16,335.32,327.18,336.37,326Z" style="fill:#b16668"></path><path d="M324.35,321.73c.63.41,1.53.25,3.88,0s6.16-.79,6.16-.79L334,322.5s-4.85-.12-7.12-.08C325.59,322.45,324.55,322.23,324.35,321.73Z" style="fill:#b16668"></path><path d="M350.94,313.84c.79.37.95,1-.7,1.58a42.21,42.21,0,0,0-5.35,2.48l-1.56-.77s2.19-.95,4.38-1.64C349.72,314.86,351.61,314.41,350.94,313.84Z" style="fill:#b16668"></path><path d="M333.63,316.58c-1.84-2.49-4-3.32-4.42-4.3a.32.32,0,0,1,.13-.43h0s-.32.41,1.45,1.16a13.77,13.77,0,0,1,3.6,2.7C334.82,316.25,333.63,316.58,333.63,316.58Z" style="fill:#b16668"></path></g><g id="freepik--starfish--inject-13"><path d="M446.86,316.26a36.91,36.91,0,0,1,4.75-2.21c1.73-.61,1.26-1.23.18-1.57a13.33,13.33,0,0,0-4.22-.28,17.36,17.36,0,0,0-5.53,1.12,13.26,13.26,0,0,0-6.28-2.59c-1.34-.13-3.1-.15-2.83.54.35.87,2.3,1.6,3.93,3.82a49.37,49.37,0,0,0-6.59,2.82c-2.95,1.69-1.57,2.41.62,2.36,2,0,6.32.07,6.32.07s-.51,1.85-1,4.87c-.42,2.39,2,.73,3.24-.66,1.8-2,3.61-4.21,3.61-4.21s3.26.56,6.76,1.51c2.5.67,4.48,1.44,2.9-1.13S446.86,316.26,446.86,316.26Z" style="fill:#f28f8f"></path><path d="M439.3,323.43c.93-1.07,3.3-4.49,3.3-4.49s6.7,1.87,8.38,2.36,2.16.3,2-.11c1.06,2-.82,1.29-3.16.66-3.5-1-6.76-1.51-6.76-1.51s-1.81,2.21-3.61,4.21c-.93,1-2.5,2.21-3.07,1.77C437.34,326.26,438.36,324.5,439.3,323.43Z" style="fill:#b16668"></path><path d="M428.62,319.66c.56.36,1.36.22,3.45,0s5.47-.7,5.47-.7l-.33,1.4s-4.3-.11-6.32-.07C429.72,320.3,428.79,320.1,428.62,319.66Z" style="fill:#b16668"></path><path d="M452.23,312.65c.7.33.85.88-.62,1.4a36.91,36.91,0,0,0-4.75,2.21l-1.38-.69s1.94-.84,3.89-1.45C451.15,313.56,452.83,313.16,452.23,312.65Z" style="fill:#b16668"></path><path d="M436.86,315.09c-1.63-2.22-3.58-2.95-3.93-3.82a.29.29,0,0,1,.13-.38h0s-.29.36,1.28,1a12.18,12.18,0,0,1,3.2,2.39C437.92,314.79,436.86,315.09,436.86,315.09Z" style="fill:#b16668"></path></g></g><g id="freepik--Shell--inject-13"><g id="freepik--shell--inject-13"><path d="M386.29,356.07s11.44,2.54,14.8.77,2.45-5.12.75-7.44c0,0,1.76-1.75-.69-5.3a5.87,5.87,0,0,0-6.31-2.4s-1.38-2.78-6.37-2.16c-4.15.51-5.43,8.89-4.59,13.94,0,0-3.74-1-5,0S383.2,356,383.2,356s1.87,3.66,2.7,4.18S386.29,356.07,386.29,356.07Z" style="fill:#fff"></path><path d="M397,356.26c4.36-.44,5.95-2.19,6.26-3.61a3.77,3.77,0,0,1-2.21,4.19c-3.36,1.77-14.8-.77-14.8-.77a25.86,25.86,0,0,1,.11,2.77,13.25,13.25,0,0,0-.8-3.43A44.94,44.94,0,0,0,397,356.26Z" style="opacity:0.1"></path><path d="M401.84,349.4s-4.46-.84-10.8,2.68a18.74,18.74,0,0,1,7.27-3.65c4.51-1.17,2.84-4.33,2.84-4.33C403.6,347.65,401.84,349.4,401.84,349.4Z" style="opacity:0.1"></path><path d="M386.44,350.11c2.54-6.23,6-8.05,5.41-9.11-.81-1.55-3.38-1.46-3.38-1.46,5-.62,6.37,2.16,6.37,2.16C389.29,344,386.44,350.11,386.44,350.11Z" style="opacity:0.1"></path></g></g><g id="freepik--Character--inject-13"><g id="freepik--character--inject-13"><g id="freepik--Bottom--inject-13"><path d="M299.57,253.69c-.84-29.25-5.31-48.86-10.16-56.13C282.26,208.49,267.09,230,267.09,230l-12.7,27.19s3.63,26.15,6.66,36.33c-10.21,11.18-13.38,17.19-18.08,28.57-3.57,8.62-6.56,22.94-9.87,35.43-2.41,9.13-3.55,10.11-5.31,11.36-1,.72-2.27,1.52-2.27,1.52s-8.45,3.19-8.14,8.39c.23,3.75,2.84,8.2-.41,15.33-3.85,8.45-5.48,10.73-1.85,16.88,3.11,5.27,10,10.91,17.36,11.51a3.22,3.22,0,0,0,2.45-2.95c.13-3.44-1.39-4.78-2.32-8.46s.18-9.85,1-14,3.79-9.21,6.1-12.85,5.09-7.93,9-13.25c4.74-6.44,39.52-54.36,45.2-64.49S300.45,284.23,299.57,253.69Z" style="fill:#f28f8f"></path><path d="M280.25,289.7c-1-16.36-2.7-41.85-2.7-41.85a33,33,0,0,0,11.2-14c2.73-6.19,5.66-18-2.05-32.21C279,213.1,267.09,230,267.09,230l-12.7,27.19s3.63,26.15,6.66,36.33c-10.21,11.18-13.38,17.19-18.08,28.57-2.45,5.92-4.63,14.54-6.83,23.41.34,4,1,8.86,2.1,15.22a135.85,135.85,0,0,0,5,18.18c1.58-2.37,3.38-5,5.53-7.9,2.39-3.25,20-27.77,30.09-42C279.69,317.25,281.21,305.16,280.25,289.7Z" style="fill:#b16668"></path><path d="M273.69,425.88a33.28,33.28,0,0,1-2.23-6.74,53.47,53.47,0,0,1-1-15.25c.53-8.08.61-9.92.86-14.94.48-9.67,2.27-28.46,3.28-43.72,2.5-37.92,3.85-42.2,2.83-58.56s-3.6-41.29-3.6-41.29,7.67-3.18,13.94-17.14c3.14-7,5.22-20.32,1.68-30.68,0,0-1.83,7.19-21.73,5.95-16.42-.75-26-7.33-26-7.33-1.31,4.62-9.36,11.78-16.08,22.58C223,223,218.44,230,220,244.36c1.12,10.12,3.69,15.18,8.28,31.27,4.77,16.74,13.87,44.85,13.87,44.85-2.45,12.89-4.3,16.41-.24,39.79,1.32,7.64,4,15.05,6.32,22.44,1.75,5.69,3.42,11.58,3.19,17.59-.11,2.89-2.3,4.76-3.69,7.06-1.91,3.15-3,7.61-.76,10.81,2.07,3,5.49,4.89,6.95,8.3.9,2.1.88,4.47,1.53,6.66,1.75,5.91,8.16,8.92,13.9,9,3.5,0,18,.39,12.27-6.75a15.16,15.16,0,0,0-2.5-2.15A20.1,20.1,0,0,1,273.69,425.88Z" style="fill:#f28f8f"></path><path d="M273.79,245.38a54.45,54.45,0,0,0-13.67-25.83c-6.44-6.59-18.63-15-26.84-11.46a90.84,90.84,0,0,1,6.36-8.22c9,1.82,26.57,12.6,38.94,12.2,13.88-.46,10.83-14.51,10.83-14.51a26.36,26.36,0,0,1,4,9.38C293.13,223.88,287.53,239.17,273.79,245.38Z" style="fill:#37474f"></path></g><g id="freepik--Top--inject-13"><path d="M280.18,128.82l.26-.11a6,6,0,0,0,1.41-.64,3.06,3.06,0,0,0,.77-.91,2.73,2.73,0,0,0,.31-1.54,75.2,75.2,0,0,0-1.13-9.45c-.24-1.71-.44-3.4-.59-5.11,0-5.38,0-10.08,0-10.08l-.09-8s.36-5.63-.77-8.31A9.67,9.67,0,0,0,271,78.72c-11.47.55-23,3.87-32.15,10.8-1.46,1.11-3.87-.7-4.45,1-1.58,4.75-1,8.79-.46,12.94.62,4.5,1.33,10.43.62,14.92l-.12.67c-.38.92-.81,1.81-1.28,2.69-.86,1.64-2,3.37-1.67,5.3a3.8,3.8,0,0,0,1,2c.84.92,3,2,2,3.48a7.72,7.72,0,0,1-1.72,1.55,5.64,5.64,0,0,0-1.78,1.55,7.9,7.9,0,0,0-1.16,3c-.4,2.1-.45,4.13.8,5.89a14,14,0,0,0,4.76,3.79c1.75,1,3.52,2.5,3.65,4.52s-1.48,3.78-1.9,5.78a8.13,8.13,0,0,0,2,6.3c1.9,1.94,4.67,2.71,7.26,3.17a11.33,11.33,0,0,1,6.93,5.27,2.46,2.46,0,0,1,.36,1.28,1.93,1.93,0,0,1-1.41,1.54,5.75,5.75,0,0,1-2.19.1,5.56,5.56,0,0,0,6.47-.42,6.5,6.5,0,0,0,2-6.29,23.36,23.36,0,0,1-1-3.88c-.1-2.2,1.49-4.18,3.38-5.32a35.5,35.5,0,0,1,6.14-2.43,26,26,0,0,0,8.93-5.63,12.47,12.47,0,0,0,3.13-4.35,10.13,10.13,0,0,0,.6-2.47c.09-.8-.36-1.55-.11-2.35a4,4,0,0,1,.53-1,10.49,10.49,0,0,0,1.64-5.41,9.08,9.08,0,0,0-.88-4.07,3.26,3.26,0,0,0-.63-1.19,9.78,9.78,0,0,1-.61-.92,1.48,1.48,0,0,1-.28-1,1,1,0,0,1,.41-.59A2.6,2.6,0,0,1,280.18,128.82Zm-43.93,2.84a2.56,2.56,0,0,1-1.56,1.46,2,2,0,0,0,.46-1.22c.06-2.07-2.74-2.71-3.12-4.63s.93-4,1.87-5.82c-.49,2-.82,4,.33,5.8C235.15,128.66,236.79,130.06,236.25,131.66Zm43.22,0a3.68,3.68,0,0,1,.55.82,22.75,22.75,0,0,0-2.72-2.15,2.32,2.32,0,0,1-1-1.16c-.23-.85.5-1.64,1.18-2.21a26.06,26.06,0,0,0,2.39-2.07,5.12,5.12,0,0,0,1.34-2.37,8.35,8.35,0,0,0,.16-2.24c0-1.29-.06-2.7-.09-4.15.35,2.41.73,4.82,1,7.22.14,1.55.51,3.5-1.14,4.37-.9.47-2,.62-2.4,1.66S278.86,131,279.47,131.66Z" style="fill:#263238"></path><path d="M341.58,139.36c1.6,3.77-4.06,7.88-10.47,13.38-4.8,4.12-12.27,9.52-12.27,9.52S293,143.31,288.4,139.78c-5.31-4.11-7-4.92-13-5.41l1.48,26s24.53,16.51,32.08,21.09c10.06,6.1,12.43,7,21.17-1.23,6.71-6.35,10.77-11,19.4-22.44,3.33-4.4,7.19-10.93,7.8-14.41Z" style="fill:#f28f8f"></path><path d="M358.07,127.25c-.07-3.73-.13-5.6-.54-6.75-.2-.55-.32-1.23-1.09-3.17s-.82-3.6-1.61-3.86-2.16.45-2.4,2.57.43,4.45.31,5.55S358.07,127.25,358.07,127.25Z" style="fill:#b16668"></path><g id="freepik--Mobile--inject-13"><path d="M354.51,129.76V94.37a1.39,1.39,0,0,0-.85-1.4,1.67,1.67,0,0,0-1.63,0l-14.62,8.44a2.28,2.28,0,0,0-1,1.79v35.39a1.45,1.45,0,0,0,.81,1.28,1.71,1.71,0,0,0,1.67.16l14.62-8.44A1.94,1.94,0,0,0,354.51,129.76Z" style="fill:#37474f"></path><path d="M353.58,130.1l-15,8.67V103.23l-1.88-1.09a2.07,2.07,0,0,0-.3,1v35.39a1.45,1.45,0,0,0,.81,1.28,1.71,1.71,0,0,0,1.67.16l14.62-8.44a1.94,1.94,0,0,0,.9-1l-.06,0Z" style="fill:#263238"></path><path d="M353.45,94.06l-14.65,8.46a1.62,1.62,0,0,0-.73,1.26v35.11c0,.71.5,1,1.12.64l14.26-8.24a1.81,1.81,0,0,0,.83-1.42V94.54C354.28,94,353.91,93.8,353.45,94.06Z" style="fill:#455a64"></path><path d="M337.73,107.41a.9.9,0,0,0-.38-.7.27.27,0,0,0-.26,0l-.29.17a.29.29,0,0,0-.12.27V110a.88.88,0,0,0,.39.69.23.23,0,0,0,.25,0l.29-.17a.28.28,0,0,0,.12-.27Z" style="fill:#455a64"></path><path d="M337.45,107.57v2.88c0,.26-.17.37-.38.25a.88.88,0,0,1-.39-.69v-2.88c0-.26.18-.37.39-.25A.87.87,0,0,1,337.45,107.57Z" style="fill:#37474f"></path><path d="M337.73,112.45a.87.87,0,0,0-.38-.69.25.25,0,0,0-.26,0l-.29.16a.32.32,0,0,0-.12.28v2.88a.88.88,0,0,0,.39.69.26.26,0,0,0,.25,0l.29-.17a.28.28,0,0,0,.12-.27Z" style="fill:#455a64"></path><path d="M337.45,112.62v2.88c0,.26-.17.37-.38.25a.88.88,0,0,1-.39-.69v-2.88c0-.26.18-.38.39-.25A.87.87,0,0,1,337.45,112.62Z" style="fill:#37474f"></path><path d="M342.29,111.62l-1.89,1.09c-.42.25-.77,0-.77-.58v-7.08a1.88,1.88,0,0,1,.77-1.48l1.89-1.09c.43-.25.78,0,.78.58v7.09A1.82,1.82,0,0,1,342.29,111.62Z" style="fill:#263238"></path><path d="M342.72,103.23a.92.92,0,0,1-.37.72c-.21.12-.38,0-.38-.28a.9.9,0,0,1,.38-.72C342.55,102.83,342.72,103,342.72,103.23Z" style="fill:#e0e0e0"></path><path d="M342.5,105.43a2.75,2.75,0,0,1-1.15,2.2c-.64.37-1.15,0-1.15-.87a2.77,2.77,0,0,1,1.15-2.21C342,104.19,342.5,104.58,342.5,105.43Z" style="fill:#455a64"></path><path d="M342,105.7a1.62,1.62,0,0,1-.67,1.29c-.37.21-.67,0-.67-.51a1.62,1.62,0,0,1,.67-1.29C341.72,105,342,105.21,342,105.7Z" style="fill:#fff;opacity:0.2"></path><path d="M342.11,105a.66.66,0,0,1-.27.52c-.15.09-.27,0-.27-.21a.66.66,0,0,1,.27-.52C342,104.74,342.11,104.83,342.11,105Z" style="fill:#fff;opacity:0.2"></path><path d="M342.5,109a2.75,2.75,0,0,1-1.15,2.2c-.64.37-1.15,0-1.15-.87a2.73,2.73,0,0,1,1.15-2.2C342,107.78,342.5,108.17,342.5,109Z" style="fill:#455a64"></path><path d="M342.11,108.6a.63.63,0,0,1-.27.52c-.15.09-.27,0-.27-.2a.66.66,0,0,1,.27-.52C342,108.31,342.11,108.4,342.11,108.6Z" style="fill:#fff;opacity:0.2"></path><path d="M342,109.3a1.6,1.6,0,0,1-.67,1.28c-.37.22-.67,0-.67-.51a1.6,1.6,0,0,1,.67-1.28C341.72,108.57,342,108.8,342,109.3Z" style="fill:#fff;opacity:0.2"></path></g><path d="M356.16,146.63a14.73,14.73,0,0,0,1.27-3.61,44.75,44.75,0,0,0,.53-5.92l.28-7.92c0-1.29,0-2.75-.92-3.64-1.41-1.32-2.16-3.19-3.18-4.84a19.42,19.42,0,0,0-1.85-2.63,20.32,20.32,0,0,0-2.22-2,35.6,35.6,0,0,0-7.44-5.13,1.59,1.59,0,0,0-1.33-.18c-.84.4-.78,1.94-.54,2.67a5.17,5.17,0,0,0,2,2.36,24.65,24.65,0,0,1,4.22,3.88,18.9,18.9,0,0,1,2.24,3.29,13.32,13.32,0,0,1,.92,1.95c.2.56.35,1.67-.53.86a17.32,17.32,0,0,1-2.28-2.56,14.13,14.13,0,0,0-1.11-1.44,9.79,9.79,0,0,0-1-.9c-1.69-1.34-3.29-2.8-5-4.16-.61-.5-1.23-1-1.88-1.44a6,6,0,0,0-1.86-1.16c-.58-.17-.9.57-1.06,1a2.49,2.49,0,0,0,.12,2,14.64,14.64,0,0,0,3.66,4.48c1.57,1.49,3.12,3.06,4.57,4.67q1,1.11,1.92,2.28c.16.21.73.74.35,1s-1-.46-1.23-.69-1.28-1-1.69-1.32c-.83-.74-1.39-1.24-2.2-2-1.48-1.39-2.39-3.7-4.49-4.29a1.2,1.2,0,0,0-.93.05c-.56.34-.51,1-.34,1.54a18.29,18.29,0,0,0,.88,2.1,13,13,0,0,0,.9,1.74,12.29,12.29,0,0,0,1.56,1.82c1.53,1.59,3.07,3.17,4.6,4.75.16.17.54.48.52.74,0,.46-.53.25-.77.07q-1.29-1-2.52-2a10.87,10.87,0,0,1-1.2-1.15c-.94-1.09-1.52-2.29-3.15-2.09a.63.63,0,0,0-.22.07.47.47,0,0,0-.2.31,4.87,4.87,0,0,0,.24,2.36c1,3.39,4.43,5.44,6.2,8.5a24,24,0,0,1,2.65,16.28c-.51,2.66-1.05,6.19-1.51,8,1.11-1.19,5.16-5.81,6-6.94A61.63,61.63,0,0,0,356.16,146.63Z" style="fill:#f28f8f"></path><path d="M341.81,141.07l.1.14a6.55,6.55,0,0,1,.57,1.12,15.3,15.3,0,0,1,.57,2.77c.28,1.38,1.19,3.09,2.67,3.44.1,0,.1-.18.06-.22a7.91,7.91,0,0,1-1.54-2,8.57,8.57,0,0,1-.57-2.56,7.9,7.9,0,0,0-.76-2.32,14.23,14.23,0,0,0-1.31-2.06h0A3.26,3.26,0,0,1,341.81,141.07Z" style="fill:#b16668"></path><path d="M357.12,129.15a1.76,1.76,0,0,1-.43.64,2.36,2.36,0,0,1-1.39.43c-.62.06-1.46.21-1.47,1a3.37,3.37,0,0,1-.67,2.19,2.11,2.11,0,0,1-2.24.7c-.35-.11-.51.27-.43.54a2.16,2.16,0,0,1-2.74,2.66.37.37,0,0,0-.46.29,3,3,0,0,1-.89,2,1.55,1.55,0,0,1-1.82.27c-.13-.1-.19.19-.1.27a2,2,0,0,0,3.08-.45c.12-.25.17-.54.27-.81a1.11,1.11,0,0,1,.51-.65,1.94,1.94,0,0,1,.83-.09,2.31,2.31,0,0,0,2.24-2.3,1.34,1.34,0,0,1,.07-.63c.17-.33.6-.38,1-.44a2.28,2.28,0,0,0,1.24-.61,4.41,4.41,0,0,0,.81-2.28,1.15,1.15,0,0,1,.16-.45,1.13,1.13,0,0,1,.76-.43c.3-.06.6-.05.89-.12a1.56,1.56,0,0,0,1.06-.77,3.46,3.46,0,0,0,.3-.89,1.44,1.44,0,0,0,0-.87.15.15,0,0,0,0-.06c-.05,0-.09,0-.11.08-.1.24-.21.47-.32.71A1.17,1.17,0,0,1,357.12,129.15Z" style="opacity:0.1"></path><path d="M336.3,99.6c-.41-.67-.8-1.35-1.18-2-.28-.49-.57-1-.84-1.5a3.05,3.05,0,0,0-.69-1c-.15-.13-.22.07-.29.15s0,.47.08.61a2.25,2.25,0,0,0,.19.45l.29.59c.18.37.37.75.57,1.12.41.75.86,1.49,1.31,2.22.12.19.41.32.59.14S336.42,99.8,336.3,99.6Z" style="fill:#e0e0e0"></path><path d="M334.82,101.53c-.74-.26-1.46-.56-2.19-.85-.53-.22-1.06-.43-1.58-.66a3.27,3.27,0,0,0-1.19-.39c-.2,0-.13.19-.13.3s.32.34.43.43a2.3,2.3,0,0,0,.44.23l.58.29c.38.18.76.36,1.14.52.8.33,1.61.64,2.42.93.2.07.52,0,.55-.26S335,101.61,334.82,101.53Z" style="fill:#e0e0e0"></path><path d="M334.63,103.79c-.7.35-1.41.68-2.12,1-.52.24-1,.48-1.56.7a3.07,3.07,0,0,0-1.11.6c-.14.14.05.22.13.3s.47,0,.61,0a2.6,2.6,0,0,0,.47-.16l.61-.23c.39-.15.78-.3,1.16-.47q1.19-.53,2.34-1.11c.19-.1.35-.39.19-.58S334.84,103.69,334.63,103.79Z" style="fill:#e0e0e0"></path><path d="M291.29,155.22c-8-11.3-13.4-18.34-15.88-20.85-6.35.45-22.12-.26-22.12-.26s-15.61,2.4-19.74,3.06c0,0-4.5,7.92-4.53,12.93,0,2.91.4,13.38,4.86,22.88,4.09,8.72,8.11,15.48,7.81,23.2,17.72,12.92,49.16,16.58,47.75.31a99.82,99.82,0,0,0,1.83-19.68C297.48,168.6,294.34,159.53,291.29,155.22Z" style="fill:#f28f8f"></path><polygon points="233.68 172.56 239.53 164.84 235.24 175.84 233.68 172.56" style="fill:#b16668"></polygon><path d="M236.67,136.65c5.59,9.14,8.33,18.52,8.12,24.86-.33,9.8-8.58,16.24-8.58,16.24l2.47,5.19a20.69,20.69,0,0,1,2.2-1.19,19,19,0,0,1,14.77-.51,26.4,26.4,0,0,0,6.28,1.49,16.83,16.83,0,0,0,12.46-3.06,15.25,15.25,0,0,1,11.33-2.52,12.67,12.67,0,0,0,5.55-.34c7-5.76,9.26-15.08,3.22-23.09s-19.08-19.35-19.08-19.35l-4-.08s12.88,14.42,8.25,20.72-17.59,2.66-24.52-3.11-13.76-16-13.76-16Z" style="fill:#37474f"></path><g id="freepik--Head--inject-13"><path d="M246.77,125.27a72.9,72.9,0,0,0-6.06-11.41c-2.12-3.24-4.52-6.35-6-9.94a18.51,18.51,0,0,1,4.92-21c3.28-2.77,6.16-5.78,10.2-7.67a23.93,23.93,0,0,1,9.63-2.53c11.17,0,17.43,3.07,21.29,11.4,2.67,5.74,2.32,14.55-3.41,18.21-2.58,1.64-5.63,2.34-8.56,3.21a37.67,37.67,0,0,0-13.23,7,32,32,0,0,0-5.32,5.76C249.48,119.42,246.19,123.89,246.77,125.27Z" style="fill:#263238"></path><path d="M234.56,105.05c1.25-2,4.35-3.33,6.54-2,2.35,1.45,2.43,2.64,3.32,4.29s4.35,1.61,3.87-5.08c-.37-5.14-1-8,4.25-14.84,3.35-4.38,9.54-3.07,13-1.12,1.84-2.91,4.65-4.1,7.77-2.45s5.51,6.26,6.65,18c1.16,12-1.76,19.82-4.5,21.86-2.08,1.55-4.27,2.61-8.78,2.85l.29,3.88h0c.21,2.14,1,3.88,4,4,2.89,3.29,8.84,11.16-3.78,13.39-11.57,2-22.36-8.72-24.78-12.11,3.86-.76,4.55-3.18,4.25-7h0l-1.13-13.54a3.86,3.86,0,0,1-2.94,1.91c-2.45.47-4.4-.73-5.9-2.35C233.37,111.21,233,107.52,234.56,105.05Z" style="fill:#f28f8f"></path><path d="M258.09,102.09A2,2,0,1,0,260,100,2,2,0,0,0,258.09,102.09Z" style="fill:#263238"></path><path d="M271.91,100.88a2,2,0,1,0,1.88-2.08A2,2,0,0,0,271.91,100.88Z" style="fill:#263238"></path><path d="M276.49,95.65l-4.7-.61A2.29,2.29,0,0,1,274.36,93,2.5,2.5,0,0,1,276.49,95.65Z" style="fill:#263238"></path><path d="M260.43,95.45l-4.69,2a2.44,2.44,0,0,1,1.27-3.3A2.67,2.67,0,0,1,260.43,95.45Z" style="fill:#263238"></path><path d="M260.14,113l6.63,1.82a3.44,3.44,0,0,1-4.54,2.3A3.23,3.23,0,0,1,260.14,113Z" style="fill:#b16668"></path><path d="M264.12,117.27a3.6,3.6,0,0,0-3.76-3l-.33,0a3,3,0,0,0,2.2,2.88A3.84,3.84,0,0,0,264.12,117.27Z" style="fill:#ffa8a7"></path><polygon points="265.56 98.78 267.47 110.38 273.37 108.07 265.56 98.78" style="fill:#b16668"></polygon><path d="M266.68,126.62a31.13,31.13,0,0,1-11.7-2.74c-2.73-1.21-5-4.5-6-7.48a10.82,10.82,0,0,0,4.75,8.92c4.72,3.32,13.16,4,13.16,4Z" style="fill:#b16668"></path><path d="M265.12,85.12c-1.75-.6-8.36-1.5-7.22,2.24.3,1,2,2.34,1.6,3.44s-1.93.86-2.76.81a6,6,0,0,0-2.19.16,5.57,5.57,0,0,0-3.72,6.66c.48,1.64,1.84,2.88,2.24,4.53.52,2.22-1.71,3.36-2.71,5a5,5,0,0,0,1.6,6.74c.1.06.14-.18.06-.23a4.15,4.15,0,0,1-1.64-4.83c.59-1.46,2.14-2.28,3.11-3.45,1.91-2.33.28-4.46-.88-6.67-1.35-2.58.21-6.23,3.31-6.54,1.4-.15,2.83.42,4.13-.38a2.15,2.15,0,0,0,.94-2.52c-.31-1-1.83-2.17-1.65-3.21.3-1.72,4.79-.95,5.87-.75C265.82,86.25,265.51,85.25,265.12,85.12Z" style="fill:#263238"></path></g><g id="freepik--Arm--inject-13"><path d="M233.55,137.17c-8,1.43-11.4,4.18-17.89,16.71-7.27,14-8.2,15.7-15.57,30.58-3.32,6.7-5,11.73,2.69,19,11.6,10.9,20.71,15.66,25.3,20.06a17.21,17.21,0,0,1,4.44,6.65S241,206,235.2,208.25c-3,1.2-12.49-13.36-15.17-16.3l12.14-16.47S248.36,152.16,233.55,137.17Z" style="fill:#f28f8f"></path><path d="M230.6,217.06a10.21,10.21,0,0,1,1.12-4.62c.64-1.39.95,7,.95,7l-.58,9.47,0,.06a16,16,0,0,0-3-4.52,9.14,9.14,0,0,1,.66-3.56A7.38,7.38,0,0,0,230.6,217.06Z" style="fill:#b16668"></path><g id="freepik--Glass--inject-13"><g id="freepik--glass--inject-13"><path d="M235.84,204.18l1,28h0a3.36,3.36,0,0,0,.3,1.22,5.83,5.83,0,0,0,2.59,2.55,15.83,15.83,0,0,0,13.92,0,5.83,5.83,0,0,0,2.59-2.55,3.2,3.2,0,0,0,.28-1.07h0a1.13,1.13,0,0,0,0-.32h0l.95-27.8a4.44,4.44,0,0,0,.82-2.31l-1.16,33.9v.35c-.12,1.45-1.13,2.88-3,4a16.31,16.31,0,0,1-14.78,0c-2-1.15-3-2.65-3.06-4.15v-.11l-1.16-34A4.34,4.34,0,0,0,235.84,204.18Z" style="fill:#193282"></path><path d="M235.84,204.18l1,28h0a3.36,3.36,0,0,0,.3,1.22,5.83,5.83,0,0,0,2.59,2.55,15.83,15.83,0,0,0,13.92,0,5.83,5.83,0,0,0,2.59-2.55,3.2,3.2,0,0,0,.28-1.07h0a1.13,1.13,0,0,0,0-.32h0l.95-27.8a4.44,4.44,0,0,0,.82-2.31l-1.16,33.9v.35c-.12,1.45-1.13,2.88-3,4a16.31,16.31,0,0,1-14.78,0c-2-1.15-3-2.65-3.06-4.15v-.11l-1.16-34A4.34,4.34,0,0,0,235.84,204.18Z" style="fill:#fff;opacity:0.8300000000000001"></path><path d="M238.44,206.47c4.53,2.61,11.89,2.61,16.42,0a7.68,7.68,0,0,0,2.58-2.27l-.95,27.8h0v.32h0a3.2,3.2,0,0,1-.28,1.07,5.83,5.83,0,0,1-2.59,2.55,15.83,15.83,0,0,1-13.92,0,5.83,5.83,0,0,1-2.59-2.55,3.36,3.36,0,0,1-.3-1.22h0l-1-28A7.91,7.91,0,0,0,238.44,206.47Z" style="fill:#193282"></path><path d="M238.44,206.47c4.53,2.61,11.89,2.61,16.42,0a7.68,7.68,0,0,0,2.58-2.27l-.95,27.8h0v.32h0a3.2,3.2,0,0,1-.28,1.07,5.83,5.83,0,0,1-2.59,2.55,15.83,15.83,0,0,1-13.92,0,5.83,5.83,0,0,1-2.59-2.55,3.36,3.36,0,0,1-.3-1.22h0l-1-28A7.91,7.91,0,0,0,238.44,206.47Z" style="fill:#fff;opacity:0.7000000000000001"></path><path d="M256.49,232.26c-.08,1.35-1,2.68-2.88,3.7a15.83,15.83,0,0,1-13.92,0c-1.84-1-2.8-2.35-2.88-3.7l-.82-23.9c-.09-1.57.95-3.16,3.12-4.37a17.27,17.27,0,0,1,15.08,0c2.16,1.21,3.2,2.8,3.12,4.37Z" style="fill:#193282"></path><path d="M253.61,236a15.83,15.83,0,0,1-13.92,0c-3.85-2.15-3.85-5.64,0-7.79a15.83,15.83,0,0,1,13.92,0C257.46,230.32,257.46,233.81,253.61,236Z" style="opacity:0.05"></path><path d="M256.49,232.26c-.08,1.35-1,2.68-2.88,3.7a15.83,15.83,0,0,1-13.92,0c-1.84-1-2.8-2.35-2.88-3.7l-.82-23.9c-.09-1.57.95-3.16,3.12-4.37a17.27,17.27,0,0,1,15.08,0c2.16,1.21,3.2,2.8,3.12,4.37Z" style="fill:#fff;opacity:0.15"></path><path d="M254.19,212.36a17.27,17.27,0,0,1-15.08,0c-4.16-2.31-4.16-6.06,0-8.37a17.27,17.27,0,0,1,15.08,0C258.35,206.3,258.35,210.05,254.19,212.36Z" style="fill:#fff;opacity:0.4"></path><path d="M239.11,212.36c3.61,2,9.16,2.26,13.29.8-5.75,1-11.15-1.68-10.68-5.13,0-.08,0-.15,0-.22a13.82,13.82,0,0,1-3.32-1.34,9.29,9.29,0,0,1-1.34-.93C235.12,207.76,235.79,210.52,239.11,212.36Z" style="fill:#193282;opacity:0.2"></path><path d="M235,201.84v0a4.34,4.34,0,0,0,.8,2.29,7.91,7.91,0,0,0,2.6,2.29c4.53,2.61,11.89,2.61,16.42,0a7.68,7.68,0,0,0,2.58-2.27,4.44,4.44,0,0,0,.82-2.31c.07-1.77-1.06-3.55-3.4-4.9-4.53-2.62-11.89-2.62-16.42,0C236.12,198.33,235,200.09,235,201.84Zm3.92-4.38a17.59,17.59,0,0,1,15.38,0c4.25,2.36,4.25,6.18,0,8.53A17.59,17.59,0,0,1,239,206C234.71,203.64,234.71,199.82,239,197.46Z" style="fill:#193282"></path><path d="M235,201.84v0a4.34,4.34,0,0,0,.8,2.29,7.91,7.91,0,0,0,2.6,2.29c4.53,2.61,11.89,2.61,16.42,0a7.68,7.68,0,0,0,2.58-2.27,4.44,4.44,0,0,0,.82-2.31c.07-1.77-1.06-3.55-3.4-4.9-4.53-2.62-11.89-2.62-16.42,0C236.12,198.33,235,200.09,235,201.84Zm3.92-4.38a17.59,17.59,0,0,1,15.38,0c4.25,2.36,4.25,6.18,0,8.53A17.59,17.59,0,0,1,239,206C234.71,203.64,234.71,199.82,239,197.46Z" style="fill:#fff;opacity:0.88"></path><path d="M239,206a17.59,17.59,0,0,0,15.38,0c4.25-2.35,4.25-6.17,0-8.53a17.59,17.59,0,0,0-15.38,0C234.71,199.82,234.71,203.64,239,206Z" style="fill:#193282"></path><path d="M239,206a17.59,17.59,0,0,0,15.38,0c4.25-2.35,4.25-6.17,0-8.53a17.59,17.59,0,0,0-15.38,0C234.71,199.82,234.71,203.64,239,206Z" style="fill:#fff;opacity:0.7000000000000001"></path><path d="M255.71,205.06a8.62,8.62,0,0,1-1.37.93A17.59,17.59,0,0,1,239,206a8.62,8.62,0,0,1-1.37-.93,8.31,8.31,0,0,1,1.52-1.07,17.27,17.27,0,0,1,15.08,0A8.31,8.31,0,0,1,255.71,205.06Z" style="fill:#193282"></path><path d="M255.71,205.06a8.62,8.62,0,0,1-1.37.93A17.59,17.59,0,0,1,239,206a8.62,8.62,0,0,1-1.37-.93,8.31,8.31,0,0,1,1.52-1.07,17.27,17.27,0,0,1,15.08,0A8.31,8.31,0,0,1,255.71,205.06Z" style="fill:#fff;opacity:0.35000000000000003"></path><path d="M254.19,204l-.4-.21h0l-.65-.29a15.22,15.22,0,0,0-3.86-1q-.56-.08-1.11-.12c-.32,0-.65,0-1,0h-.53l-1,0a17.09,17.09,0,0,0-3.47.52,13.53,13.53,0,0,0-3,1.18c-.14.08-.28.16-.41.25l-.08,0-.32.21-.05,0a3.92,3.92,0,0,0-.32.25h0l-.32.27A8.62,8.62,0,0,0,239,206a13.21,13.21,0,0,0,3,1.19C243.31,204.23,249.25,202.52,254.19,204Z" style="opacity:0.03"></path><path d="M236.85,233.66l.07,1.93v.14c.13,2.87,4.44,5.18,9.73,5.18s9.57-2.29,9.73-5.15v-.17l.06-2c-.52,2.7-4.71,4.81-9.8,4.81S237.39,236.35,236.85,233.66Z" style="fill:#193282;opacity:0.1"></path></g><g id="freepik--Ice--inject-13"><path d="M248.43,215.84l2.06,3.35a.8.8,0,0,0,.66.39l4.25-.38c.22,0,.27-.23.12-.47l-2.05-3.35a.8.8,0,0,0-.66-.39l-4.25.38C248.34,215.39,248.29,215.6,248.43,215.84Z" style="fill:#fff;opacity:0.5"></path><path d="M247.25,220.21l2.05,3.35a1,1,0,0,0,.31.29l1.18-4.37a.83.83,0,0,1-.3-.29l-2.06-3.35c-.14-.23-.09-.43.1-.46a.57.57,0,0,0-.45.36l-1,3.71A1.15,1.15,0,0,0,247.25,220.21Z" style="fill:#fff;opacity:0.4"></path><path d="M249.61,223.85l.17.08H250l4.26-.38a.59.59,0,0,0,.48-.37l1-3.71a1.05,1.05,0,0,0-.14-.7c.1.21,0,.39-.16.41l-4.25.38a.64.64,0,0,1-.36-.1Z" style="fill:#fff;opacity:0.30000000000000004"></path><path d="M243.85,228.46l3.47,1.17a.76.76,0,0,0,.7-.11l2.82-2.81c.14-.14,0-.33-.19-.41l-3.47-1.17a.78.78,0,0,0-.71.11l-2.81,2.81C243.52,228.2,243.6,228.38,243.85,228.46Z" style="fill:#fff;opacity:0.5"></path><path d="M245.49,232.85,249,234a.74.74,0,0,0,.39,0l-1.64-4.38a.85.85,0,0,1-.39,0l-3.47-1.17c-.23-.08-.32-.25-.21-.38a.51.51,0,0,0-.1.52l1.37,3.81A1.09,1.09,0,0,0,245.49,232.85Z" style="fill:#fff;opacity:0.4"></path><path d="M249.35,234l.16,0,0,0,.07,0,0,0,2.82-2.81a.54.54,0,0,0,.12-.55l-1.37-3.8a1.06,1.06,0,0,0-.53-.42c.21.09.27.26.14.39L248,229.52a.56.56,0,0,1-.31.14Z" style="fill:#fff;opacity:0.30000000000000004"></path><path d="M237.89,222.68l3.66-.91a.75.75,0,0,0,.44-.53l.76-3.55c.05-.24-.06-.4-.24-.36l-3.66.92a.73.73,0,0,0-.44.53l-.76,3.54C237.6,222.57,237.71,222.73,237.89,222.68Z" style="fill:#fff;opacity:0.4"></path><path d="M240.49,226.21l3.66-.92a.48.48,0,0,0,.27-.19l-2.6-3.52a.54.54,0,0,1-.27.19l-3.66.91c-.17,0-.28-.09-.24-.32a1,1,0,0,0,.08.66l2.25,3A.53.53,0,0,0,240.49,226.21Z" style="fill:#fff;opacity:0.30000000000000004"></path><path d="M244.42,225.1a.54.54,0,0,0,.09-.15l0,0a.42.42,0,0,0,0-.1s0,0,0-.06l.77-3.54a1,1,0,0,0-.08-.7l-2.25-3a.49.49,0,0,0-.47-.17c.16,0,.25.14.2.36l-.76,3.55a.91.91,0,0,1-.17.34Z" style="fill:#fff;opacity:0.5"></path></g><g id="freepik--orange--inject-13"><path d="M234.12,199.16a13.33,13.33,0,0,0,1,1.83,3.49,3.49,0,0,1,.2-.7,5.59,5.59,0,0,1,1.4-2,8.49,8.49,0,0,1,1.33-1l.66.38v6.75h0l.15.07.38.16.19.06.19.06h0l.18.05h0a3.41,3.41,0,0,0,.54.1h0l.18,0a4.17,4.17,0,0,0,1.32-.1,3.46,3.46,0,0,0,.54-.19l.06,0,1.41-.61a3.62,3.62,0,0,0,.88-.55l.13-.12.11-.1.12-.12.11-.13,0,0c.06-.08.13-.16.19-.25l.11-.16.09-.14.09-.15.08-.17a.8.8,0,0,0,.08-.16,1.3,1.3,0,0,0,.08-.17l.07-.16c0-.06,0-.13.07-.2l.06-.18a1.42,1.42,0,0,0,.07-.22l.09-.35c0-.14,0-.27.08-.4l0-.2,0-.22a1.49,1.49,0,0,1,0-.21c0-.07,0-.14,0-.22s0-.14,0-.22v-.22a11.54,11.54,0,0,0-1-4.77c-1.85-4.22-5.57-6.66-8.32-5.46l-1.47.64C233,190.54,232.28,194.94,234.12,199.16Z" style="fill:#193282"></path><path d="M238.7,203.47v.89h0l.15.07.38.16.19.06.19.06h0l.18.05h0a3.41,3.41,0,0,0,.54.1h0l.18,0a4.17,4.17,0,0,0,1.32-.1,3.46,3.46,0,0,0,.54-.19l.06,0,1.41-.61a3.62,3.62,0,0,0,.88-.55l.13-.12.11-.1.12-.12.11-.13,0,0c.06-.08.13-.16.19-.25l.11-.16.09-.14.09-.15.08-.17a.8.8,0,0,0,.08-.16,1.3,1.3,0,0,0,.08-.17l.07-.16c0-.06,0-.13.07-.2l.06-.18a1.42,1.42,0,0,0,.07-.22l.09-.35c0-.14,0-.27.08-.4l0-.2,0-.22a1.49,1.49,0,0,1,0-.21c0-.07,0-.14,0-.22s0-.14,0-.22v-.22l-1.47.85-1,.57-2.08,1.2-.36.21-1.89,1.09-.35.2Z" style="opacity:0.1"></path><path d="M234.12,199.16a13.33,13.33,0,0,0,1,1.83,3.49,3.49,0,0,1,.2-.7,5.59,5.59,0,0,1,1.4-2,8.49,8.49,0,0,1,1.33-1l.66.38v6.75h0l.15.07.38.16.19.06.19.06h0l.18.05h0a3.41,3.41,0,0,0,.54.1h0l.18,0a4.17,4.17,0,0,0,1.32-.1,3.46,3.46,0,0,0,.54-.19l.06,0c1.6-.73,2.5-2.56,2.59-4.81a11.44,11.44,0,0,0-1-5c-1.84-4.22-5.56-6.66-8.32-5.46S232.28,194.94,234.12,199.16Z" style="fill:#fff;opacity:0.9500000000000001"></path><path d="M235.18,192.19c-.46-.63-.45-1.51,0-1.77l.3-.15.3-.11c.52-.18,1.18.41,1.33,1.18l.78,4.46c.05.23-.15.31-.29.13Z" style="fill:#193282"></path><path id="freepik--mascara--inject-13" d="M234.37,195a1.94,1.94,0,0,1-.77-1.64l.09-.56c0-.18.09-.35.14-.51.16-.48.68-.36,1.07.24l2.61,4c.12.18.08.39-.06.31Z" style="fill:#193282"></path><path d="M235.24,198.31c-.36.16-.91-.38-1.12-1.1,0-.14-.08-.28-.11-.43s-.07-.28-.1-.42c-.15-.71.17-1.12.64-.84L237.1,197c.14.08.21.37.1.41Z" style="fill:#193282"></path><path d="M235.31,200.29a5.59,5.59,0,0,1,1.4-2l-1.37.6C235,199,235,199.68,235.31,200.29Z" style="fill:#193282"></path><path d="M238.7,200.11v3.7l.13.07c.45.22.72-.18.6-.83a.52.52,0,0,0,0-.11Z" style="fill:#193282"></path><path id="freepik--mascara--inject-13" d="M242,202.23c.42.58.43,1.39,0,1.66a5.19,5.19,0,0,1-.47.25,4.2,4.2,0,0,1-.5.17c-.48.13-1.07-.43-1.21-1.13l-1.1-4.73c0-.22.15-.3.28-.12Z" style="fill:#193282"></path><path d="M239.9,198.18l3.42,1.3a1.52,1.52,0,0,1,.82,1.77c0,.13-.09.26-.14.39s-.1.25-.16.37c-.29.6-1,.56-1.51-.07l-2.58-3.39C239.61,198.36,239.71,198.11,239.9,198.18Z" style="fill:#193282"></path><path id="freepik--mascara--inject-13" d="M242.7,195.64c.49-.21,1.14.24,1.32.94.07.25.12.5.17.75s.07.49.1.73c.07.71-.41,1.17-1,.95l-3.84-1.49c-.18-.07-.23-.36-.08-.43Z" style="fill:#193282"></path><path d="M240.7,192.83c.26-.6,1-.64,1.46-.08l.28.35.27.36a1.13,1.13,0,0,1-.22,1.68l-2.92,1.28c-.16.07-.34-.17-.26-.35Z" style="fill:#193282"></path><path id="freepik--mascara--inject-13" d="M237.51,191c-.14-.76.31-1.33.93-1.17q.31.09.63.21c.21.08.42.18.63.28a1.55,1.55,0,0,1,.71,1.8l-1.62,4.09c-.08.19-.33.09-.37-.14Z" style="fill:#193282"></path><g style="opacity:0.45"><path d="M235.18,192.19c-.46-.63-.45-1.51,0-1.77l.3-.15.3-.11c.52-.18,1.18.41,1.33,1.18l.78,4.46c.05.23-.15.31-.29.13Z" style="fill:#fff"></path><path id="freepik--mascara--inject-13" d="M234.37,195a1.94,1.94,0,0,1-.77-1.64l.09-.56c0-.18.09-.35.14-.51.16-.48.68-.36,1.07.24l2.61,4c.12.18.08.39-.06.31Z" style="fill:#fff"></path><path d="M235.24,198.31c-.36.16-.91-.38-1.12-1.1,0-.14-.08-.28-.11-.43s-.07-.28-.1-.42c-.15-.71.17-1.12.64-.84L237.1,197c.14.08.21.37.1.41Z" style="fill:#fff"></path><path d="M235.31,200.29a5.59,5.59,0,0,1,1.4-2l-1.37.6C235,199,235,199.68,235.31,200.29Z" style="fill:#fff"></path><path d="M238.7,200.11v3.7l.13.07c.45.22.72-.18.6-.83a.52.52,0,0,0,0-.11Z" style="fill:#fff"></path><path id="freepik--mascara--inject-13" d="M242,202.23c.42.58.43,1.39,0,1.66a5.19,5.19,0,0,1-.47.25,4.2,4.2,0,0,1-.5.17c-.48.13-1.07-.43-1.21-1.13l-1.1-4.73c0-.22.15-.3.28-.12Z" style="fill:#fff"></path><path d="M239.9,198.18l3.42,1.3a1.52,1.52,0,0,1,.82,1.77c0,.13-.09.26-.14.39s-.1.25-.16.37c-.29.6-1,.56-1.51-.07l-2.58-3.39C239.61,198.36,239.71,198.11,239.9,198.18Z" style="fill:#fff"></path><path id="freepik--mascara--inject-13" d="M242.7,195.64c.49-.21,1.14.24,1.32.94.07.25.12.5.17.75s.07.49.1.73c.07.71-.41,1.17-1,.95l-3.84-1.49c-.18-.07-.23-.36-.08-.43Z" style="fill:#fff"></path><path d="M240.7,192.83c.26-.6,1-.64,1.46-.08l.28.35.27.36a1.13,1.13,0,0,1-.22,1.68l-2.92,1.28c-.16.07-.34-.17-.26-.35Z" style="fill:#fff"></path><path id="freepik--mascara--inject-13" d="M237.51,191c-.14-.76.31-1.33.93-1.17q.31.09.63.21c.21.08.42.18.63.28a1.55,1.55,0,0,1,.71,1.8l-1.62,4.09c-.08.19-.33.09-.37-.14Z" style="fill:#fff"></path></g><path d="M241.9,204.81a4.17,4.17,0,0,1-1.32.1l-.18,0h0a3.41,3.41,0,0,1-.54-.1h0l-.18-.05h0l-.19-.06-.19-.06-.38-.16-.15-.07h0v-6.75l3.7,7A4.24,4.24,0,0,1,241.9,204.81Z" style="opacity:0.07"></path></g><g id="freepik--Umbrella--inject-13"><path d="M272.17,192c-1.38-.62-4.78-.85-7-.66a59,59,0,0,0-9.23-3.21l1.42-3.75,2.1-5.55C264.92,182.24,269,185.41,272.17,192Z" style="fill:#193282"></path><path d="M272.17,192c-1.38-.62-4.78-.85-7-.66a59,59,0,0,0-9.23-3.21l1.42-3.75,2.1-5.55C264.92,182.24,269,185.41,272.17,192Z" style="opacity:0.15"></path><path d="M272.17,192c-1.38-.62-4.78-.85-7-.66.11-5.8-2.14-10-5.31-12.24A41.29,41.29,0,0,1,272.17,192Z" style="fill:#ebebeb"></path><path d="M257.35,184.42l-.43,1.14a20.81,20.81,0,0,1,8.19,3.92,19.76,19.76,0,0,1,7.06,2.56S267.59,186.57,257.35,184.42Z" style="opacity:0.15"></path><path d="M241.19,180.32c1.44.44,4.14,2.51,5.69,4.14a58.1,58.1,0,0,1,9.05,3.71l1.42-3.75,2.1-5.55C253.12,177.78,248,177.47,241.19,180.32Z" style="fill:#193282"></path><path d="M241.19,180.32c1.44.44,4.14,2.51,5.69,4.14a58.1,58.1,0,0,1,9.05,3.71l1.42-3.75,2.1-5.55C253.12,177.78,248,177.47,241.19,180.32Z" style="fill:#ebebeb"></path><path d="M241.19,180.32c1.44.44,4.14,2.51,5.69,4.14,3.75-4.42,8.23-6.09,12.08-5.66A41.18,41.18,0,0,0,241.19,180.32Z" style="fill:#193282"></path><path d="M241.19,180.32c1.44.44,4.14,2.51,5.69,4.14,3.75-4.42,8.23-6.09,12.08-5.66A41.18,41.18,0,0,0,241.19,180.32Z" style="opacity:0.15"></path><path d="M257.35,184.42l-.43,1.14a20.66,20.66,0,0,0-8.75-2.49,19.34,19.34,0,0,0-7-2.75S248.25,179.25,257.35,184.42Z" style="opacity:0.15"></path><path d="M259.51,179.16l-14.17,42.05a.19.19,0,0,1-.14.1.58.58,0,0,1-.48-.17.2.2,0,0,1-.05-.17l14.17-42.05Z" style="fill:#455a64"></path><path d="M259.22,179.13l-.06,0-.06,0-.06,0c-.08-.06,0-.08,0-.13l.15-.41c.12-.33.29-.77.47-1.2.09-.22.18-.44.28-.64s.09-.2.13-.29l.13-.25a1.5,1.5,0,0,1,.11-.22,1.31,1.31,0,0,1,.09-.17.69.69,0,0,1,.08-.14l0,.16s0,.11,0,.19a2.23,2.23,0,0,1,0,.23l-.06.28c0,.1-.05.21-.08.32s-.11.44-.18.67c-.12.45-.26.9-.37,1.23-.06.17-.11.31-.14.41s0,.1-.1.09h-.14Z" style="fill:#455a64"></path><path d="M272.17,192a19.8,19.8,0,0,0-6.61-3.34,19.24,19.24,0,0,0-8.51-3.49l2.4-6.34A28.56,28.56,0,0,1,272.17,192Z" style="fill:#193282"></path><path d="M265.56,188.7a19.24,19.24,0,0,0-8.51-3.49l2.4-6.34c1.95,1.24,3.46,3.73,4.51,5.86A30.09,30.09,0,0,1,265.56,188.7Z" style="fill:#f0f0f0"></path><path d="M241.2,180.32a19.92,19.92,0,0,1,7.16,1.87,19.18,19.18,0,0,1,8.69,3l2.4-6.34A28.53,28.53,0,0,0,241.2,180.32Z" style="fill:#f0f0f0"></path><path d="M248.36,182.19a19.18,19.18,0,0,1,8.69,3l2.4-6.34c-2.28-.36-5.06.5-7.26,1.41A32,32,0,0,0,248.36,182.19Z" style="fill:#193282"></path></g><path d="M244.67,221l4.27-12.67.79-.11-4.39,13a.19.19,0,0,1-.14.1.58.58,0,0,1-.48-.17A.2.2,0,0,1,244.67,221Z" style="fill:#fff;opacity:0.30000000000000004"></path><path d="M248.94,208.3l.24-.7.79-.13-.24.72Z" style="fill:#fff;opacity:0.5"></path></g><path d="M230.67,222.29a14.56,14.56,0,0,1,.59-1.8c.48-1.41.05-3.07,0-4.53a9.47,9.47,0,0,1,.79-4.37c.51-1.2,2.12-1.9,3.21-2.49l0,.37s.14,4.87.17,5.27c1.8,4.61,6.8,5.52,9.75,8.06,2.74,2.37,1.72,4.81.2,4.73a25.07,25.07,0,0,1-3.83-.7,15.88,15.88,0,0,1,4.89,2.78c3.11,2.34,2,4.25.81,4.22-.76,0-7.38-1.46-7.38-1.46a21,21,0,0,1,4,2.32c1.44,1.22,1.33,3.2-.33,3a48.89,48.89,0,0,1-8.48-2.49,3.21,3.21,0,0,1-1.09-.92,25.89,25.89,0,0,1-2.5-3.93,5.9,5.9,0,0,1-.88-1.95,13.75,13.75,0,0,1,.23-2.12c.08-1.28-.43-2.56-.24-3.82Z" style="fill:#f28f8f"></path><path d="M245.81,228.9a25.78,25.78,0,0,0-2.47-1.5,8.05,8.05,0,0,0,2.5.23,1.6,1.6,0,0,0,1.09-1c.59-2.07-1.28-3.74-2.81-4.74-3.18-2-7.2-3.32-8.67-7.1,1.67,4.88,7.6,5.58,10.61,9.19.8,1,1.16,2.94-.3,3.4a15.22,15.22,0,0,1-4.14-.66h0l-4.24-1.12,4.16,1.45h0a17.19,17.19,0,0,1,5.83,3.69c.69.73,1.4,2,.46,2.76-.84.42-2.32-.25-3.28-.34l-6.5-1.34c1.57.76,8.42,3.25,6.32,5.61-.48.28-1.18,0-1.82-.1a41.25,41.25,0,0,1-7.57-2.35c-1.56-1.18-2.42-3.13-3.42-4.79a5,5,0,0,1-.83-1.76,10.26,10.26,0,0,1,.19-2c.13-1.36-.45-2.64-.27-4-.21,1.33.33,2.65.17,4a10,10,0,0,0-.23,2,5,5,0,0,0,.8,1.85c1.33,2.39,2.4,5,5.31,5.7a54.72,54.72,0,0,0,6.77,1.87,1.59,1.59,0,0,0,1.08-.13,1.21,1.21,0,0,0,.57-1,3.13,3.13,0,0,0-1.61-2.59,18.88,18.88,0,0,0-2-1.19l2.93.63c.77.15,1.54.31,2.32.43a1.66,1.66,0,0,0,1.29-.18C249.92,232.05,247.24,229.85,245.81,228.9Z" style="fill:#b16668"></path><path d="M241.57,226.83a25.62,25.62,0,0,0-2.6-1.1,8.71,8.71,0,0,1-2.4-1.1c-.66-.58-1.33-1.26-2-1.89s-1.38-1.26-2-1.93a11.89,11.89,0,0,0,1.57,2.37,15.4,15.4,0,0,0,2,2.08,6.81,6.81,0,0,0,2.74,1.07C239.71,226.54,240.63,226.7,241.57,226.83Z" style="fill:#b16668"></path><path d="M239.89,232.37c-.8-.34-1.62-.63-2.43-.89a11.11,11.11,0,0,1-2.26-.92,3,3,0,0,1-.74-.85l-.74-1c-.48-.7-1-1.39-1.56-2.06a16.35,16.35,0,0,0,1,2.39,12.76,12.76,0,0,0,.64,1.14,3.55,3.55,0,0,0,.92,1.1,7.52,7.52,0,0,0,2.56.86A17.23,17.23,0,0,0,239.89,232.37Z" style="fill:#b16668"></path><path d="M220,191.84c-3.37-3.68-9.37-4-12.4-1.58,4.83-1.88,11.42,2.2,15.2,5.27Z" style="fill:#b16668"></path></g></g></g></g><g id="freepik--speech-bubble--inject-13"><g id="freepik--speech-bubble--inject-13"><g id="freepik--speech-bubble--inject-13"><path d="M198.51,74a25.31,25.31,0,0,1,9.72,15.86l.34,2.88a25.31,25.31,0,0,1-49.95,7.13L158.14,97a25.31,25.31,0,0,1,40.37-23Z" style="fill:#fff"></path><path d="M161.32,77.81a27.48,27.48,0,0,0,40.91,36.4l8.21,2.31a1.6,1.6,0,0,0,1.79-2.38l-4.52-7.24a27.47,27.47,0,0,0-46.39-29.09ZM198.51,74a25.31,25.31,0,0,1,9.72,15.86l.34,2.88a25.31,25.31,0,0,1-49.95,7.13L158.14,97a25.31,25.31,0,0,1,40.37-23Z" style="fill:#455a64"></path></g><path d="M196.6,86h-3.37a1.73,1.73,0,0,1-1.54-1l-.44-.87a1.69,1.69,0,0,0-1.51-.93H176.86a1.67,1.67,0,0,0-1.5.93l-.44.87a1.74,1.74,0,0,1-1.54,1H170a1.78,1.78,0,0,0-1.78,1.78v15.82a1.78,1.78,0,0,0,1.78,1.78h26.6a1.78,1.78,0,0,0,1.78-1.78V87.76A1.78,1.78,0,0,0,196.6,86Zm.33,17.6a.34.34,0,0,1-.33.34H170a.34.34,0,0,1-.33-.34V87.76a.33.33,0,0,1,.33-.33h3.38a3.15,3.15,0,0,0,2.83-1.75l.44-.88a.22.22,0,0,1,.21-.12h12.88a.24.24,0,0,1,.22.13l.43.87a3.17,3.17,0,0,0,2.84,1.75h3.37a.33.33,0,0,1,.33.33ZM169.44,84.8h3.47a.79.79,0,1,0,0-1.57h-3.47a.79.79,0,1,0,0,1.57Zm13.86,3.8A6.69,6.69,0,1,0,190,95.28,6.68,6.68,0,0,0,183.3,88.6Zm0,11.92a5.24,5.24,0,1,1,5.24-5.24A5.25,5.25,0,0,1,183.3,100.52Zm5.58-11.21a.72.72,0,1,0-.72-.71A.71.71,0,0,0,188.88,89.31Z" style="fill:#193282"></path></g></g></svg>
